<svg width="393" height="307" viewBox="0 0 393 307" fill="none" xmlns="http://www.w3.org/2000/svg">
<path d="M353.621 283.464H327.589V283.67H353.621V283.464Z" fill="#E6CAF7"/>
<path d="M260.339 285.708H253.509V285.915H260.339V285.708Z" fill="#E6CAF7"/>
<path d="M326.803 275.806H311.72V276.012H326.803V275.806Z" fill="#E6CAF7"/>
<path d="M75.1807 277.192H41.2334V277.399H75.1807V277.192Z" fill="#E6CAF7"/>
<path d="M87.16 277.192H82.1846V277.399H87.16V277.192Z" fill="#E6CAF7"/>
<path d="M176.967 280.675H103.335V280.881H176.967V280.675Z" fill="#E6CAF7"/>
<path d="M187.383 233.38H35.6062C34.4159 233.38 33.2744 232.883 32.4327 232C31.591 231.116 31.1182 229.917 31.1182 228.668V4.6709C31.1285 3.42832 31.6059 2.24034 32.4465 1.36554C33.2871 0.490743 34.4227 -4.76381e-05 35.6062 3.46814e-09H187.383C187.972 3.46814e-09 188.556 0.121883 189.1 0.358691C189.645 0.595499 190.14 0.942595 190.556 1.38016C190.973 1.81772 191.304 2.33719 191.529 2.9089C191.755 3.4806 191.871 4.09335 191.871 4.71216V228.668C191.871 229.286 191.755 229.899 191.529 230.471C191.304 231.043 190.973 231.562 190.556 232C190.14 232.437 189.645 232.784 189.1 233.021C188.556 233.258 187.972 233.38 187.383 233.38ZM35.6062 0.16505C34.4687 0.167231 33.3783 0.642653 32.5739 1.48719C31.7696 2.33173 31.3167 3.47654 31.3147 4.6709V228.668C31.3167 229.862 31.7696 231.007 32.5739 231.851C33.3783 232.696 34.4687 233.171 35.6062 233.173H187.383C188.52 233.171 189.611 232.696 190.415 231.851C191.219 231.007 191.672 229.862 191.674 228.668V4.6709C191.672 3.47654 191.219 2.33173 190.415 1.48719C189.611 0.642653 188.52 0.167231 187.383 0.16505H35.6062Z" fill="#E6CAF7"/>
<path d="M357.395 233.38H205.618C204.428 233.38 203.286 232.883 202.444 232C201.603 231.116 201.13 229.917 201.13 228.668V4.6709C201.14 3.42832 201.618 2.24034 202.458 1.36554C203.299 0.490743 204.434 -4.76381e-05 205.618 3.46814e-09H357.395C358.585 3.46815e-09 359.726 0.496458 360.568 1.38016C361.41 2.26386 361.883 3.46242 361.883 4.71216V228.668C361.883 229.917 361.41 231.116 360.568 232C359.726 232.883 358.585 233.38 357.395 233.38ZM205.618 0.16505C204.48 0.167231 203.39 0.642653 202.586 1.48719C201.781 2.33173 201.328 3.47654 201.326 4.6709V228.668C201.328 229.862 201.781 231.007 202.586 231.851C203.39 232.696 204.48 233.171 205.618 233.173H357.395C358.532 233.171 359.622 232.696 360.427 231.851C361.231 231.007 361.684 229.862 361.686 228.668V4.6709C361.684 3.47654 361.231 2.33173 360.427 1.48719C359.622 0.642653 358.532 0.167231 357.395 0.16505H205.618Z" fill="#E6CAF7"/>
<path d="M393 270.186H0V270.392H393V270.186Z" fill="#E6CAF7"/>
<path d="M102.714 52.3539L108.444 48.4917L111.573 54.8461L118.379 54.516L118.065 61.6626L124.117 64.9471L120.439 70.9632L124.117 76.9875L118.065 80.2719L118.379 87.4186L111.573 87.0885L108.444 93.4429L102.714 89.5807L96.9765 93.4429L93.8483 87.0885L87.0415 87.4186L87.3559 80.2719L81.3037 76.9875L84.9822 70.9632L81.3037 64.9471L87.3559 61.6626L87.0415 54.516L93.8483 54.8461L96.9765 48.4917L102.714 52.3539Z" fill="#6366F1"/>
<path d="M100.537 80.156L93.7226 73.0011C93.3487 72.6081 93.1387 72.0753 93.1387 71.5198C93.1387 70.9643 93.3487 70.4315 93.7226 70.0385C94.0969 69.6459 94.6044 69.4254 95.1335 69.4254C95.6625 69.4254 96.17 69.6459 96.5443 70.0385L100.537 74.2308L108.877 65.4749C109.251 65.0823 109.758 64.8618 110.288 64.8618C110.817 64.8618 111.324 65.0823 111.698 65.4749C112.072 65.8679 112.282 66.4007 112.282 66.9562C112.282 67.5117 112.072 68.0445 111.698 68.4375L100.537 80.156Z" fill="#FAFAFA"/>
<path d="M315.862 115.518L320.358 112.489L322.81 117.474L328.155 117.21L327.904 122.813L332.651 125.388L329.767 130.117L332.651 134.837L327.904 137.412L328.155 143.015L322.81 142.759L320.358 147.744L315.862 144.715L311.366 147.744L308.914 142.759L303.577 143.015L303.821 137.412L299.073 134.837L301.958 130.117L299.073 125.388L303.821 122.813L303.577 117.21L308.914 117.474L311.366 112.489L315.862 115.518Z" fill="#6366F1"/>
<path d="M314.156 137.321L308.812 131.709C308.521 131.4 308.358 130.984 308.358 130.55C308.358 130.116 308.521 129.699 308.812 129.39C309.106 129.083 309.505 128.91 309.92 128.91C310.335 128.91 310.734 129.083 311.028 129.39L314.172 132.691L320.712 125.825C321.006 125.518 321.405 125.345 321.82 125.345C322.235 125.345 322.634 125.518 322.928 125.825C323.221 126.134 323.385 126.553 323.385 126.989C323.385 127.425 323.221 127.843 322.928 128.152L314.156 137.321Z" fill="#FAFAFA"/>
<path d="M103.289 194.758L112.053 199.454C112.775 199.837 113.596 199.964 114.392 199.816C115.189 199.667 115.918 199.25 116.47 198.629L123.174 191.069C123.563 190.632 123.85 190.107 124.014 189.535C124.177 188.962 124.213 188.358 124.118 187.768L120.636 167.005C120.36 165.377 119.48 163.93 118.189 162.981C116.898 162.033 115.302 161.661 113.75 161.946L102.652 164.001C101.883 164.144 101.149 164.444 100.491 164.884C99.8332 165.325 99.2642 165.897 98.8168 166.568C98.3694 167.239 98.0523 167.997 97.8836 168.797C97.715 169.597 97.698 170.424 97.8338 171.23L101.316 191.985C101.421 192.575 101.653 193.132 101.995 193.613C102.337 194.094 102.78 194.485 103.289 194.758ZM113.271 193.108C113.635 193.038 114.011 193.084 114.351 193.239C114.691 193.395 114.979 193.652 115.179 193.98C115.379 194.307 115.482 194.69 115.475 195.079C115.468 195.468 115.351 195.846 115.138 196.165C114.926 196.484 114.629 196.729 114.283 196.87C113.938 197.012 113.561 197.042 113.199 196.958C112.837 196.873 112.508 196.678 112.252 196.397C111.996 196.115 111.825 195.76 111.762 195.377C111.677 194.866 111.788 194.341 112.071 193.916C112.354 193.491 112.785 193.2 113.271 193.108Z" fill="#6366F1"/>
<path d="M103.716 188.323L120.676 185.184L120.352 183.257L103.393 186.397L103.716 188.323Z" fill="#FAFAFA"/>
<path d="M100.844 171.207L117.804 168.067L117.48 166.141L100.521 169.281L100.844 171.207Z" fill="#FAFAFA"/>
<path d="M133.242 60.3585L139.279 67.1585C139.775 67.7168 140.43 68.0905 141.146 68.223C141.863 68.3555 142.6 68.2397 143.248 67.893L151.108 63.6677C151.571 63.4225 151.972 63.0672 152.28 62.6302C152.589 62.1932 152.796 61.6865 152.885 61.1507L156.029 42.4836C156.273 41.0196 155.954 39.5135 155.142 38.2959C154.33 37.0782 153.092 36.2486 151.698 35.9889L141.723 34.1404C140.327 33.8837 138.89 34.2191 137.729 35.0732C136.568 35.9272 135.777 37.23 135.53 38.6957L132.386 57.3546C132.295 57.8907 132.326 58.4416 132.475 58.9632C132.623 59.4848 132.886 59.9626 133.242 60.3585ZM142.148 62.2235C142.476 62.2827 142.78 62.4427 143.021 62.6834C143.263 62.924 143.431 63.2345 143.504 63.5755C143.577 63.9165 143.552 64.2726 143.433 64.5988C143.313 64.925 143.104 65.2065 142.832 65.4078C142.56 65.6091 142.237 65.7211 141.904 65.7296C141.571 65.7381 141.243 65.6426 140.962 65.4554C140.681 65.2682 140.459 64.9976 140.325 64.6779C140.19 64.3582 140.149 64.0037 140.206 63.6594C140.283 63.1991 140.531 62.7895 140.894 62.5203C141.258 62.2512 141.709 62.1444 142.148 62.2235Z" fill="#F0F0F0"/>
<path d="M135.496 55.072L150.745 57.895L151.036 56.164L135.787 53.3409L135.496 55.072Z" fill="#FAFAFA"/>
<path d="M138.521 40.6728L153.695 43.4365L153.98 41.7139L138.805 38.9502L138.521 40.6728Z" fill="#FAFAFA"/>
<path d="M279.328 40.231C278.212 38.5575 276.509 37.4176 274.593 37.0617C272.677 36.7058 270.705 37.163 269.11 38.3329L265.966 40.6188L263.781 37.3179C262.663 35.648 260.96 34.5109 259.045 34.1553C257.131 33.7996 255.16 34.2542 253.563 35.4198C251.973 36.5942 250.89 38.382 250.551 40.3923C250.212 42.4026 250.645 44.4719 251.755 46.148L262.374 62.067L277.544 50.9179C279.121 49.7417 280.193 47.96 280.527 45.9593C280.861 43.9586 280.431 41.9003 279.328 40.231Z" fill="#E6CAF7"/>
<path d="M301.132 41.716C300.862 41.308 300.518 40.9601 300.119 40.6923C299.721 40.4245 299.276 40.242 298.81 40.1554C298.344 40.0687 297.866 40.0796 297.404 40.1874C296.942 40.2952 296.505 40.4977 296.118 40.7834L294.593 41.9058L293.524 40.3048C292.975 39.4845 292.14 38.9257 291.2 38.7509C290.26 38.5762 289.292 38.7996 288.509 39.3723C287.729 39.9508 287.198 40.8301 287.033 41.8183C286.868 42.8064 287.082 43.8229 287.629 44.6456L292.824 52.4359L300.252 46.981C300.64 46.6968 300.971 46.3348 301.225 45.916C301.479 45.4972 301.652 45.0298 301.734 44.5405C301.816 44.0513 301.805 43.55 301.702 43.0652C301.598 42.5805 301.405 42.122 301.132 41.716Z" fill="#E6CAF7"/>
<path d="M68.6654 117.482C63.5926 119.012 59.3057 122.594 56.747 127.44C54.1884 132.287 53.5674 138.002 55.0205 143.329C56.9933 150.534 69.027 162.607 77.2171 170.191C78.0571 170.97 79.0706 171.515 80.1641 171.775C81.2575 172.035 82.3957 172.001 83.4734 171.677C84.5512 171.353 85.5338 170.749 86.3306 169.921C87.1275 169.093 87.7127 168.068 88.0325 166.939C91.1765 155.955 95.2558 139.013 93.2908 131.809C92.5705 129.17 91.362 126.706 89.7344 124.558C88.1069 122.41 86.0921 120.619 83.8052 119.289C81.5184 117.958 79.0042 117.114 76.4065 116.804C73.8087 116.494 71.1783 116.725 68.6654 117.482ZM76.6826 146.836C74.9375 147.363 73.0828 147.334 71.3531 146.754C69.6235 146.174 68.0965 145.068 66.9654 143.577C65.8342 142.086 65.1497 140.276 64.9984 138.376C64.847 136.476 65.2357 134.572 66.1152 132.904C66.9947 131.236 68.3255 129.879 69.9393 129.006C71.5532 128.132 73.3776 127.78 75.1818 127.995C76.986 128.21 78.689 128.982 80.0754 130.213C81.4618 131.444 82.4694 133.079 82.9706 134.912C83.6427 137.368 83.3578 140.005 82.1786 142.241C80.9994 144.477 79.0225 146.13 76.6826 146.836Z" fill="#E0E0E0"/>
<path d="M71.7778 116.549C66.7113 118.084 62.432 121.667 59.8795 126.512C57.3271 131.356 56.7102 137.066 58.1642 142.388C60.1371 149.592 72.1708 161.674 80.3609 169.258C81.2041 170.035 82.2203 170.576 83.3155 170.832C84.4108 171.087 85.5497 171.049 86.627 170.72C87.7043 170.391 88.6851 169.782 89.4789 168.949C90.2727 168.117 90.8538 167.088 91.1684 165.957C94.3124 154.973 98.3917 138.039 96.4267 130.826C95.7025 128.189 94.4902 125.727 92.8591 123.581C91.228 121.436 89.2101 119.649 86.9208 118.323C84.6316 116.997 82.1158 116.158 79.5175 115.854C76.9191 115.55 74.2891 115.786 71.7778 116.549ZM79.795 145.903C78.0484 146.432 76.1918 146.404 74.4601 145.824C72.7284 145.245 71.1994 144.139 70.0665 142.646C68.9336 141.154 68.2477 139.343 68.0955 137.441C67.9433 135.539 68.3318 133.633 69.2117 131.963C70.0916 130.293 71.4234 128.935 73.0387 128.06C74.654 127.185 76.4801 126.833 78.2862 127.048C80.0922 127.262 81.797 128.035 83.1848 129.267C84.5727 130.499 85.5812 132.136 86.083 133.97C86.4169 135.187 86.5192 136.462 86.3839 137.72C86.2485 138.979 85.8783 140.197 85.2943 141.305C84.7104 142.413 83.9241 143.39 82.9805 144.179C82.0369 144.968 80.9544 145.554 79.795 145.903Z" fill="#F59E0B"/>
<path d="M300.967 64.3692C298.78 63.7052 296.489 63.5013 294.227 63.7691C291.964 64.0368 289.775 64.7711 287.783 65.9296C285.792 67.0882 284.038 68.6483 282.622 70.5203C281.206 72.3924 280.156 74.5396 279.533 76.8387C277.819 83.1188 281.396 97.866 284.115 107.431C284.392 108.416 284.902 109.312 285.597 110.035C286.291 110.759 287.149 111.286 288.09 111.569C289.031 111.851 290.025 111.879 290.979 111.651C291.933 111.422 292.816 110.944 293.547 110.261C300.684 103.659 311.162 93.1456 312.875 86.8737C313.507 84.5751 313.7 82.1681 313.443 79.791C313.186 77.4139 312.484 75.1136 311.377 73.0223C310.27 70.931 308.781 69.0899 306.995 67.6049C305.208 66.12 303.16 65.0203 300.967 64.3692ZM293.964 89.9519C292.445 89.4942 291.09 88.5743 290.069 87.3084C289.048 86.0424 288.407 84.4872 288.228 82.8392C288.048 81.1911 288.337 79.5241 289.06 78.0488C289.782 76.5734 290.904 75.3557 292.285 74.5497C293.666 73.7436 295.243 73.3852 296.818 73.5198C298.393 73.6544 299.894 74.2759 301.133 75.3058C302.371 76.3357 303.291 77.7279 303.776 79.3065C304.262 80.8851 304.291 82.5793 303.86 84.1751C303.573 85.2376 303.089 86.2301 302.436 87.0959C301.782 87.9616 300.973 88.6834 300.054 89.2201C299.134 89.7568 298.123 90.0976 297.078 90.2232C296.033 90.3488 294.975 90.2566 293.964 89.9519Z" fill="#E0E0E0"/>
<path d="M303.679 65.1944C301.492 64.5304 299.201 64.3265 296.939 64.5943C294.676 64.862 292.487 65.5963 290.495 66.7548C288.504 67.9134 286.75 69.4735 285.334 71.3455C283.918 73.2176 282.868 75.3648 282.245 77.6639C280.531 83.9358 284.108 98.6912 286.827 108.256C287.104 109.241 287.614 110.137 288.309 110.861C289.003 111.584 289.861 112.111 290.802 112.394C291.743 112.676 292.736 112.704 293.69 112.476C294.645 112.247 295.528 111.769 296.259 111.086C303.388 104.484 313.866 93.9708 315.579 87.6989C316.211 85.4009 316.404 82.9944 316.148 80.6177C315.891 78.241 315.19 75.941 314.084 73.8498C312.978 71.7586 311.49 69.9174 309.704 68.432C307.919 66.9467 305.871 65.8464 303.679 65.1944ZM296.699 90.7771C295.18 90.3208 293.823 89.4019 292.801 88.1365C291.779 86.871 291.137 85.3159 290.956 83.6675C290.776 82.0192 291.064 80.3516 291.786 78.8754C292.508 77.3993 293.63 76.1808 295.011 75.3741C296.392 74.5673 297.969 74.2084 299.545 74.3427C301.12 74.477 302.622 75.0985 303.861 76.1286C305.099 77.1588 306.02 78.5514 306.505 80.1305C306.99 81.7095 307.019 83.4042 306.587 85.0003C306.006 87.143 304.637 88.9554 302.783 90.0387C300.928 91.1221 298.74 91.3877 296.699 90.7771Z" fill="#F59E0B"/>
<path d="M196.5 307C280.667 307 348.898 302.818 348.898 297.658C348.898 292.499 280.667 288.316 196.5 288.316C112.333 288.316 44.1025 292.499 44.1025 297.658C44.1025 302.818 112.333 307 196.5 307Z" fill="#F59E0B"/>
<path d="M148.161 109.651H156.571C156.988 109.643 157.402 109.728 157.785 109.9C158.168 110.072 158.512 110.328 158.795 110.65C159.077 110.972 159.291 111.353 159.423 111.768C159.554 112.184 159.6 112.624 159.558 113.059L157.986 131.685C157.896 132.612 157.485 133.472 156.832 134.103C156.179 134.734 155.329 135.092 154.441 135.11H146.039C145.621 135.117 145.207 135.031 144.823 134.857C144.44 134.684 144.096 134.426 143.814 134.102C143.532 133.779 143.319 133.396 143.189 132.979C143.059 132.562 143.015 132.121 143.06 131.685L144.624 113.059C144.718 112.136 145.128 111.281 145.779 110.654C146.431 110.026 147.277 109.67 148.161 109.651Z" fill="#4A154B"/>
<path opacity="0.2" d="M242.245 105.673H255.387C256.039 105.661 256.687 105.795 257.286 106.066C257.886 106.336 258.423 106.738 258.863 107.244C259.304 107.75 259.636 108.348 259.839 108.999C260.042 109.65 260.11 110.34 260.04 111.021L258.421 130.472C258.28 131.913 257.643 133.251 256.631 134.235C255.618 135.22 254.298 135.783 252.919 135.819H239.73C239.078 135.83 238.431 135.696 237.833 135.424C237.234 135.153 236.698 134.751 236.258 134.246C235.819 133.74 235.487 133.142 235.285 132.491C235.082 131.841 235.014 131.152 235.084 130.472L236.704 111.021C236.845 109.572 237.487 108.229 238.508 107.244C239.529 106.258 240.858 105.7 242.245 105.673Z" fill="#111827"/>
<path opacity="0.2" d="M239.549 137.989H252.698C253.35 137.978 253.997 138.113 254.595 138.384C255.194 138.656 255.73 139.058 256.17 139.563C256.609 140.069 256.941 140.667 257.143 141.318C257.346 141.968 257.414 142.657 257.344 143.337L255.724 162.788C255.584 164.237 254.943 165.582 253.921 166.567C252.9 167.553 251.57 168.111 250.183 168.136H237.041C236.389 168.148 235.741 168.014 235.142 167.743C234.543 167.472 234.005 167.071 233.565 166.565C233.125 166.059 232.792 165.461 232.589 164.809C232.386 164.158 232.318 163.469 232.388 162.788L234.015 143.337C234.155 141.889 234.796 140.546 235.815 139.561C236.835 138.575 238.163 138.016 239.549 137.989Z" fill="#111827"/>
<path d="M171.749 69.2054H244.973C247.333 69.1612 249.675 69.6455 251.843 70.6259C254.01 71.6064 255.954 73.0605 257.545 74.8915C259.136 76.7225 260.337 78.8883 261.068 81.2447C261.799 83.6011 262.044 86.094 261.785 88.5574L246.16 276.029C245.651 281.268 243.331 286.129 239.639 289.694C235.947 293.258 231.139 295.279 226.124 295.373H152.901C150.541 295.417 148.2 294.932 146.033 293.953C143.866 292.973 141.922 291.519 140.332 289.689C138.741 287.859 137.54 285.694 136.808 283.339C136.077 280.983 135.831 278.491 136.088 276.029L151.698 88.5574C152.205 83.3143 154.526 78.4485 158.222 74.8819C161.917 71.3153 166.73 69.2956 171.749 69.2054Z" fill="#4A154B"/>
<path opacity="0.2" d="M171.749 69.2054H244.973C247.333 69.1612 249.675 69.6455 251.843 70.6259C254.01 71.6064 255.954 73.0605 257.545 74.8915C259.136 76.7225 260.337 78.8883 261.068 81.2447C261.799 83.6011 262.044 86.094 261.785 88.5574L246.16 276.029C245.651 281.268 243.331 286.129 239.639 289.694C235.947 293.258 231.139 295.279 226.124 295.373H152.901C150.541 295.417 148.2 294.932 146.033 293.953C143.866 292.973 141.922 291.519 140.332 289.689C138.741 287.859 137.54 285.694 136.808 283.339C136.077 280.983 135.831 278.491 136.088 276.029L151.698 88.5574C152.205 83.3143 154.526 78.4485 158.222 74.8819C161.917 71.3153 166.73 69.2956 171.749 69.2054Z" fill="#111827"/>
<path d="M169.383 69.2052H242.614C244.974 69.1624 247.315 69.6476 249.483 70.6285C251.65 71.6093 253.593 73.0635 255.184 74.8942C256.774 76.7249 257.975 78.8901 258.707 81.246C259.438 83.6018 259.684 86.0941 259.427 88.5573L243.801 276.029C243.291 281.267 240.971 286.127 237.279 289.691C233.588 293.256 228.78 295.277 223.766 295.372H150.542C148.183 295.418 145.841 294.935 143.673 293.955C141.505 292.976 139.561 291.522 137.97 289.692C136.379 287.861 135.178 285.696 134.447 283.34C133.716 280.984 133.471 278.492 133.73 276.029L149.34 88.5573C150.236 77.8703 159.212 69.2052 169.383 69.2052Z" fill="#4A154B"/>
<path d="M257.226 88.5574L241.608 276.02C241.156 280.634 239.11 284.914 235.858 288.052C232.605 291.19 228.371 292.969 223.955 293.054H150.731C148.653 293.094 146.591 292.668 144.681 291.806C142.772 290.943 141.06 289.664 139.659 288.052C138.258 286.44 137.2 284.534 136.556 282.459C135.911 280.384 135.695 278.19 135.923 276.02L151.548 88.5574C151.999 83.944 154.042 79.6634 157.293 76.5237C160.544 73.3841 164.778 71.6028 169.194 71.5161H242.418C244.496 71.4773 246.558 71.9037 248.468 72.7671C250.377 73.6304 252.089 74.9109 253.49 76.5232C254.891 78.1355 255.949 80.0426 256.593 82.1177C257.237 84.1927 257.453 86.388 257.226 88.5574Z" fill="white"/>
<g opacity="0.1">
<path d="M150.731 293.054H178.493L223.342 71.5161H187.972L143.5 291.18C145.726 292.422 148.21 293.065 150.731 293.054Z" fill="#111827"/>
<path d="M240.32 71.5161H233.591L188.734 293.054H195.47L240.32 71.5161Z" fill="#111827"/>
</g>
<path d="M184.341 70.9712C184.272 71.6631 184.343 72.3624 184.55 73.0235C184.756 73.6846 185.092 74.2927 185.537 74.8081C185.982 75.3235 186.525 75.7348 187.132 76.015C187.738 76.2952 188.394 76.438 189.057 76.4343H221.676C223.09 76.4022 224.444 75.8295 225.484 74.8237C226.525 73.8179 227.18 72.4481 227.327 70.9712H184.341Z" fill="#4A154B"/>
<path d="M241.089 77.5733H248.493C248.637 77.5725 248.778 77.6034 248.91 77.6639C249.041 77.7244 249.158 77.8131 249.255 77.9244C249.351 78.0357 249.424 78.167 249.469 78.3098C249.514 78.4526 249.53 78.6037 249.515 78.7534L249.232 82.1369C249.202 82.4559 249.061 82.7521 248.836 82.9695C248.612 83.1869 248.319 83.3105 248.014 83.317H240.61C240.466 83.319 240.324 83.289 240.192 83.229C240.06 83.1689 239.942 83.0802 239.846 82.9686C239.749 82.857 239.676 82.7252 239.632 82.5818C239.587 82.4384 239.572 82.2868 239.588 82.1369L239.871 78.7534C239.902 78.4343 240.043 78.1381 240.267 77.9207C240.491 77.7033 240.784 77.5797 241.089 77.5733Z" fill="#4A154B"/>
<path d="M162.033 77.5733H171.945C172.107 77.5713 172.267 77.6052 172.416 77.6728C172.564 77.7404 172.697 77.8402 172.806 77.9657C172.915 78.0912 172.998 78.2395 173.049 78.4008C173.099 78.5622 173.117 78.733 173.1 78.902L172.841 81.9884C172.806 82.3483 172.647 82.6823 172.394 82.9272C172.14 83.1721 171.81 83.3108 171.465 83.3171H161.554C161.392 83.3193 161.232 83.2854 161.084 83.2177C160.936 83.15 160.803 83.05 160.695 82.9244C160.586 82.7987 160.505 82.6503 160.455 82.4889C160.405 82.3276 160.389 82.157 160.406 81.9884L160.658 78.902C160.692 78.5421 160.852 78.2081 161.105 77.9632C161.359 77.7183 161.689 77.5796 162.033 77.5733Z" fill="#4A154B"/>
<path opacity="0.4" d="M162.033 77.5733H171.945C172.107 77.5713 172.267 77.6052 172.416 77.6728C172.564 77.7404 172.697 77.8402 172.806 77.9657C172.915 78.0912 172.998 78.2395 173.049 78.4008C173.099 78.5622 173.117 78.733 173.1 78.902L172.841 81.9884C172.806 82.3483 172.647 82.6823 172.394 82.9272C172.14 83.1721 171.81 83.3108 171.465 83.3171H161.554C161.392 83.3193 161.232 83.2854 161.084 83.2177C160.936 83.15 160.803 83.05 160.695 82.9244C160.586 82.7987 160.505 82.6503 160.455 82.4889C160.405 82.3276 160.389 82.157 160.406 81.9884L160.658 78.902C160.692 78.5421 160.852 78.2081 161.105 77.9632C161.359 77.7183 161.689 77.5796 162.033 77.5733Z" fill="white"/>
<path d="M239.117 78.5304H240.28C240.333 78.5289 240.385 78.5393 240.433 78.5608C240.482 78.5823 240.526 78.6144 240.561 78.6551C240.597 78.6957 240.624 78.7439 240.641 78.7964C240.657 78.8489 240.663 78.9045 240.657 78.9595L240.414 81.8809C240.402 81.9977 240.35 82.1059 240.267 82.185C240.185 82.2642 240.077 82.3087 239.966 82.31H238.802C238.75 82.3115 238.697 82.3012 238.649 82.2797C238.6 82.2582 238.557 82.226 238.521 82.1854C238.485 82.1448 238.458 82.0966 238.442 82.044C238.425 81.9915 238.419 81.9359 238.425 81.8809L238.669 78.9595C238.68 78.8428 238.732 78.7345 238.815 78.6554C238.897 78.5763 239.005 78.5318 239.117 78.5304Z" fill="#4A154B"/>
<path d="M247.024 78.5308H248.195C248.247 78.5305 248.298 78.5417 248.346 78.5637C248.394 78.5857 248.436 78.618 248.471 78.6585C248.506 78.699 248.532 78.7468 248.548 78.7988C248.564 78.8507 248.57 78.9056 248.564 78.9599L248.321 81.8813C248.311 81.9973 248.261 82.1055 248.179 82.1848C248.098 82.264 247.991 82.3088 247.881 82.3104H246.709C246.657 82.3107 246.606 82.2995 246.558 82.2775C246.511 82.2554 246.468 82.2231 246.433 82.1826C246.398 82.1421 246.372 82.0943 246.356 82.0424C246.34 81.9905 246.334 81.9356 246.34 81.8813L246.584 78.9599C246.593 78.8438 246.644 78.7357 246.725 78.6564C246.806 78.5771 246.913 78.5324 247.024 78.5308Z" fill="white"/>
<path d="M244.516 78.5308H245.687C245.739 78.5305 245.791 78.5417 245.838 78.5637C245.886 78.5857 245.928 78.618 245.963 78.6585C245.998 78.699 246.024 78.7468 246.041 78.7988C246.057 78.8507 246.062 78.9056 246.057 78.9599L245.813 81.8813C245.803 81.9973 245.753 82.1055 245.671 82.1848C245.59 82.264 245.484 82.3088 245.373 82.3104H244.202C244.15 82.3107 244.098 82.2995 244.051 82.2775C244.003 82.2554 243.96 82.2231 243.925 82.1826C243.891 82.1421 243.864 82.0943 243.848 82.0424C243.832 81.9905 243.827 81.9356 243.832 81.8813L244.076 78.9599C244.086 78.8438 244.136 78.7357 244.217 78.6564C244.299 78.5771 244.405 78.5324 244.516 78.5308Z" fill="white"/>
<path d="M257.674 130.34L256.102 149.51C256.871 149.355 257.572 148.944 258.102 148.337C258.631 147.731 258.961 146.962 259.041 146.143L260.047 133.69C260.127 132.92 259.927 132.147 259.487 131.526C259.046 130.905 258.399 130.481 257.674 130.34Z" fill="#4A154B"/>
<path opacity="0.2" d="M257.674 130.34L256.102 149.51C256.871 149.355 257.572 148.944 258.102 148.337C258.631 147.731 258.961 146.962 259.041 146.143L260.047 133.69C260.127 132.92 259.927 132.147 259.487 131.526C259.046 130.905 258.399 130.481 257.674 130.34Z" fill="#111827"/>
<path d="M259.38 109.651L257.808 128.821C258.576 128.667 259.276 128.257 259.804 127.652C260.332 127.047 260.66 126.279 260.739 125.463L261.738 113.059C261.829 112.283 261.636 111.5 261.199 110.867C260.761 110.234 260.111 109.8 259.38 109.651Z" fill="#4A154B"/>
<path opacity="0.2" d="M259.38 109.651L257.808 128.821C258.576 128.667 259.276 128.257 259.804 127.652C260.332 127.047 260.66 126.279 260.739 125.463L261.738 113.059C261.829 112.283 261.636 111.5 261.199 110.867C260.761 110.234 260.111 109.8 259.38 109.651Z" fill="#111827"/>
<path d="M318.558 153.397H303.129C301.878 153.397 300.679 153.919 299.794 154.847C298.91 155.776 298.413 157.035 298.413 158.348V167.938C298.423 169.244 298.925 170.493 299.808 171.412C300.691 172.332 301.885 172.848 303.129 172.848H307.539V176.586C307.541 176.792 307.601 176.992 307.711 177.162C307.821 177.332 307.976 177.464 308.156 177.542C308.337 177.621 308.536 177.641 308.728 177.602C308.92 177.563 309.097 177.465 309.236 177.321L313.489 172.848H318.558C319.795 172.837 320.979 172.316 321.854 171.398C322.729 170.479 323.225 169.237 323.235 167.938V158.307C323.225 157.008 322.729 155.766 321.854 154.847C320.979 153.929 319.795 153.408 318.558 153.397Z" fill="#4A154B"/>
<path d="M314.824 157.985H307.412C307.342 157.334 307.302 157.012 307.232 156.335H303.152C303.239 156.706 303.286 156.888 303.372 157.259H306.312C306.351 157.532 306.375 157.672 306.414 157.952C306.611 159.314 306.713 159.991 306.909 161.352C306.957 161.724 306.988 161.905 307.043 162.277C307.24 163.638 307.334 164.315 307.53 165.677C307.64 166.411 307.695 166.774 307.798 167.501H315.972C316.051 167.129 316.09 166.948 316.176 166.576H308.434C308.395 166.221 308.371 166.04 308.332 165.677H316.75L317.536 162.277C317.623 161.905 317.662 161.724 317.756 161.352C318.071 159.991 318.236 159.314 318.542 157.952L314.824 157.985ZM307.523 158.901H310.148C310.148 159.9 310.187 160.395 310.218 161.377H307.798L307.523 158.901ZM308.191 164.794C308.073 163.795 308.018 163.3 307.908 162.318H310.266C310.266 163.308 310.305 163.803 310.336 164.794H308.191ZM313.229 164.794H311.099C311.099 163.795 311.099 163.3 311.099 162.318H313.457C313.355 163.3 313.315 163.795 313.229 164.794ZM313.528 161.385H311.107C311.107 160.395 311.107 159.9 311.107 158.91H313.732C313.653 159.9 313.614 160.395 313.528 161.385ZM316.137 164.794H314.015C314.133 163.795 314.188 163.3 314.314 162.318H316.672L316.137 164.794ZM316.837 161.385H314.4C314.526 160.395 314.581 159.9 314.699 158.91H317.324C317.135 159.9 317.033 160.395 316.837 161.385Z" fill="white"/>
<path d="M308.301 168.392C308.094 168.392 307.892 168.456 307.72 168.577C307.549 168.697 307.415 168.869 307.335 169.069C307.256 169.27 307.236 169.49 307.276 169.703C307.316 169.916 307.416 170.112 307.562 170.265C307.708 170.419 307.895 170.523 308.097 170.566C308.3 170.608 308.51 170.586 308.701 170.503C308.892 170.42 309.056 170.279 309.17 170.099C309.285 169.918 309.347 169.706 309.347 169.489C309.347 169.198 309.236 168.919 309.04 168.713C308.844 168.507 308.578 168.392 308.301 168.392Z" fill="white"/>
<path d="M315.705 170.579C316.279 170.579 316.743 170.091 316.743 169.489C316.743 168.888 316.279 168.4 315.705 168.4C315.132 168.4 314.668 168.888 314.668 169.489C314.668 170.091 315.132 170.579 315.705 170.579Z" fill="white"/>
<path d="M214.979 84.6867H190.487C188.467 84.7242 186.53 85.5376 185.043 86.9732C183.555 88.4087 182.62 90.3668 182.415 92.4771L181.15 107.703C181.046 108.694 181.144 109.698 181.438 110.647C181.733 111.595 182.216 112.467 182.856 113.204C183.497 113.941 184.279 114.526 185.152 114.921C186.024 115.316 186.967 115.511 187.917 115.493H194.928L194.433 121.418C194.409 121.743 194.482 122.068 194.643 122.347C194.804 122.626 195.044 122.845 195.329 122.973C195.614 123.101 195.931 123.133 196.234 123.063C196.537 122.993 196.811 122.824 197.019 122.582L204.36 115.534H212.409C214.428 115.495 216.364 114.681 217.852 113.246C219.339 111.811 220.274 109.854 220.481 107.744L221.746 92.5183C221.856 91.5235 221.763 90.5155 221.471 89.5619C221.179 88.6083 220.697 87.7312 220.056 86.9895C219.415 86.2478 218.63 85.6586 217.755 85.2614C216.879 84.8642 215.933 84.6683 214.979 84.6867Z" fill="#4A154B"/>
<path d="M207.654 91.9655H195.903L195.824 89.4072H189.355C189.442 89.9932 189.489 90.282 189.576 90.8679H194.244C194.244 91.3053 194.284 91.5281 194.307 91.9655C194.441 94.1276 194.512 95.2087 194.645 97.3709C194.645 97.9485 194.7 98.2456 194.732 98.8315C194.865 100.985 194.936 102.067 195.062 104.229C195.14 105.384 195.172 105.962 195.243 107.117H208.149L208.597 105.656H196.312V104.229H209.674C210.365 102.067 210.711 100.985 211.395 98.8315L211.859 97.3709C212.55 95.2087 212.896 94.1276 213.58 91.9655H207.654ZM195.942 93.4262H200.108C200.021 95.0024 199.982 95.7864 199.896 97.3709H196.06L195.942 93.4262ZM196.225 102.768L196.107 98.8315H199.817C199.731 100.408 199.684 101.192 199.597 102.768H196.225ZM204.219 102.768H200.847C200.98 101.192 201.051 100.408 201.185 98.8315H204.895C204.627 100.408 204.494 101.192 204.219 102.768ZM205.146 97.3791H201.311C201.452 95.7946 201.515 95.0107 201.648 93.4344H205.822C205.547 95.0024 205.413 95.7864 205.146 97.3791ZM208.84 102.776H205.468L206.254 98.8398H209.957C209.524 100.408 209.296 101.192 208.84 102.768V102.776ZM210.412 97.3791H206.561C206.883 95.7946 207.04 95.0107 207.347 93.4344H211.513C211.073 95.0024 210.845 95.7864 210.397 97.3791H210.412Z" fill="white"/>
<path d="M195.934 108.487C195.484 108.495 195.052 108.675 194.721 108.995C194.389 109.314 194.18 109.75 194.134 110.22C194.112 110.441 194.135 110.664 194.201 110.875C194.267 111.086 194.375 111.279 194.517 111.443C194.66 111.607 194.834 111.737 195.028 111.825C195.222 111.913 195.432 111.957 195.643 111.953C196.093 111.945 196.525 111.765 196.857 111.445C197.189 111.126 197.397 110.69 197.443 110.22C197.466 109.999 197.443 109.776 197.377 109.565C197.311 109.354 197.203 109.161 197.06 108.997C196.918 108.833 196.744 108.703 196.549 108.615C196.355 108.527 196.146 108.483 195.934 108.487Z" fill="white"/>
<path d="M207.67 108.487C207.22 108.495 206.79 108.676 206.459 108.995C206.129 109.315 205.922 109.751 205.877 110.22C205.855 110.441 205.878 110.664 205.944 110.875C206.01 111.086 206.118 111.279 206.26 111.443C206.403 111.607 206.577 111.737 206.771 111.825C206.965 111.913 207.175 111.957 207.387 111.953C207.836 111.945 208.266 111.764 208.597 111.445C208.927 111.125 209.134 110.689 209.179 110.22C209.201 109.999 209.178 109.776 209.112 109.565C209.046 109.354 208.938 109.161 208.796 108.997C208.653 108.833 208.479 108.703 208.285 108.615C208.091 108.527 207.881 108.483 207.67 108.487Z" fill="white"/>
<path d="M232.577 192.431H204.572V221.835H232.577V192.431Z" fill="#4A154B"/>
<path d="M249.767 192.431H232.569V221.835H249.767V192.431Z" fill="#4A154B"/>
<path d="M227.225 185.054H199.22L204.572 192.431H232.57L227.225 185.054Z" fill="#4A154B"/>
<path opacity="0.3" d="M249.767 192.431H232.569V221.835H249.767V192.431Z" fill="white"/>
<path opacity="0.4" d="M227.225 185.054H199.22L204.572 192.431H232.57L227.225 185.054Z" fill="white"/>
<path d="M237.639 185.054H254.837L249.775 192.431H232.569L237.639 185.054Z" fill="#4A154B"/>
<path opacity="0.6" d="M232.577 192.431H204.572V221.835H232.577V192.431Z" fill="white"/>
<path opacity="0.2" d="M237.639 185.054H254.837L249.775 192.431H232.569L237.639 185.054Z" fill="white"/>
<path d="M311.374 221.108H240.791V295.216H311.374V221.108Z" fill="#4A154B"/>
<path opacity="0.4" d="M311.374 221.108H240.791V295.216H311.374V221.108Z" fill="white"/>
<path d="M240.776 221.108H197.42V295.216H240.776V221.108Z" fill="#4A154B"/>
<path opacity="0.6" d="M240.776 221.108H197.42V295.216H240.776V221.108Z" fill="white"/>
<path opacity="0.5" d="M210.813 221.108V241.013L212.535 241.962L214.02 240.667L216.371 241.962L218.603 240.667L220.332 241.962L222.313 240.667L223.437 241.731V221.108H210.813Z" fill="white"/>
<path opacity="0.5" d="M223.437 295.216V275.311L221.715 274.354L220.23 275.657L217.88 274.354L215.647 275.657L213.918 274.354L211.937 275.657L210.813 274.593V295.216H223.437Z" fill="white"/>
<path d="M269.599 251.329C269.999 253.021 270.196 253.871 270.597 255.563C270.699 256.016 270.754 256.248 270.864 256.71C271.265 258.401 271.461 259.251 271.862 260.943H282.332C282.277 261.389 282.253 261.612 282.206 262.057H272.562C272.664 262.519 272.711 262.75 272.813 263.204H282.961L283.291 260.943C283.534 259.251 283.66 258.401 283.904 256.71C283.975 256.248 284.006 256.016 284.069 255.563C284.313 253.871 284.438 253.021 284.682 251.329C284.737 250.982 284.761 250.809 284.808 250.463H288.463C288.565 250.009 288.62 249.778 288.73 249.324H283.66C283.566 250.149 283.519 250.52 283.432 251.329H269.599ZM282.961 255.563H279.958C279.958 254.325 280.005 253.706 280.045 252.468H283.306C283.134 253.706 283.071 254.325 282.961 255.563ZM279.817 259.796C279.817 258.558 279.872 257.939 279.903 256.71H282.811L282.458 259.796H279.817ZM275.887 256.71H278.787C278.787 257.939 278.787 258.558 278.787 259.796H276.138C276.067 258.558 276.012 257.939 275.887 256.71ZM275.517 252.468H278.779C278.779 253.706 278.779 254.325 278.779 255.563H275.808C275.698 254.325 275.643 253.706 275.541 252.468H275.517ZM271.902 256.71H274.81C274.951 257.939 275.03 258.558 275.179 259.796H272.53L271.902 256.71ZM271.037 252.468H274.315C274.456 253.706 274.535 254.325 274.676 255.563H271.674L271.037 252.468Z" fill="white"/>
<path d="M282.3 267.001C283.016 267.001 283.597 266.391 283.597 265.639C283.597 264.887 283.016 264.277 282.3 264.277C281.584 264.277 281.003 264.887 281.003 265.639C281.003 266.391 281.584 267.001 282.3 267.001Z" fill="white"/>
<path d="M273.096 267.001C273.812 267.001 274.393 266.391 274.393 265.639C274.393 264.887 273.812 264.277 273.096 264.277C272.379 264.277 271.799 264.887 271.799 265.639C271.799 266.391 272.379 267.001 273.096 267.001Z" fill="white"/>
<g opacity="0.5">
<path d="M209.54 251.329C209.941 253.021 210.137 253.871 210.538 255.563C210.64 256.016 210.695 256.248 210.806 256.71C211.206 258.401 211.403 259.251 211.804 260.943H222.273C222.218 261.389 222.195 261.612 222.147 262.057H212.519C212.621 262.519 212.668 262.75 212.771 263.204H222.886L223.216 260.943C223.46 259.251 223.586 258.401 223.83 256.71C223.892 256.248 223.932 256.016 223.995 255.563C224.238 253.871 224.364 253.021 224.608 251.329L224.733 250.463H228.396C228.498 250.009 228.553 249.778 228.663 249.324H223.594C223.499 250.149 223.452 250.52 223.366 251.329H209.54ZM222.902 255.563H219.9L219.986 252.468H223.224C223.091 253.706 223.02 254.325 222.886 255.563H222.902ZM219.758 259.796C219.797 258.558 219.813 257.939 219.845 256.71H222.753L222.399 259.796H219.758ZM215.867 256.71H218.768C218.768 257.939 218.768 258.558 218.768 259.796H216.15C216.025 258.558 215.97 257.939 215.867 256.71ZM215.49 252.468H218.76C218.76 253.706 218.76 254.325 218.76 255.563H215.757L215.49 252.468ZM211.882 256.71H214.791L215.152 259.796H212.511L211.882 256.71ZM211.018 252.468H214.287C214.429 253.706 214.508 254.325 214.649 255.563H211.647L211.018 252.468Z" fill="white"/>
<path d="M222.258 267.001C222.974 267.001 223.555 266.391 223.555 265.639C223.555 264.887 222.974 264.277 222.258 264.277C221.542 264.277 220.961 264.887 220.961 265.639C220.961 266.391 221.542 267.001 222.258 267.001Z" fill="white"/>
<path d="M213.054 267.001C213.77 267.001 214.351 266.391 214.351 265.639C214.351 264.887 213.77 264.277 213.054 264.277C212.337 264.277 211.757 264.887 211.757 265.639C211.757 266.391 212.337 267.001 213.054 267.001Z" fill="white"/>
</g>
<path d="M285.601 162.137C285.601 162.137 288.054 180.614 290.254 183.799C292.455 186.985 302.343 195.799 302.343 195.799L308.592 194.841L312.781 198.967L309.747 201.171L306.407 199.603C304.523 199.822 302.624 199.869 300.732 199.743C297.541 199.537 285.075 190.665 282.78 186.036C280.484 181.406 277.891 164.266 277.891 164.266L285.601 162.137Z" fill="#CE7A63"/>
<path d="M287.676 167.476L287.048 167.592C286.615 163.251 284.886 150.063 280.147 153.447C275.596 156.707 276.877 165.958 277.537 169.415L276.751 169.556L277.443 171.833L287.92 169.729L287.676 167.476Z" fill="#4A154B"/>
<path opacity="0.2" d="M283.746 158.753L282.591 156.145L278.967 159.974L276.884 163.275C276.942 165.341 277.168 167.398 277.56 169.423L276.774 169.564L277.466 171.841L283.377 170.653C284.035 166.724 284.16 162.718 283.746 158.753Z" fill="#111827"/>
<path d="M284.107 125.595C284.107 125.595 296.605 128.434 289.963 134.672L284.461 129.63L284.107 125.595Z" fill="#263238"/>
<path d="M301.454 264.145L293.5 284.603L287.982 282.35L292.431 262.016L301.454 264.145Z" fill="#CE7A63"/>
<path opacity="0.2" d="M292.825 260.572L289.688 274.906L296.487 276.499L301.848 262.693L292.825 260.572Z" fill="#111827"/>
<path d="M294.75 284.125C295.764 286.543 296.448 288.531 300.598 291.114C301.502 291.659 299.97 294.168 297.714 293.103C293.988 291.337 294.963 291.304 291.772 289.852C289.091 288.606 287.095 287.855 284.91 286.897C284.853 286.872 284.8 286.839 284.753 286.798C284.567 286.652 284.444 286.435 284.41 286.194C284.376 285.953 284.434 285.707 284.572 285.511L287.794 280.881C287.865 280.778 287.968 280.703 288.086 280.67C288.203 280.637 288.328 280.647 288.439 280.7L293.658 283.06C294.133 283.264 294.521 283.642 294.75 284.125Z" fill="#263238"/>
<path d="M319.258 216.066C318.244 229.27 300.182 272.918 300.182 272.918L289.461 269.782C289.461 269.782 297.651 227.851 302.996 220.911C302.996 220.911 301.251 220.911 298.445 220.968C288.675 221.059 266.03 221.043 259.498 219.219C254.837 217.915 245.099 215.299 247.708 198.926L259.781 198.489L273.843 197.977C273.843 197.977 320.688 198.06 319.258 216.066Z" fill="#263238"/>
<path opacity="0.2" d="M298.445 220.969C288.675 221.059 266.03 221.043 259.498 219.219C254.837 217.915 245.099 215.299 247.708 198.926L259.781 198.489C269.284 199.669 281.703 201.641 290.168 205.462C294.287 207.319 297.148 210.669 297.989 214.614C298.278 216.719 298.431 218.842 298.445 220.969Z" fill="#111827"/>
<path d="M282.811 263.419L278.834 284.273L272.853 283.984L273.56 263.13L282.811 263.419Z" fill="#CE7A63"/>
<path opacity="0.2" d="M282.811 263.419L273.56 263.13L273.151 275.599L280.438 275.872L282.811 263.419Z" fill="#111827"/>
<path d="M279.745 284.768C280.72 287.244 281.317 289.323 285.507 292.08C286.403 292.69 284.768 295.207 282.512 294.036C278.771 292.113 279.769 292.121 276.554 290.528C273.842 289.183 271.838 288.35 269.645 287.302L269.48 287.219C269.387 287.143 269.309 287.049 269.251 286.941C269.193 286.833 269.156 286.715 269.142 286.592C269.128 286.469 269.138 286.344 269.17 286.225C269.202 286.106 269.257 285.995 269.331 285.899L272.75 281.269C272.823 281.166 272.929 281.093 273.048 281.063C273.167 281.033 273.292 281.048 273.402 281.104L278.637 283.67C279.124 283.879 279.519 284.27 279.745 284.768Z" fill="#263238"/>
<path d="M240.65 198.885C240.65 198.885 237.231 211.783 242.882 216.875C250.781 223.997 279.321 221.827 279.321 221.827C274.393 238.389 272.192 271.292 272.192 271.292H282.89C282.89 271.292 297.462 226.283 295.308 214.647C293.155 203.011 254.924 198.893 254.924 198.893L240.65 198.885Z" fill="#263238"/>
<path d="M288.51 271.086L300.646 274.296L303.122 268.841L289.791 264.872L288.51 271.086Z" fill="#4A154B"/>
<path d="M271.131 272.893L283.51 273.561L284.792 267.842L271.131 267.174V272.893Z" fill="#4A154B"/>
<path d="M276.805 181.051C279.949 171.321 283.879 163.919 284.335 155.625C273.575 139.318 252.534 148.957 252.534 148.957C239.801 174.045 240.649 198.885 240.649 198.885C269.582 198.885 271.241 198.365 271.241 198.365C271.241 198.365 271.343 194.098 276.805 181.051Z" fill="#4A154B"/>
<path opacity="0.2" d="M267.091 148.479C267.555 151.35 268.521 156.533 269.669 157.284C271.241 158.291 273.599 156.88 273.599 156.88C273.599 156.88 275.509 159.595 277.529 157.787C278.663 156.647 279.548 155.262 280.123 153.727C279.528 154.79 278.777 155.748 277.898 156.566C275.855 158.365 273.968 155.658 273.968 155.658C273.968 155.658 271.61 157.061 270.038 156.063C269.001 155.411 267.79 151.309 267.091 148.479Z" fill="#111827"/>
<path d="M269.685 144.518L272.553 145.549L270.306 147.621L269.685 144.518Z" fill="#4A154B"/>
<path opacity="0.2" d="M269.685 144.518L272.553 145.549L270.306 147.621L269.685 144.518Z" fill="#111827"/>
<path d="M278.802 147.62L279.588 150.096C279.588 150.096 275.485 154.602 274.306 154.651C273.127 154.701 269.669 146.176 269.669 146.176C274.236 144.006 273.811 141.621 273.811 141.621L278.802 147.62Z" fill="#CE7A63"/>
<path opacity="0.2" d="M277.309 152.399C278.519 151.235 279.604 150.055 279.604 150.055L278.818 147.579L274.377 142.19C273.796 144.575 273.23 149.477 277.309 152.399Z" fill="#111827"/>
<path d="M281.144 151.846C280.406 153.661 279.313 155.295 277.938 156.64C275.886 158.439 274.008 155.741 274.008 155.741C274.008 155.741 271.65 157.136 270.078 156.137C268.506 155.139 266.454 145.978 266.454 145.978L269.685 144.518L274.133 154.421L280.13 149.213L281.144 151.846Z" fill="#4A154B"/>
<path d="M273.654 133.253C273.647 131.788 274.008 130.347 274.7 129.074C275.392 127.802 276.39 126.743 277.595 126.003C278.8 125.264 280.169 124.871 281.565 124.863C282.96 124.855 284.333 125.233 285.546 125.958C291.252 129.185 291.41 138.609 289.712 144.113C289.302 145.559 288.522 146.859 287.457 147.873C286.392 148.886 285.083 149.573 283.673 149.859C282.262 150.146 280.803 150.021 279.456 149.499C278.108 148.976 276.922 148.075 276.028 146.895C273.229 143.28 273.591 139.575 273.67 133.212L273.654 133.253Z" fill="#CE7A63"/>
<path d="M284.281 137.198C284.611 137.198 284.815 137.701 284.729 138.205C284.642 138.708 284.352 139.03 284.029 139.03C283.707 139.03 283.503 138.527 283.581 138.023C283.66 137.52 283.951 137.173 284.281 137.198Z" fill="#263238"/>
<path d="M289.728 138.27C290.066 138.27 290.27 138.757 290.192 139.269C290.113 139.781 289.807 140.094 289.476 140.094C289.146 140.094 288.958 139.599 289.028 139.087C289.099 138.576 289.398 138.229 289.728 138.27Z" fill="#263238"/>
<path d="M282.818 135.993C283.1 135.764 283.43 135.61 283.78 135.543C284.13 135.475 284.49 135.497 284.83 135.605C284.9 135.629 284.976 135.623 285.042 135.589C285.108 135.556 285.159 135.496 285.184 135.423C285.206 135.348 285.2 135.266 285.168 135.195C285.136 135.123 285.08 135.067 285.011 135.036C284.573 134.898 284.109 134.873 283.66 134.965C283.211 135.057 282.79 135.263 282.433 135.564C282.392 135.592 282.359 135.633 282.34 135.681C282.321 135.729 282.315 135.782 282.325 135.833C282.334 135.884 282.357 135.932 282.392 135.969C282.427 136.006 282.471 136.032 282.52 136.042C282.568 136.069 282.623 136.079 282.677 136.07C282.731 136.061 282.78 136.034 282.818 135.993Z" fill="#263238"/>
<path d="M291.103 137.602C291.167 137.56 291.212 137.493 291.23 137.416C291.247 137.339 291.236 137.258 291.197 137.19C290.974 136.767 290.659 136.406 290.278 136.135C289.897 135.864 289.461 135.691 289.004 135.63C288.944 135.632 288.886 135.655 288.839 135.695C288.792 135.735 288.759 135.791 288.745 135.853C288.736 135.891 288.734 135.931 288.74 135.971C288.745 136.01 288.758 136.047 288.778 136.081C288.798 136.115 288.824 136.145 288.855 136.168C288.885 136.191 288.92 136.207 288.957 136.216C289.326 136.275 289.677 136.422 289.982 136.647C290.288 136.872 290.539 137.168 290.718 137.511C290.739 137.555 290.77 137.592 290.809 137.62C290.847 137.647 290.892 137.664 290.938 137.668C290.998 137.663 291.055 137.64 291.103 137.602Z" fill="#263238"/>
<path d="M286.497 143.899C286.867 144.076 287.269 144.167 287.676 144.167C288.083 144.167 288.485 144.076 288.855 143.899C288.134 142.359 287.605 140.728 287.283 139.046L286.497 143.899Z" fill="#6366F1"/>
<path d="M273.276 137.371C270.918 128.376 274.73 126.032 278.849 124.415C282.968 122.797 285.255 124.349 286.568 125.867C286.976 126.346 287.794 127.782 285.153 127.971C283.554 128.036 281.953 127.906 280.382 127.584C280.068 127.526 279.745 127.56 279.448 127.682C279.152 127.805 278.893 128.01 278.7 128.277C277.788 129.531 276.342 131.875 276.342 133.921C276.397 134.7 276.289 135.482 276.025 136.211C275.762 136.941 275.349 137.602 274.817 138.147L273.276 137.371Z" fill="#263238"/>
<path d="M270.306 182.578C270.511 182.58 270.711 182.645 270.881 182.766C271.051 182.887 271.183 183.058 271.26 183.258C271.337 183.458 271.356 183.677 271.314 183.888C271.273 184.099 271.173 184.292 271.026 184.443C270.88 184.594 270.695 184.697 270.493 184.737C270.291 184.778 270.083 184.754 269.894 184.67C269.705 184.587 269.544 184.446 269.431 184.266C269.319 184.086 269.259 183.874 269.261 183.659C269.261 183.515 269.288 183.372 269.341 183.239C269.395 183.107 269.473 182.986 269.571 182.886C269.669 182.785 269.785 182.706 269.913 182.653C270.04 182.6 270.177 182.575 270.314 182.578H270.306Z" fill="#4A154B"/>
<path d="M268.026 194.099C268.162 194.099 268.297 194.127 268.423 194.182C268.549 194.236 268.663 194.317 268.759 194.418C268.856 194.519 268.932 194.639 268.984 194.771C269.036 194.903 269.063 195.045 269.063 195.188C269.063 195.331 269.036 195.473 268.984 195.605C268.932 195.737 268.856 195.857 268.759 195.958C268.663 196.059 268.549 196.14 268.423 196.194C268.297 196.249 268.162 196.277 268.026 196.277C267.75 196.275 267.486 196.159 267.292 195.953C267.097 195.747 266.988 195.469 266.988 195.18C266.988 195.037 267.015 194.896 267.067 194.764C267.12 194.632 267.196 194.513 267.293 194.412C267.389 194.312 267.504 194.232 267.629 194.179C267.755 194.125 267.89 194.098 268.026 194.099Z" fill="#4A154B"/>
<path d="M273.34 135.341C275.006 135.654 275.808 138.122 275.824 139.739C275.839 141.357 274.645 142.784 273.175 141.753C272.059 140.944 271.274 139.724 270.974 138.336C270.652 136.595 271.681 134.994 273.34 135.341Z" fill="#CE7A63"/>
<path d="M280.948 143.808C282.754 144.343 284.507 145.059 286.183 145.945C285.666 146.526 284.974 146.902 284.224 147.011C283.474 147.119 282.711 146.952 282.064 146.539C281.813 146.446 281.584 146.3 281.39 146.109C281.195 145.918 281.041 145.687 280.936 145.43C280.831 145.173 280.778 144.897 280.78 144.618C280.782 144.338 280.839 144.063 280.948 143.808Z" fill="#263238"/>
<path d="M283.361 146.069C282.639 145.665 281.813 145.511 281.003 145.632C281.251 146.05 281.616 146.379 282.048 146.573C282.77 146.979 283.596 147.132 284.406 147.01C284.164 146.586 283.797 146.256 283.361 146.069Z" fill="#6366F1"/>
<path d="M281.137 143.857C281.11 144.02 281.126 144.187 281.184 144.34C281.243 144.493 281.341 144.626 281.467 144.724C282.579 145.264 283.734 145.703 284.918 146.036C285.1 146.108 285.296 146.13 285.488 146.102C285.68 146.073 285.863 145.993 286.018 145.871C284.443 145.068 282.811 144.395 281.137 143.857Z" fill="white"/>
<path d="M287.155 204.398L301.382 204.479L301.394 202.077L287.168 201.996L287.155 204.398Z" fill="#263238"/>
<path d="M288.326 204.407L270.248 204.305C270.108 204.304 269.969 204.274 269.84 204.217C269.71 204.16 269.593 204.076 269.494 203.972C269.396 203.867 269.317 203.743 269.264 203.606C269.211 203.47 269.185 203.324 269.185 203.176L269.192 201.905L288.339 202.014L288.326 204.416L288.326 204.407Z" fill="#263238"/>
<path opacity="0.3" d="M288.326 204.407L270.248 204.305C270.108 204.304 269.969 204.274 269.84 204.217C269.71 204.16 269.593 204.076 269.494 203.972C269.396 203.867 269.317 203.743 269.264 203.606C269.211 203.47 269.185 203.324 269.185 203.176L269.192 201.905L288.339 202.014L288.326 204.416L288.326 204.407Z" fill="white"/>
<path d="M283.175 203.605L285.462 203.618L285.466 202.768L283.179 202.755L283.175 203.605Z" fill="#263238"/>
<path d="M279.605 203.6L281.893 203.613L281.897 202.763L279.61 202.75L279.605 203.6Z" fill="#263238"/>
<path d="M291.04 202.037L289.523 202.029L295.576 180.391L297.093 180.399L291.04 202.037Z" fill="#263238"/>
<path opacity="0.3" d="M291.04 202.037L289.523 202.029L295.576 180.391L297.093 180.399L291.04 202.037Z" fill="white"/>
<path d="M290.482 202.037L317.183 202.186L323.235 180.54L296.535 180.391L290.482 202.037Z" fill="#263238"/>
<path opacity="0.6" d="M290.482 202.037L317.183 202.186L323.235 180.54L296.535 180.391L290.482 202.037Z" fill="white"/>
<path d="M289.178 202.029L316.971 202.186C317.435 202.186 317.812 202.731 317.812 203.391C317.812 204.051 317.427 204.588 316.955 204.588L289.162 204.431C288.699 204.431 288.321 203.886 288.321 203.226C288.321 202.566 288.706 202.029 289.178 202.029Z" fill="#263238"/>
<path opacity="0.5" d="M289.178 202.029L316.971 202.186C317.435 202.186 317.812 202.731 317.812 203.391C317.812 204.051 317.427 204.588 316.955 204.588L289.162 204.431C288.699 204.431 288.321 203.886 288.321 203.226C288.321 202.566 288.706 202.029 289.178 202.029Z" fill="white"/>
<path d="M288.321 203.226C288.321 203.886 288.699 204.423 289.162 204.431C289.626 204.439 290.011 203.894 290.019 203.234C290.027 202.574 289.642 202.029 289.178 202.029C288.714 202.029 288.329 202.566 288.321 203.226Z" fill="#263238"/>
<path opacity="0.3" d="M288.321 203.226C288.321 203.886 288.699 204.423 289.162 204.431C289.626 204.439 290.011 203.894 290.019 203.234C290.027 202.574 289.642 202.029 289.178 202.029C288.714 202.029 288.329 202.566 288.321 203.226Z" fill="white"/>
<path opacity="0.2" d="M262.077 181.992C260.795 180.143 259.436 173.294 258.485 167.633L259.719 167.385L259.428 165.041L258.783 165.165C258.335 160.742 256.59 147.439 251.866 150.311C250.491 153.117 249.28 155.939 248.227 158.728C248.134 161.517 248.361 164.307 248.903 167.039L248.117 167.187L248.84 169.555L250.514 169.225C251.513 174.689 252.967 181.604 254.319 184.344C256.095 187.942 263.751 193.95 268.875 196.871C274.637 195.798 275.949 195.039 275.949 195.039C275.785 194.812 275.65 194.562 275.549 194.296L274.621 194.437C274.621 194.437 264.364 185.301 262.077 181.992Z" fill="#111827"/>
<path d="M260.669 159.586C260.669 159.586 262.351 178.872 264.489 182.289C266.627 185.705 276.476 195.361 276.476 195.361L282.999 194.684L287.149 199.215L283.903 201.36L280.508 199.553C278.543 199.689 276.57 199.642 274.613 199.413C271.319 199.033 258.798 189.229 256.629 184.278C254.46 179.326 252.565 161.443 252.565 161.443L260.669 159.586Z" fill="#CE7A63"/>
<path d="M262.131 163.746L261.478 163.87C261.03 159.364 259.231 145.665 254.318 149.18C249.602 152.564 250.915 162.17 251.606 165.76L250.82 165.908L251.543 168.277L262.422 166.09L262.131 163.746Z" fill="#4A154B"/>
<path d="M103.138 229.881L101.26 229.774L101.7 220.828C101.88 217.863 103.12 215.078 105.172 213.033C107.225 210.987 109.937 209.83 112.767 209.794C114.139 209.78 115.499 210.063 116.762 210.626C118.026 211.188 119.165 212.018 120.109 213.063C121.053 214.109 121.782 215.348 122.25 216.702C122.717 218.056 122.914 219.497 122.828 220.935L122.38 229.881L120.501 229.774L120.949 220.828C121.024 219.657 120.867 218.482 120.489 217.377C120.11 216.273 119.518 215.262 118.749 214.41C117.981 213.557 117.053 212.881 116.023 212.423C114.993 211.965 113.885 211.736 112.767 211.75C110.417 211.781 108.166 212.743 106.463 214.443C104.76 216.143 103.733 218.457 103.586 220.919L103.138 229.881Z" fill="#263238"/>
<path d="M143.437 225.903H87.8903L86.0039 295.1L94.2412 293.119L102.478 295.1H145.323L143.437 225.903Z" fill="#4A154B"/>
<path opacity="0.6" d="M143.437 225.903H87.8903L86.0039 295.1L94.2412 293.119L102.478 295.1H145.323L143.437 225.903Z" fill="white"/>
<path d="M102.478 295.1L94.2412 293.119L86.0039 295.1L87.8903 225.903H100.6L102.478 295.1Z" fill="#4A154B"/>
<path opacity="0.3" d="M102.478 295.1L94.2412 293.119L86.0039 295.1L87.8903 225.903H100.6L102.478 295.1Z" fill="white"/>
<path d="M131.678 229.881L131.262 220.935C131.115 218.472 130.086 216.157 128.382 214.457C126.678 212.756 124.424 211.795 122.073 211.767C120.956 211.754 119.848 211.984 118.82 212.442C117.791 212.9 116.864 213.577 116.096 214.429C115.328 215.282 114.737 216.292 114.359 217.396C113.981 218.5 113.824 219.674 113.899 220.845L114.347 229.79L112.468 229.898L112.02 220.952C111.933 219.514 112.128 218.074 112.595 216.719C113.062 215.365 113.79 214.126 114.734 213.08C115.677 212.035 116.816 211.205 118.079 210.642C119.342 210.08 120.702 209.797 122.073 209.811C124.904 209.845 127.617 211.001 129.67 213.047C131.722 215.093 132.962 217.879 133.14 220.845L133.588 229.79L131.678 229.881Z" fill="#263238"/>
<g opacity="0.2">
<path d="M131.678 229.881L131.262 220.935C131.115 218.472 130.086 216.157 128.382 214.457C126.678 212.756 124.424 211.795 122.073 211.767C120.956 211.754 119.848 211.984 118.82 212.442C117.791 212.9 116.864 213.577 116.096 214.429C115.328 215.282 114.737 216.292 114.359 217.396C113.981 218.5 113.824 219.674 113.899 220.845L114.347 229.79L112.468 229.898L112.02 220.952C111.933 219.514 112.128 218.074 112.595 216.719C113.062 215.365 113.79 214.126 114.734 213.08C115.677 212.035 116.816 211.205 118.079 210.642C119.342 210.08 120.702 209.797 122.073 209.811C124.904 209.845 127.617 211.001 129.67 213.047C131.722 215.093 132.962 217.879 133.14 220.845L133.588 229.79L131.678 229.881Z" fill="white"/>
</g>
<path d="M135.931 251.172H110.103C109.521 251.172 109.05 251.667 109.05 252.278V256.66C109.05 257.271 109.521 257.766 110.103 257.766H135.931C136.513 257.766 136.984 257.271 136.984 256.66V252.278C136.984 251.667 136.513 251.172 135.931 251.172Z" fill="white"/>
<path d="M77.6092 251.378L76.3438 251.304L76.6424 245.313C76.7556 243.319 77.5839 241.445 78.9607 240.067C80.3374 238.688 82.1603 237.909 84.0623 237.886C84.9787 237.876 85.8871 238.064 86.7313 238.439C87.5755 238.813 88.3374 239.366 88.9698 240.062C89.6021 240.759 90.0914 241.584 90.4073 242.487C90.7232 243.39 90.859 244.352 90.8062 245.313L90.5075 251.312L89.2499 251.238L89.5486 245.247C89.5963 244.461 89.4889 243.674 89.233 242.934C88.9771 242.194 88.5783 241.518 88.0617 240.948C87.545 240.377 86.9217 239.925 86.2307 239.62C85.5398 239.314 84.7962 239.162 84.0466 239.173C82.4722 239.193 80.9632 239.836 79.8218 240.975C78.6805 242.114 77.9912 243.663 77.8922 245.313L77.6092 251.378Z" fill="#263238"/>
<path d="M104.624 248.713H67.3836L66.126 295.1L71.6437 293.771L77.1693 295.1H105.89L104.624 248.713Z" fill="#4A154B"/>
<path d="M77.1693 295.1L71.6437 293.771L66.126 295.1L67.3836 248.713H75.9038L77.1693 295.1Z" fill="#4A154B"/>
<path opacity="0.2" d="M77.1693 295.1L71.6437 293.771L66.126 295.1L67.3836 248.713H75.9038L77.1693 295.1Z" fill="#111827"/>
<path d="M96.741 251.378L96.4423 245.379C96.3325 243.732 95.6388 242.187 94.4981 241.051C93.3574 239.914 91.8524 239.268 90.2801 239.239C89.5298 239.226 88.7851 239.376 88.093 239.681C87.401 239.985 86.7766 240.437 86.2595 241.008C85.7424 241.579 85.3437 242.256 85.0887 242.997C84.8337 243.738 84.7279 244.527 84.7781 245.313L85.0767 251.304L83.8191 251.378L83.5126 245.379C83.461 244.418 83.5975 243.457 83.9138 242.554C84.2302 241.652 84.7195 240.827 85.3516 240.131C85.9837 239.435 86.7452 238.882 87.5888 238.507C88.4325 238.132 89.3404 237.943 90.2565 237.951C92.1585 237.975 93.9814 238.754 95.3581 240.132C96.7348 241.511 97.5632 243.385 97.6763 245.379L97.975 251.37L96.741 251.378Z" fill="#263238"/>
<g opacity="0.2">
<path d="M96.741 251.378L96.4423 245.379C96.3325 243.732 95.6388 242.187 94.4981 241.051C93.3574 239.914 91.8524 239.268 90.2801 239.239C89.5298 239.226 88.7851 239.376 88.093 239.681C87.401 239.985 86.7766 240.437 86.2595 241.008C85.7424 241.579 85.3437 242.256 85.0887 242.997C84.8337 243.738 84.7279 244.527 84.7781 245.313L85.0767 251.304L83.8191 251.378L83.5126 245.379C83.461 244.418 83.5975 243.457 83.9138 242.554C84.2302 241.652 84.7195 240.827 85.3516 240.131C85.9837 239.435 86.7452 238.882 87.5888 238.507C88.4325 238.132 89.3404 237.943 90.2565 237.951C92.1585 237.975 93.9814 238.754 95.3581 240.132C96.7348 241.511 97.5632 243.385 97.6763 245.379L97.975 251.37L96.741 251.378Z" fill="white"/>
</g>
<path d="M99.2406 265.655H82.6245C82.0428 265.655 81.5713 266.15 81.5713 266.761V268.965C81.5713 269.575 82.0428 270.07 82.6245 270.07H99.2406C99.8223 270.07 100.294 269.575 100.294 268.965V266.761C100.294 266.15 99.8223 265.655 99.2406 265.655Z" fill="white"/>
<path d="M134.94 290.569L128.959 289.918L129.258 275.245L135.239 275.897L134.94 290.569Z" fill="#B55B52"/>
<path d="M185.543 269.525L180.19 272.389L172.142 260.274L177.502 257.411L185.543 269.525Z" fill="#B55B52"/>
<path d="M179.074 271.605L184.576 267.479C184.669 267.407 184.785 267.373 184.9 267.384C185.016 267.394 185.124 267.449 185.204 267.537L188.93 271.663C189.021 271.769 189.089 271.894 189.13 272.03C189.172 272.166 189.186 272.309 189.171 272.451C189.156 272.592 189.113 272.729 189.044 272.852C188.976 272.975 188.883 273.082 188.773 273.165C186.831 274.568 185.825 275.137 183.405 276.953C181.919 278.067 179.852 279.858 177.8 281.392C175.749 282.927 174.185 280.881 174.908 280.047C178.154 276.309 177.95 274.658 178.468 272.554C178.556 272.172 178.771 271.836 179.074 271.605Z" fill="#263238"/>
<path d="M128.448 289.125L135.168 289.859C135.283 289.869 135.391 289.924 135.471 290.012C135.551 290.1 135.597 290.216 135.6 290.338L135.812 296.007C135.813 296.15 135.785 296.292 135.73 296.422C135.676 296.553 135.595 296.67 135.494 296.766C135.393 296.862 135.274 296.934 135.145 296.978C135.016 297.022 134.879 297.038 134.744 297.022C132.386 296.717 131.293 296.453 128.338 296.131C126.514 295.925 121.264 295.553 118.764 295.306C116.265 295.058 116.406 292.409 117.452 292.285C122.238 291.741 125.697 290.635 127.41 289.422C127.712 289.198 128.079 289.093 128.448 289.125Z" fill="#263238"/>
<g opacity="0.2">
<path d="M129.258 275.245L129.101 282.812L135.09 283.464L135.239 275.905L129.258 275.245Z" fill="#111827"/>
<path d="M177.502 257.419L172.142 260.283L176.292 266.521L181.652 263.658L177.502 257.419Z" fill="#111827"/>
</g>
<path d="M132.118 148.486C132.118 148.486 125.917 196.953 125.76 216.214C125.571 236.251 127.992 281.227 127.992 281.227L136.08 282.11C136.08 282.11 139.365 237.877 140.67 218.244C142.1 196.829 150.023 149.089 150.023 149.089L132.118 148.486Z" fill="#263238"/>
<path d="M136.725 282.482L127.23 281.442L126.853 278.19L137.519 278.966L136.725 282.482Z" fill="#4A154B"/>
<path opacity="0.6" d="M142.266 160.923C135.883 173.393 139.986 196.656 141.849 205.321C143.319 192.448 145.63 176.727 147.406 165.19C146.714 158.604 145.229 155.188 142.266 160.923Z" fill="#111827"/>
<path d="M138.563 148.701C138.563 148.701 142.58 199.429 146.266 215.794C150.644 235.228 174.366 265.911 174.366 265.911L181.676 262.008C181.676 262.008 165.602 227.908 162.12 217.626C154.676 195.699 162.576 163.646 156.531 149.295L138.563 148.701Z" fill="#263238"/>
<path d="M182.713 261.958L173.643 266.802L171.229 264.326L181.652 258.121L182.713 261.958Z" fill="#4A154B"/>
<path d="M176.959 274.196H176.889C176.751 274.178 176.62 274.122 176.51 274.034C176.399 273.945 176.313 273.828 176.26 273.693C176.216 273.615 176.193 273.527 176.193 273.437C176.193 273.347 176.216 273.259 176.26 273.181C176.645 272.48 178.814 272.356 179.058 272.356C179.086 272.355 179.114 272.364 179.138 272.38C179.162 272.396 179.181 272.419 179.192 272.447C179.209 272.469 179.218 272.497 179.218 272.525C179.218 272.554 179.209 272.581 179.192 272.604C178.665 273.222 177.714 274.221 176.959 274.196ZM178.728 272.678C177.863 272.744 176.708 272.958 176.504 273.322C176.484 273.357 176.474 273.397 176.474 273.437C176.474 273.478 176.484 273.517 176.504 273.553C176.539 273.642 176.596 273.721 176.669 273.78C176.742 273.84 176.829 273.878 176.92 273.891C177.329 273.982 177.997 273.495 178.728 272.678Z" fill="#4A154B"/>
<path d="M178.862 272.661C178.115 272.661 176.756 272.224 176.504 271.621C176.458 271.513 176.449 271.391 176.48 271.277C176.51 271.162 176.577 271.062 176.669 270.994C176.748 270.915 176.842 270.855 176.945 270.819C177.049 270.784 177.159 270.773 177.267 270.788C178.139 270.887 179.145 272.356 179.192 272.438C179.204 272.461 179.21 272.487 179.21 272.513C179.21 272.539 179.204 272.564 179.192 272.587C179.181 272.61 179.165 272.63 179.144 272.645C179.123 272.659 179.099 272.668 179.074 272.669C179.004 272.675 178.932 272.672 178.862 272.661ZM177.188 271.085C177.127 271.08 177.065 271.088 177.006 271.109C176.948 271.13 176.895 271.164 176.85 271.209C176.716 271.341 176.732 271.432 176.756 271.498C176.929 271.902 178.053 272.323 178.784 272.364C178.422 271.894 177.746 271.143 177.212 271.085H177.188Z" fill="#4A154B"/>
<path d="M126.098 289.975C125.581 289.969 125.082 289.777 124.683 289.431C124.596 289.331 124.533 289.211 124.5 289.08C124.467 288.949 124.465 288.811 124.495 288.68C124.508 288.598 124.541 288.521 124.591 288.456C124.64 288.391 124.705 288.34 124.778 288.308C125.564 287.97 127.812 289.505 128.063 289.686C128.089 289.702 128.108 289.725 128.12 289.754C128.131 289.782 128.133 289.814 128.126 289.843C128.119 289.874 128.104 289.902 128.081 289.923C128.059 289.943 128.03 289.956 128 289.959C127.368 290.027 126.731 290.032 126.098 289.975ZM125.155 288.556C125.067 288.538 124.976 288.538 124.888 288.556C124.858 288.57 124.832 288.592 124.813 288.619C124.794 288.647 124.782 288.679 124.778 288.713C124.756 288.798 124.755 288.887 124.776 288.972C124.796 289.058 124.838 289.136 124.896 289.2C125.226 289.587 126.2 289.753 127.552 289.67C126.817 289.162 126.007 288.785 125.155 288.556Z" fill="#4A154B"/>
<path d="M127.969 289.958C127.969 289.958 127.929 289.958 127.914 289.958C127.238 289.546 125.957 288.036 126.137 287.334C126.185 287.169 126.318 286.971 126.711 286.971C126.858 286.968 127.004 286.997 127.139 287.056C127.275 287.116 127.397 287.205 127.497 287.318C128.181 288.06 128.157 289.793 128.15 289.835C128.15 289.86 128.144 289.886 128.132 289.908C128.119 289.93 128.101 289.947 128.079 289.958C128.043 289.972 128.004 289.972 127.969 289.958ZM126.798 287.252H126.711C126.452 287.252 126.428 287.351 126.413 287.392C126.31 287.813 127.159 288.976 127.843 289.521C127.852 288.801 127.652 288.096 127.269 287.499C127.144 287.362 126.977 287.275 126.798 287.252Z" fill="#4A154B"/>
<path d="M129.54 122.722C127.314 125.844 124.82 128.745 122.089 131.387C120.644 132.811 119.064 134.075 117.373 135.159C116.377 135.8 115.304 136.3 114.182 136.644C113.472 136.86 112.736 136.965 111.997 136.958C111.555 136.953 111.116 136.9 110.684 136.801C110.464 136.743 110.228 136.669 110.008 136.586C109.75 136.492 109.5 136.373 109.262 136.232C108.706 135.917 108.221 135.481 107.839 134.952C107.546 134.562 107.306 134.132 107.124 133.673C106.855 133.009 106.672 132.309 106.581 131.594C106.443 130.486 106.404 129.367 106.463 128.251C106.594 126.279 106.857 124.318 107.249 122.384C107.969 118.654 108.952 114.985 110.189 111.408L113.443 112.291C112.979 115.881 112.547 119.545 112.288 123.094C112.145 124.814 112.103 126.542 112.162 128.268C112.177 129.004 112.264 129.737 112.421 130.455C112.46 130.654 112.526 130.846 112.618 131.024C112.665 131.107 112.618 130.851 112.162 130.546C111.997 130.463 112.052 130.471 112.013 130.463C112.149 130.43 112.283 130.386 112.414 130.331C112.968 130.094 113.495 129.792 113.986 129.432C115.245 128.487 116.43 127.439 117.53 126.296C118.701 125.099 119.825 123.82 120.934 122.475C122.042 121.13 123.15 119.76 124.164 118.448L129.54 122.722Z" fill="#B55B52"/>
<path d="M128.228 113.636C125.768 112.927 118.466 122.714 118.466 122.714L125.446 130.892C125.446 130.892 133.628 123.135 133.306 119.661C132.999 116.03 131.828 114.709 128.228 113.636Z" fill="#4A154B"/>
<path d="M113.529 111.408L113.254 106.267L108.538 110.344C108.538 110.344 109.253 114.33 111.635 115.122L113.105 112.952C113.406 112.501 113.555 111.958 113.529 111.408Z" fill="#B55B52"/>
<path d="M110.181 102.025L106.408 105.672L108.53 110.327L113.254 106.25L110.181 102.025Z" fill="#B55B52"/>
<path d="M108.263 111.969L107.171 111.557C106.876 111.44 106.629 111.219 106.474 110.93C106.319 110.642 106.265 110.306 106.322 109.98L107.98 100.721L110.959 101.86L110.04 110.806C110.02 111.017 109.954 111.221 109.848 111.401C109.741 111.582 109.596 111.734 109.425 111.847C109.253 111.959 109.059 112.029 108.858 112.05C108.656 112.071 108.453 112.044 108.263 111.969Z" fill="#263238"/>
<path d="M116.115 100.209C116.304 99.673 116.484 99.1448 116.649 98.6167C115.978 97.481 115.08 96.5123 114.016 95.7778C113.623 96.7929 113.23 97.8575 112.845 98.955C112.46 100.053 112.114 101.134 111.8 102.182C113.065 102.336 114.346 102.2 115.557 101.786C115.746 101.266 115.934 100.746 116.115 100.209Z" fill="#263238"/>
<path d="M114.142 99.4587C114.607 98.1732 114.941 96.84 115.141 95.481L105.371 91.7427L102.714 99.4092L112.492 103.156C113.162 101.987 113.715 100.748 114.142 99.4587Z" fill="#4A154B"/>
<path opacity="0.6" d="M114.142 99.4587C114.607 98.1732 114.941 96.84 115.141 95.481L105.371 91.7427L102.714 99.4092L112.492 103.156C113.162 101.987 113.715 100.748 114.142 99.4587Z" fill="white"/>
<path d="M107.91 91.9986C107.469 91.8253 96.9055 80.4452 95.7265 79.9583C94.5475 79.4714 91.6944 83.9937 89.5879 90.0675C87.4814 96.1413 86.8212 101.456 88.1023 101.951C89.3835 102.446 104.357 100.787 104.805 100.953C105.253 101.118 106.448 99.302 107.304 96.8263C108.161 94.3506 108.468 92.1967 107.91 91.9986Z" fill="#4A154B"/>
<path opacity="0.4" d="M107.91 91.9986C107.469 91.8253 96.9055 80.4452 95.7265 79.9583C94.5475 79.4714 91.6944 83.9937 89.5879 90.0675C87.4814 96.1413 86.8212 101.456 88.1023 101.951C89.3835 102.446 104.357 100.787 104.805 100.953C105.253 101.118 106.448 99.302 107.304 96.8263C108.161 94.3506 108.468 92.1967 107.91 91.9986Z" fill="white"/>
<path d="M94.241 91.8416C92.1345 97.9154 89.3835 102.438 88.1023 101.951C86.8212 101.464 87.4814 96.1741 89.5879 90.0673C91.6944 83.9605 94.4454 79.4711 95.7265 79.958C97.0077 80.4449 96.3475 85.776 94.241 91.8416Z" fill="#4A154B"/>
<path d="M91.1753 90.653C91.0338 91.0574 90.9002 91.4783 90.7744 91.8496C91.4998 92.8046 92.3872 93.6103 93.3918 94.2263C93.6905 93.4671 93.9892 92.6666 94.28 91.8414C94.5708 91.0161 94.8223 90.1909 95.066 89.4151C93.9196 89.2104 92.7471 89.23 91.6076 89.4729C91.4111 89.8608 91.2696 90.2569 91.1753 90.653Z" fill="#263238"/>
<path opacity="0.7" d="M91.1753 90.653C91.0338 91.0574 90.9002 91.4783 90.7744 91.8496C91.4998 92.8046 92.3872 93.6103 93.3918 94.2263C93.6905 93.4671 93.9892 92.6666 94.28 91.8414C94.5708 91.0161 94.8223 90.1909 95.066 89.4151C93.9196 89.2104 92.7471 89.23 91.6076 89.4729C91.4111 89.8608 91.2696 90.2569 91.1753 90.653Z" fill="white"/>
<path opacity="0.2" d="M126.169 119.388C126.53 124.876 125.312 128.144 124.447 129.721L125.445 130.884C125.445 130.884 130.059 126.51 132.229 122.863C129.792 119.067 125.76 113.62 126.169 119.388Z" fill="#111827"/>
<path d="M153.647 88.1775C156.925 88.1775 159.581 85.388 159.581 81.9469C159.581 78.5059 156.925 75.7163 153.647 75.7163C150.37 75.7163 147.713 78.5059 147.713 81.9469C147.713 85.388 150.37 88.1775 153.647 88.1775Z" fill="#263238"/>
<path d="M153.01 84.7857C153.012 85.5613 152.794 86.32 152.385 86.9657C151.975 87.6114 151.393 88.1151 150.711 88.4131C150.029 88.7111 149.278 88.7899 148.553 88.6395C147.828 88.4892 147.162 88.1165 146.639 87.5687C146.116 87.0208 145.76 86.3223 145.615 85.5617C145.471 84.8011 145.544 84.0125 145.826 83.2958C146.109 82.579 146.587 81.9663 147.201 81.5352C147.816 81.1041 148.538 80.874 149.276 80.874C150.265 80.874 151.214 81.2859 151.914 82.0192C152.614 82.7526 153.008 83.7475 153.01 84.7857Z" fill="#4A154B"/>
<path d="M137.423 79.9249C137.423 79.9249 129.563 79.2482 129.563 93.4424C129.563 103.164 134.059 107.661 139.569 104.393C139.569 104.393 151.721 103.345 153.12 91.6681C154.519 79.9909 145.92 75.6419 137.423 79.9249Z" fill="#263238"/>
<path d="M126.624 114.016C126.624 114.016 123.834 115.287 132.126 151.804L156.492 149.947C155.361 139.566 154.92 133.153 158.167 111.425C154.704 110.946 151.213 110.731 147.721 110.781C144.018 110.781 140.319 111.057 136.654 111.606C131.93 112.448 126.624 114.016 126.624 114.016Z" fill="#4A154B"/>
<path d="M145.708 97.7832C145.268 101.579 145.048 108.511 147.712 110.781C147.712 110.781 147.005 114.643 140.387 115.155C133.116 115.708 136.645 111.623 136.645 111.623C140.575 110.327 140.23 107.241 139.341 104.393L145.708 97.7832Z" fill="#B55B52"/>
<path opacity="0.2" d="M143.115 100.482L139.342 104.394C139.559 105.054 139.722 105.734 139.829 106.424C141.33 106.077 143.288 104.171 143.335 102.496C143.379 101.816 143.304 101.133 143.115 100.482Z" fill="#111827"/>
<path d="M149.78 91.4783C148.42 97.5769 147.964 100.193 144.482 102.825C139.247 106.787 132.409 103.692 132.008 97.288C131.647 91.5113 133.934 82.5161 140.088 81.0885C141.442 80.769 142.851 80.818 144.182 81.231C145.513 81.6439 146.721 82.407 147.692 83.4479C148.663 84.4887 149.364 85.7728 149.729 87.1783C150.095 88.5837 150.112 90.0639 149.78 91.4783Z" fill="#B55B52"/>
<path d="M139.759 91.4374C139.68 91.9408 139.358 92.2627 139.051 92.2627C138.745 92.2627 138.548 91.751 138.627 91.2476C138.705 90.7442 139.035 90.4224 139.342 90.4224C139.649 90.4224 139.845 90.934 139.759 91.4374Z" fill="#263238"/>
<path d="M134.359 90.4716C134.272 90.9668 133.958 91.2969 133.644 91.2969C133.329 91.2969 133.141 90.7935 133.227 90.2901C133.314 89.7867 133.628 89.4648 133.942 89.4648C134.257 89.4648 134.406 89.9517 134.359 90.4716Z" fill="#263238"/>
<path d="M134.076 89.5143L132.983 88.9531C132.983 88.9531 133.416 90.0012 134.076 89.5143Z" fill="#263238"/>
<path d="M136.261 91.668C135.649 92.7387 134.901 93.7161 134.036 94.5728C134.251 94.7978 134.51 94.9711 134.795 95.0808C135.08 95.1905 135.384 95.234 135.687 95.2083L136.261 91.668Z" fill="#6366F1"/>
<path d="M150.456 97.4202C149.869 98.4653 148.915 99.2269 147.799 99.5411C146.321 99.9372 145.614 98.5343 146.054 97.0653C146.447 95.7614 147.697 93.9872 149.198 94.2265C149.519 94.2899 149.82 94.4365 150.074 94.6529C150.328 94.8693 150.526 95.1487 150.651 95.4658C150.776 95.7829 150.823 96.1276 150.789 96.4689C150.755 96.8102 150.641 97.1371 150.456 97.4202Z" fill="#B55B52"/>
<path d="M142.116 90.6697C142.056 90.6686 141.997 90.6472 141.949 90.6086C141.901 90.57 141.866 90.5162 141.849 90.4551C141.464 89.1347 139.853 88.5735 139.837 88.5653C139.801 88.5528 139.769 88.5331 139.74 88.5073C139.712 88.4815 139.689 88.45 139.672 88.4148C139.655 88.3795 139.645 88.3412 139.642 88.3018C139.64 88.2625 139.644 88.2231 139.656 88.1857C139.668 88.1483 139.687 88.1137 139.712 88.0839C139.736 88.0542 139.766 88.0298 139.8 88.0122C139.833 87.9945 139.87 87.984 139.907 87.9812C139.945 87.9784 139.982 87.9834 140.018 87.9959C140.542 88.1812 141.023 88.4807 141.429 88.8746C141.836 89.2685 142.158 89.748 142.376 90.2818C142.387 90.3192 142.391 90.3585 142.387 90.3974C142.383 90.4363 142.372 90.4741 142.355 90.5086C142.337 90.5431 142.314 90.5736 142.285 90.5984C142.256 90.6232 142.223 90.6418 142.187 90.6532C142.165 90.6632 142.141 90.6688 142.116 90.6697Z" fill="#263238"/>
<path d="M133.156 87.5587C133.095 87.5535 133.038 87.5285 132.991 87.4872C132.945 87.4459 132.912 87.3903 132.897 87.3284C132.883 87.2665 132.887 87.2012 132.909 87.1419C132.932 87.0825 132.971 87.032 133.022 86.9975C133.409 86.7511 133.847 86.606 134.298 86.5744C134.749 86.5428 135.201 86.6257 135.616 86.8159C135.65 86.8338 135.679 86.8585 135.704 86.8885C135.728 86.9185 135.747 86.9532 135.759 86.9908C135.77 87.0283 135.775 87.0679 135.772 87.1073C135.769 87.1467 135.759 87.1851 135.742 87.2203C135.725 87.2555 135.701 87.2869 135.673 87.3126C135.644 87.3383 135.611 87.3578 135.575 87.3701C135.539 87.3823 135.502 87.3871 135.464 87.384C135.427 87.381 135.39 87.3702 135.357 87.3524C135.027 87.2044 134.669 87.1421 134.312 87.1709C133.954 87.1996 133.609 87.3185 133.305 87.5174C133.259 87.5437 133.208 87.5578 133.156 87.5587Z" fill="#263238"/>
<path d="M139.475 90.4802L138.383 89.9272C138.383 89.9272 138.823 90.9753 139.475 90.4802Z" fill="#263238"/>
<path d="M136.158 96.7679C138.157 96.3316 140.192 96.0994 142.234 96.0747C141.77 97.5189 140.843 98.7238 138.54 98.8145C138.254 98.856 137.962 98.835 137.684 98.7528C137.406 98.6706 137.147 98.529 136.924 98.3369C136.7 98.1448 136.517 97.9063 136.385 97.6363C136.253 97.3663 136.176 97.0707 136.158 96.7679Z" fill="#263238"/>
<path d="M139.554 97.6515C138.669 97.6442 137.804 97.9333 137.086 98.4767C137.524 98.7513 138.032 98.8754 138.54 98.8316C139.425 98.8388 140.29 98.5498 141.008 98.0063C140.573 97.7258 140.062 97.6013 139.554 97.6515Z" fill="#6366F1"/>
<path d="M136.362 96.7189C136.416 96.8905 136.513 97.0434 136.643 97.1612C136.773 97.279 136.932 97.3572 137.101 97.3874C138.424 97.3136 139.738 97.1259 141.031 96.8262C141.241 96.7992 141.441 96.717 141.613 96.5872C141.785 96.4573 141.923 96.2841 142.014 96.0835C140.117 96.1408 138.227 96.3532 136.362 96.7189Z" fill="white"/>
<path d="M133.022 86.9973C134.812 86.202 136.368 84.9236 137.534 83.292C137.534 83.292 137.534 87.6823 139.24 87.3439C140.945 87.0056 138.383 83.2837 138.383 83.2837C138.383 83.2837 142.313 85.1158 143.657 88.6973C145.001 92.2789 146.534 96.1906 149.56 95.2168C152.586 94.243 151.918 84.0925 147.461 81.559L141.173 80.3706L139.318 80.6594C138.355 80.8034 137.431 81.1576 136.607 81.6993C135.363 82.4999 134.386 83.6846 133.808 85.091L133.022 86.9973Z" fill="#263238"/>
<path d="M147.697 87.5255C147.406 86.8819 146.015 86.9396 144.553 87.6493C143.091 88.3591 143.068 89.0275 143.358 89.6712C143.649 90.3149 144.144 90.6862 145.606 89.9765C147.068 89.2668 147.988 88.1692 147.697 87.5255ZM144.325 89.176C144.121 88.7139 144.16 88.2435 145.182 87.7319C146.204 87.2202 147.202 87.1872 147.406 87.6493C147.611 88.1115 146.958 88.8955 145.936 89.3989C144.915 89.9023 144.537 89.6629 144.325 89.2008V89.176Z" fill="#4A154B"/>
<path opacity="0.2" d="M155.471 119.892L153.624 118.241L152.256 118.893C151.781 123.973 153.013 129.067 155.738 133.294C155.856 130.546 156.099 127.451 156.524 123.754C155.942 121.526 155.471 119.892 155.471 119.892Z" fill="#111827"/>
<path d="M180.371 140.003L179.372 140.11L178.901 135.382C178.758 133.809 179.188 132.238 180.104 130.984C181.02 129.73 182.353 128.887 183.837 128.623C184.554 128.496 185.289 128.525 185.995 128.709C186.7 128.893 187.363 129.228 187.94 129.693C188.518 130.157 188.998 130.742 189.35 131.409C189.703 132.077 189.921 132.814 189.991 133.574L190.471 138.303L189.472 138.419L189.001 133.682C188.943 133.062 188.766 132.462 188.479 131.917C188.193 131.372 187.803 130.894 187.334 130.513C186.865 130.134 186.326 129.86 185.751 129.71C185.176 129.559 184.578 129.535 183.994 129.638C182.762 129.857 181.656 130.558 180.896 131.599C180.136 132.64 179.78 133.944 179.899 135.25L180.371 140.003Z" fill="#263238"/>
<path d="M161.845 118.835C161.986 119.545 162.175 120.419 162.356 121.22C162.537 122.02 162.749 122.87 162.969 123.696C163.409 125.346 163.873 126.939 164.431 128.499C165.435 131.536 166.863 134.401 168.667 136.999L168.832 137.221L168.911 137.337L168.817 137.238C168.691 137.122 168.544 137.035 168.384 136.982C168.149 136.916 168.156 136.982 168.314 136.982C168.871 136.952 169.42 136.829 169.941 136.619C171.396 136.061 172.805 135.38 174.154 134.581C177.007 132.93 179.891 131.049 182.682 129.142L184.859 131.833C182.411 134.504 179.75 136.95 176.905 139.144C175.396 140.313 173.785 141.33 172.094 142.181C171.052 142.706 169.938 143.057 168.793 143.221C167.916 143.334 167.025 143.233 166.191 142.924C165.636 142.707 165.124 142.382 164.682 141.967C164.572 141.859 164.454 141.744 164.36 141.637L164.234 141.496L163.983 141.207C162.689 139.705 161.555 138.059 160.603 136.297C159.674 134.614 158.862 132.863 158.174 131.057C157.498 129.272 156.911 127.451 156.414 125.602C156.17 124.694 155.942 123.778 155.738 122.854C155.533 121.93 155.345 121.03 155.188 119.974L161.845 118.835Z" fill="#B55B52"/>
<path d="M158.158 111.408C160.65 112.002 165.012 121.46 165.012 121.46L155.219 128.433C155.219 128.433 151.289 121.328 152.075 117.936C152.876 114.42 155.313 110.748 158.158 111.408Z" fill="#4A154B"/>
<path d="M182.273 129.101L187.963 125.8L186.769 132.097C186.769 132.097 183.09 133.327 181.267 131.494L182.273 129.101Z" fill="#B55B52"/>
<path d="M192.954 126.65L191.681 131.874L186.769 132.105L187.963 125.809L192.954 126.65Z" fill="#B55B52"/>
<path d="M195.344 137.511L194.401 132.856C194.13 131.577 193.408 130.452 192.38 129.708C191.353 128.964 190.095 128.656 188.859 128.846C188.272 128.936 187.709 129.153 187.206 129.482C186.702 129.812 186.269 130.247 185.933 130.761C185.597 131.275 185.366 131.856 185.254 132.468C185.142 133.08 185.152 133.709 185.283 134.317L186.226 138.971L185.252 139.194L184.308 134.54C184.148 133.793 184.136 133.019 184.274 132.267C184.411 131.516 184.695 130.802 185.108 130.17C185.52 129.539 186.052 129.004 186.671 128.598C187.289 128.193 187.981 127.926 188.702 127.814C190.191 127.584 191.707 127.955 192.946 128.85C194.185 129.746 195.056 131.1 195.383 132.642L196.326 137.296L195.344 137.511Z" fill="#263238"/>
<g opacity="0.3">
<path d="M195.344 137.511L194.401 132.856C194.13 131.577 193.408 130.452 192.38 129.708C191.353 128.964 190.095 128.656 188.859 128.846C188.272 128.936 187.709 129.153 187.206 129.482C186.702 129.812 186.269 130.247 185.933 130.761C185.597 131.275 185.366 131.856 185.254 132.468C185.142 133.08 185.152 133.709 185.283 134.317L186.226 138.971L185.252 139.194L184.308 134.54C184.148 133.793 184.136 133.019 184.274 132.267C184.411 131.516 184.695 130.802 185.108 130.17C185.52 129.539 186.052 129.004 186.671 128.598C187.289 128.193 187.981 127.926 188.702 127.814C190.191 127.584 191.707 127.955 192.946 128.85C194.185 129.746 195.056 131.1 195.383 132.642L196.326 137.296L195.344 137.511Z" fill="white"/>
</g>
<path d="M201.207 134.399L172.055 139.244L176.543 175.72L180.709 173.962L185.189 174.284L207.668 170.545L201.207 134.399Z" fill="#4A154B"/>
<path opacity="0.6" d="M201.207 134.399L172.055 139.244L176.543 175.72L180.709 173.962L185.189 174.284L207.668 170.545L201.207 134.399Z" fill="white"/>
<path d="M185.189 174.283L180.709 173.962L176.543 175.719L172.055 139.244L178.72 138.138L185.189 174.283Z" fill="#4A154B"/>
<path opacity="0.3" d="M185.189 174.283L180.709 173.962L176.543 175.719L172.055 139.244L178.72 138.138L185.189 174.283Z" fill="white"/>
<path d="M198.344 150.112L186.287 152.117C185.64 152.224 185.198 152.863 185.301 153.542L185.318 153.656C185.421 154.336 186.029 154.8 186.676 154.692L198.732 152.687C199.38 152.58 199.821 151.941 199.719 151.262L199.702 151.148C199.599 150.468 198.991 150.004 198.344 150.112Z" fill="white"/>
</svg>
