<svg width="393" height="296" viewBox="0 0 393 296" fill="none" xmlns="http://www.w3.org/2000/svg">
<path d="M393 260.12H0V260.319H393V260.12Z" fill="#6366F1"/>
<path d="M353.621 272.904H327.589V273.103H353.621V272.904Z" fill="#6366F1"/>
<path d="M260.339 275.065H253.509V275.264H260.339V275.065Z" fill="#6366F1"/>
<path d="M326.803 265.531H311.72V265.73H326.803V265.531Z" fill="#6366F1"/>
<path d="M75.1807 266.866H41.2334V267.065H75.1807V266.866Z" fill="#6366F1"/>
<path d="M87.16 266.866H82.1846V267.065H87.16V266.866Z" fill="#6366F1"/>
<path d="M176.967 270.218H103.335V270.418H176.967V270.218Z" fill="#6366F1"/>
<path d="M186.282 224.685H34.5134C33.3245 224.683 32.1849 224.204 31.3449 223.354C30.505 222.503 30.0332 221.351 30.0332 220.149V4.49689C30.0436 3.30197 30.5199 2.15944 31.3587 1.31746C32.1976 0.475477 33.3312 0.00204695 34.5134 0H186.282C187.472 0 188.614 0.477963 189.456 1.32874C190.297 2.17952 190.77 3.33343 190.77 4.53661V220.149C190.77 221.352 190.297 222.506 189.456 223.357C188.614 224.207 187.472 224.685 186.282 224.685ZM34.5134 0.158901C33.3766 0.161006 32.287 0.61897 31.4839 1.43227C30.6808 2.24557 30.2297 3.34776 30.2297 4.49689V220.149C30.2297 221.298 30.6808 222.4 31.4839 223.213C32.287 224.027 33.3766 224.485 34.5134 224.487H186.282C187.42 224.485 188.51 224.027 189.314 223.214C190.119 222.401 190.572 221.299 190.574 220.149V4.49689C190.572 3.34703 190.119 2.24486 189.314 1.43179C188.51 0.618711 187.42 0.161001 186.282 0.158901H34.5134Z" fill="#6366F1"/>
<path d="M356.302 224.685H204.525C203.335 224.683 202.195 224.205 201.354 223.354C200.513 222.504 200.039 221.351 200.037 220.149V4.49689C200.05 3.30125 200.528 2.15873 201.368 1.31696C202.208 0.475199 203.342 0.00202462 204.525 0H356.302C357.483 0.00413499 358.614 0.478489 359.451 1.32025C360.289 2.16201 360.764 3.30335 360.774 4.49689V220.149C360.774 221.349 360.303 222.501 359.465 223.351C358.627 224.201 357.489 224.681 356.302 224.685ZM204.525 0.158901C203.388 0.161001 202.297 0.618711 201.493 1.43179C200.688 2.24486 200.236 3.34703 200.234 4.49689V220.149C200.236 221.299 200.688 222.401 201.493 223.214C202.297 224.027 203.388 224.485 204.525 224.487H356.302C357.439 224.485 358.53 224.027 359.334 223.214C360.138 222.401 360.591 221.299 360.593 220.149V4.49689C360.591 3.34703 360.138 2.24486 359.334 1.43179C358.53 0.618711 357.439 0.161001 356.302 0.158901H204.525Z" fill="#6366F1"/>
<path d="M81.4688 251.389H42.4439C40.612 251.389 39.127 252.89 39.127 254.741V276.32C39.127 278.172 40.612 279.673 42.4439 279.673H81.4688C83.3007 279.673 84.7857 278.172 84.7857 276.32V254.741C84.7857 252.89 83.3007 251.389 81.4688 251.389Z" fill="#6366F1"/>
<path d="M53.2121 262.631H43.1592C42.9882 262.631 42.8243 262.562 42.7034 262.44C42.5826 262.318 42.5146 262.152 42.5146 261.979C42.5146 261.806 42.5823 261.639 42.7029 261.516C42.8236 261.392 42.9875 261.322 43.1592 261.32H53.2121C53.3851 261.32 53.5511 261.389 53.6734 261.513C53.7958 261.637 53.8645 261.804 53.8645 261.979C53.8624 262.153 53.7928 262.318 53.6707 262.44C53.5485 262.562 53.3838 262.631 53.2121 262.631Z" fill="#FAFAFA"/>
<path d="M81.673 255.695H71.6201C71.4484 255.693 71.2845 255.622 71.1639 255.499C71.0432 255.375 70.9756 255.209 70.9756 255.035C70.9756 254.862 71.0432 254.695 71.1639 254.572C71.2845 254.448 71.4484 254.378 71.6201 254.376H81.673C81.8461 254.376 82.012 254.445 82.1343 254.569C82.2567 254.693 82.3254 254.861 82.3254 255.035C82.3254 255.21 82.2567 255.378 82.1343 255.502C82.012 255.625 81.8461 255.695 81.673 255.695Z" fill="#FAFAFA"/>
<path d="M53.2121 276.487H43.1592C42.9875 276.485 42.8236 276.414 42.7029 276.291C42.5823 276.167 42.5146 276.001 42.5146 275.827C42.5146 275.654 42.5823 275.487 42.7029 275.364C42.8236 275.24 42.9875 275.17 43.1592 275.168H53.2121C53.3851 275.168 53.5511 275.237 53.6734 275.361C53.7958 275.485 53.8645 275.653 53.8645 275.827C53.8645 276.002 53.7958 276.17 53.6734 276.294C53.5511 276.417 53.3851 276.487 53.2121 276.487Z" fill="#FAFAFA"/>
<path d="M45.808 265.88H43.1592C42.9875 265.878 42.8236 265.808 42.7029 265.684C42.5823 265.561 42.5146 265.394 42.5146 265.221C42.5146 265.048 42.5826 264.882 42.7034 264.76C42.8243 264.638 42.9882 264.569 43.1592 264.569H45.808C45.9789 264.569 46.1429 264.638 46.2637 264.76C46.3846 264.882 46.4525 265.048 46.4525 265.221C46.4525 265.394 46.3849 265.561 46.2642 265.684C46.1436 265.808 45.9796 265.878 45.808 265.88Z" fill="#FAFAFA"/>
<path d="M80.8163 269.71H72.4769C71.7346 269.71 71.1328 270.318 71.1328 271.069V276.328C71.1328 277.078 71.7346 277.687 72.4769 277.687H80.8163C81.5586 277.687 82.1604 277.078 82.1604 276.328V271.069C82.1604 270.318 81.5586 269.71 80.8163 269.71Z" fill="#E0E0E0"/>
<path d="M120.549 25.0903H67.2896C65.4577 25.0903 63.9727 26.5914 63.9727 28.4431V58.8408C63.9727 60.6925 65.4577 62.1936 67.2896 62.1936H120.549C122.381 62.1936 123.866 60.6925 123.866 58.8408V28.4431C123.866 26.5914 122.381 25.0903 120.549 25.0903Z" fill="#E6CAF7"/>
<path d="M82.4512 39.8445H69.27C69.1555 39.8488 69.0414 39.8298 68.9343 39.7887C68.8272 39.7475 68.7294 39.6851 68.6466 39.6051C68.5638 39.5251 68.4977 39.4292 68.4522 39.3229C68.4067 39.2166 68.3828 39.1022 68.3818 38.9864C68.3838 38.8713 68.4085 38.7578 68.4545 38.6524C68.5004 38.5471 68.5667 38.4521 68.6494 38.3729C68.7321 38.2938 68.8296 38.2321 68.9361 38.1914C69.0427 38.1508 69.1562 38.1321 69.27 38.1363H82.4512C82.6785 38.1363 82.8964 38.2276 83.057 38.39C83.2177 38.5524 83.308 38.7727 83.308 39.0023C83.3018 39.2279 83.2089 39.4421 83.0489 39.5993C82.8888 39.7566 82.6744 39.8446 82.4512 39.8445Z" fill="#6366F1"/>
<path d="M119.794 30.7392H106.605C106.493 30.7392 106.382 30.7168 106.278 30.6731C106.175 30.6295 106.081 30.5656 106.002 30.4851C105.923 30.4046 105.86 30.309 105.818 30.204C105.776 30.099 105.755 29.9866 105.756 29.8732C105.756 29.6456 105.845 29.4274 106.005 29.2665C106.164 29.1055 106.38 29.0151 106.605 29.0151H119.794C120.019 29.0151 120.235 29.1055 120.394 29.2665C120.553 29.4274 120.643 29.6456 120.643 29.8732C120.644 29.9866 120.623 30.099 120.58 30.204C120.538 30.309 120.476 30.4046 120.397 30.4851C120.318 30.5656 120.224 30.6295 120.121 30.6731C120.017 30.7168 119.906 30.7392 119.794 30.7392Z" fill="#6366F1"/>
<path d="M82.6868 56.2827H69.034C68.6911 56.2827 68.4131 56.5637 68.4131 56.9104V57.3791C68.4131 57.7258 68.6911 58.0068 69.034 58.0068H82.6868C83.0298 58.0068 83.3078 57.7258 83.3078 57.3791V56.9104C83.3078 56.5637 83.0298 56.2827 82.6868 56.2827Z" fill="#6366F1"/>
<path d="M72.7363 44.103H69.27C69.1549 44.1073 69.0401 44.088 68.9325 44.0464C68.8249 44.0048 68.7267 43.9417 68.6438 43.8608C68.5609 43.78 68.4949 43.6831 68.4499 43.5759C68.4049 43.4687 68.3818 43.3534 68.3818 43.237C68.3839 43.0087 68.4751 42.7904 68.6355 42.6297C68.796 42.469 69.0127 42.3789 69.2386 42.3789H72.7048C72.93 42.3789 73.1459 42.4693 73.3051 42.6302C73.4643 42.7911 73.5537 43.0094 73.5537 43.237C73.5559 43.4605 73.4717 43.6761 73.319 43.8378C73.1664 43.9996 72.9573 44.0947 72.7363 44.103Z" fill="#6366F1"/>
<path d="M119.087 49.1318H107.313C106.57 49.1318 105.969 49.7401 105.969 50.4904V58.2368C105.969 58.9872 106.57 59.5954 107.313 59.5954H119.087C119.829 59.5954 120.431 58.9872 120.431 58.2368V50.4904C120.431 49.7401 119.829 49.1318 119.087 49.1318Z" fill="#6366F1"/>
<path d="M239.636 47.8211V52.1193H236.492V47.8608C232.774 47.6304 229.174 46.4069 227.201 44.6828L228.907 40.8136C231.111 42.4922 233.741 43.5034 236.492 43.7294V36.0624C232.279 35.0216 227.767 33.6789 227.767 28.316C227.767 24.4071 230.573 20.9907 236.492 20.4187V16.0728H239.636V20.3313C242.353 20.4478 244.999 21.2508 247.331 22.6671L245.759 26.5443C243.878 25.4278 241.787 24.7215 239.62 24.4706V32.2171C243.825 33.2499 248.415 34.6006 248.415 39.9237C248.431 43.8327 245.586 47.2093 239.636 47.8211ZM236.492 31.4146V24.6295C233.796 25.0506 232.664 26.4251 232.664 28.1174C232.695 29.913 234.322 30.7631 236.523 31.4146H236.492ZM243.566 40.2654C243.566 38.3903 241.892 37.5084 239.636 36.8569V43.642C242.402 43.2209 243.581 41.9179 243.581 40.2654H243.566Z" fill="#F59E0B"/>
<path d="M338.075 233.02V236.293H335.717V233.044C332.887 232.869 330.136 231.931 328.643 230.62L329.939 227.665C331.62 228.945 333.627 229.717 335.724 229.889V224.05C332.518 223.255 329.075 222.207 329.075 218.147C329.075 215.167 331.213 212.585 335.724 212.124V208.827H338.082V212.069C340.155 212.16 342.173 212.772 343.954 213.848L342.767 216.804C341.322 215.947 339.716 215.405 338.051 215.215V221.118C341.258 221.913 344.756 222.93 344.756 226.997C344.779 229.977 342.61 232.551 338.075 233.02ZM335.717 220.506V215.31C333.665 215.636 332.801 216.685 332.801 217.972C332.785 219.37 334.05 220.014 335.701 220.506H335.717ZM341.093 227.26C341.093 225.83 339.827 225.154 338.09 224.654V229.834C340.181 229.508 341.077 228.515 341.077 227.228L341.093 227.26Z" fill="#F59E0B"/>
<path d="M42.1608 200.715C41.6211 200.138 41.2033 199.456 40.933 198.71C40.6628 197.964 40.5456 197.17 40.5888 196.377C40.5608 195.273 40.8096 194.18 41.3119 193.199C41.7628 192.339 42.4544 191.631 43.3005 191.165C44.1886 190.711 45.1701 190.474 46.1655 190.474C47.1609 190.474 48.1424 190.711 49.0305 191.165C49.8772 191.633 50.571 192.34 51.0269 193.199C51.523 194.182 51.7689 195.274 51.7422 196.377C51.784 197.17 51.6662 197.964 51.396 198.709C51.1258 199.455 50.7088 200.137 50.1702 200.715C49.0724 201.728 47.6399 202.29 46.1537 202.29C44.6675 202.29 43.235 201.728 42.1372 200.715H42.1608ZM58.4939 190.776H63.5636L49.2348 211.981H44.1651L58.4939 190.776ZM47.1598 198.395C47.6524 197.099 47.6524 195.664 47.1598 194.367C47.078 194.182 46.9451 194.025 46.777 193.915C46.6089 193.805 46.4129 193.747 46.2126 193.747C46.0124 193.747 45.8164 193.805 45.6483 193.915C45.4802 194.025 45.3473 194.182 45.2655 194.367C44.7729 195.664 44.7729 197.099 45.2655 198.395C45.3473 198.58 45.4802 198.737 45.6483 198.847C45.8164 198.957 46.0124 199.016 46.2126 199.016C46.4129 199.016 46.6089 198.957 46.777 198.847C46.9451 198.737 47.078 198.58 47.1598 198.395ZM57.5743 210.71C57.0359 210.134 56.6189 209.453 56.3487 208.708C56.0785 207.964 55.9606 207.172 56.0023 206.38C55.9732 205.277 56.2192 204.184 56.7175 203.202C57.1694 202.342 57.8644 201.636 58.714 201.176C59.5998 200.719 60.5803 200.48 61.575 200.48C62.5697 200.48 63.5503 200.719 64.4361 201.176C65.2857 201.636 65.9806 202.342 66.4325 203.202C66.9336 204.183 67.1823 205.276 67.1556 206.38C67.1968 207.172 67.0787 207.964 66.8085 208.708C66.5383 209.452 66.1216 210.133 65.5836 210.71C64.4876 211.726 63.0544 212.29 61.5672 212.29C60.0799 212.29 58.6467 211.726 57.5507 210.71H57.5743ZM62.5339 208.39C63.0373 207.096 63.0373 205.657 62.5339 204.362C62.4537 204.177 62.3217 204.019 62.1542 203.908C61.9867 203.798 61.7909 203.739 61.5907 203.739C61.3906 203.739 61.1948 203.798 61.0273 203.908C60.8598 204.019 60.7278 204.177 60.6475 204.362C60.1442 205.657 60.1442 207.096 60.6475 208.39C60.7278 208.576 60.8598 208.733 61.0273 208.844C61.1948 208.955 61.3906 209.014 61.5907 209.014C61.7909 209.014 61.9867 208.955 62.1542 208.844C62.3217 208.733 62.4537 208.576 62.5339 208.39Z" fill="#F59E0B"/>
<path d="M299.057 81.9131C298.298 81.0917 297.71 80.1234 297.331 79.0666C296.951 78.0097 296.787 76.8862 296.848 75.7636C296.805 74.1936 297.157 72.6382 297.87 71.2429C298.511 70.0221 299.496 69.021 300.7 68.3668C301.959 67.7193 303.351 67.3818 304.763 67.3818C306.176 67.3818 307.568 67.7193 308.827 68.3668C310.028 69.0256 311.012 70.0255 311.657 71.2429C312.363 72.6404 312.712 74.1947 312.671 75.7636C312.735 76.8859 312.573 78.0096 312.194 79.0666C311.816 80.1237 311.229 81.0921 310.47 81.9131C308.911 83.3496 306.877 84.1458 304.767 84.1458C302.658 84.1458 300.624 83.3496 299.065 81.9131H299.057ZM322.26 67.8027H329.452L309.118 97.9064H301.926L322.26 67.8027ZM306.1 78.6556C306.812 76.8168 306.812 74.774 306.1 72.9352C305.986 72.6715 305.799 72.4471 305.561 72.2896C305.322 72.132 305.044 72.048 304.76 72.048C304.475 72.048 304.197 72.132 303.959 72.2896C303.72 72.4471 303.533 72.6715 303.419 72.9352C302.717 74.7759 302.717 76.8149 303.419 78.6556C303.533 78.9193 303.72 79.1437 303.959 79.3013C304.197 79.4588 304.475 79.5428 304.76 79.5428C305.044 79.5428 305.322 79.4588 305.561 79.3013C305.799 79.1437 305.986 78.9193 306.1 78.6556ZM320.884 96.1347C320.125 95.3132 319.538 94.345 319.158 93.2882C318.779 92.2313 318.614 91.1078 318.676 89.9852C318.633 88.4178 318.984 86.8649 319.697 85.4725C320.336 84.2478 321.321 83.2436 322.527 82.5884C323.784 81.941 325.176 81.6035 326.587 81.6035C327.998 81.6035 329.389 81.941 330.646 82.5884C331.853 83.2436 332.838 84.2478 333.476 85.4725C334.189 86.8649 334.541 88.4178 334.498 89.9852C334.561 91.108 334.398 92.232 334.018 93.2891C333.638 94.3462 333.05 95.3143 332.289 96.1347C330.732 97.5762 328.698 98.3759 326.587 98.3759C324.476 98.3759 322.441 97.5762 320.884 96.1347ZM327.958 92.8454C328.671 91.0067 328.671 88.9638 327.958 87.125C327.845 86.8614 327.657 86.637 327.419 86.4794C327.181 86.3218 326.903 86.2378 326.618 86.2378C326.334 86.2378 326.055 86.3218 325.817 86.4794C325.579 86.637 325.392 86.8614 325.278 87.125C324.565 88.9638 324.565 91.0067 325.278 92.8454C325.392 93.1091 325.579 93.3335 325.817 93.4911C326.055 93.6487 326.334 93.7326 326.618 93.7326C326.903 93.7326 327.181 93.6487 327.419 93.4911C327.657 93.3335 327.845 93.1091 327.958 92.8454Z" fill="#F59E0B"/>
<path d="M196.5 296C280.667 296 348.898 291.974 348.898 287.006C348.898 282.039 280.667 278.013 196.5 278.013C112.333 278.013 44.1025 282.039 44.1025 287.006C44.1025 291.974 112.333 296 196.5 296Z" fill="#F5F5F5"/>
<path d="M322.653 94.498H73.302C70.5482 94.498 67.9073 95.6038 65.9601 97.5721C64.0129 99.5403 62.9189 102.21 62.9189 104.993V264.689C62.9189 267.473 64.0126 270.143 65.9596 272.113C67.9066 274.082 70.5475 275.19 73.302 275.192H106.4V270.075C106.4 269.352 106.684 268.659 107.19 268.148C107.696 267.637 108.381 267.35 109.096 267.35H286.89C287.244 267.349 287.595 267.419 287.923 267.555C288.25 267.692 288.548 267.893 288.798 268.146C289.049 268.399 289.247 268.7 289.383 269.031C289.518 269.362 289.587 269.717 289.586 270.075V275.192H322.653C324.017 275.192 325.368 274.92 326.628 274.392C327.888 273.864 329.033 273.09 329.997 272.115C330.962 271.14 331.726 269.982 332.248 268.707C332.769 267.433 333.037 266.067 333.036 264.689V104.993C333.037 103.615 332.769 102.25 332.247 100.976C331.726 99.702 330.961 98.5445 329.997 97.5697C329.033 96.5949 327.887 95.8219 326.627 95.2948C325.367 94.7678 324.016 94.497 322.653 94.498Z" fill="#4A154B"/>
<path opacity="0.2" d="M322.653 94.498H73.302C70.5482 94.498 67.9073 95.6038 65.9601 97.5721C64.0129 99.5403 62.9189 102.21 62.9189 104.993V264.689C62.9189 267.473 64.0126 270.143 65.9596 272.113C67.9066 274.082 70.5475 275.19 73.302 275.192H106.4V270.075C106.4 269.352 106.684 268.659 107.19 268.148C107.696 267.637 108.381 267.35 109.096 267.35H286.89C287.244 267.349 287.595 267.419 287.923 267.555C288.25 267.692 288.548 267.893 288.798 268.146C289.049 268.399 289.247 268.7 289.383 269.031C289.518 269.362 289.587 269.717 289.586 270.075V275.192H322.653C324.017 275.192 325.368 274.92 326.628 274.392C327.888 273.864 329.033 273.09 329.997 272.115C330.962 271.14 331.726 269.982 332.248 268.707C332.769 267.433 333.037 266.067 333.036 264.689V104.993C333.037 103.615 332.769 102.25 332.247 100.976C331.726 99.702 330.961 98.5445 329.997 97.5697C329.033 96.5949 327.887 95.8219 326.627 95.2948C325.367 94.7678 324.016 94.497 322.653 94.498Z" fill="white"/>
<path d="M200.163 101.37C200.163 101.807 200.035 102.234 199.795 102.597C199.555 102.961 199.214 103.244 198.814 103.411C198.415 103.578 197.976 103.622 197.552 103.537C197.128 103.451 196.739 103.241 196.433 102.932C196.127 102.623 195.919 102.23 195.835 101.801C195.751 101.373 195.794 100.929 195.959 100.525C196.125 100.122 196.405 99.7766 196.764 99.5339C197.123 99.2912 197.546 99.1616 197.978 99.1616C198.265 99.1606 198.55 99.217 198.815 99.3276C199.081 99.4383 199.322 99.6009 199.525 99.8062C199.729 100.012 199.889 100.255 199.999 100.524C200.108 100.792 200.164 101.08 200.163 101.37Z" fill="#E6CAF7"/>
<path d="M353.448 271.267H42.5146V279.133H353.448V271.267Z" fill="#4A154B"/>
<path opacity="0.5" d="M353.448 271.267H42.5146V279.133H353.448V271.267Z" fill="white"/>
<path d="M42.5146 279.132L47.325 283.025C50.4976 285.597 54.443 286.999 58.5097 286.998H337.445C341.512 286.999 345.458 285.597 348.63 283.025L353.448 279.132H42.5146Z" fill="#4A154B"/>
<path opacity="0.3" d="M42.5146 279.132L47.325 283.025C50.4976 285.597 54.443 286.999 58.5097 286.998H337.445C341.512 286.999 345.458 285.597 348.63 283.025L353.448 279.132H42.5146Z" fill="white"/>
<path opacity="0.4" d="M168.102 271.521C168.101 272.004 168.194 272.482 168.376 272.928C168.558 273.375 168.825 273.78 169.162 274.122C169.5 274.464 169.9 274.735 170.341 274.92C170.783 275.105 171.255 275.2 171.733 275.2H224.222C224.699 275.2 225.172 275.105 225.613 274.92C226.055 274.735 226.455 274.464 226.792 274.122C227.13 273.78 227.397 273.375 227.579 272.928C227.761 272.482 227.854 272.004 227.853 271.521C227.853 271.434 227.853 271.354 227.853 271.267H168.117C168.117 271.354 168.102 271.434 168.102 271.521Z" fill="white"/>
<path d="M320.892 110.571H74.3477V252.405H320.892V110.571Z" fill="#E6CAF7"/>
<g opacity="0.9">
<path d="M320.892 110.571H74.3477V252.405H320.892V110.571Z" fill="white"/>
</g>
<path d="M285.294 133.254H107.14V139.213H285.294V133.254Z" fill="#E6CAF7"/>
<g opacity="0.8">
<path d="M285.294 133.254H107.14V139.213H285.294V133.254Z" fill="white"/>
</g>
<path d="M291.668 133.254H285.286V139.213H291.668V133.254Z" fill="#E6CAF7"/>
<g opacity="0.5">
<path d="M291.668 133.254H285.286V139.213H291.668V133.254Z" fill="white"/>
</g>
<path d="M320.892 110.571H74.3477V117.308H320.892V110.571Z" fill="#E6CAF7"/>
<path d="M303.168 113.939C303.169 114.324 303.058 114.699 302.848 115.019C302.638 115.339 302.338 115.589 301.987 115.737C301.637 115.885 301.25 115.924 300.878 115.849C300.505 115.775 300.162 115.59 299.894 115.318C299.625 115.047 299.442 114.7 299.368 114.324C299.295 113.947 299.333 113.556 299.48 113.202C299.626 112.847 299.873 112.545 300.189 112.332C300.506 112.12 300.878 112.007 301.258 112.009C301.764 112.009 302.25 112.212 302.608 112.574C302.966 112.936 303.168 113.427 303.168 113.939Z" fill="white"/>
<path d="M310.509 113.939C310.511 114.323 310.4 114.699 310.19 115.019C309.98 115.338 309.681 115.588 309.331 115.736C308.981 115.884 308.595 115.924 308.222 115.85C307.85 115.776 307.507 115.592 307.238 115.321C306.969 115.05 306.786 114.705 306.711 114.329C306.637 113.952 306.674 113.562 306.819 113.207C306.964 112.853 307.21 112.549 307.525 112.336C307.841 112.123 308.212 112.009 308.592 112.009C308.843 112.008 309.092 112.057 309.325 112.153C309.558 112.25 309.769 112.392 309.947 112.571C310.125 112.751 310.267 112.964 310.363 113.199C310.46 113.434 310.509 113.685 310.509 113.939Z" fill="white"/>
<path d="M317.842 113.94C317.845 114.324 317.735 114.7 317.525 115.021C317.315 115.341 317.016 115.591 316.665 115.738C316.314 115.885 315.927 115.924 315.555 115.848C315.182 115.772 314.841 115.585 314.573 115.312C314.306 115.038 314.126 114.691 314.056 114.313C313.985 113.936 314.028 113.545 314.178 113.192C314.328 112.839 314.579 112.54 314.898 112.332C315.218 112.124 315.592 112.017 315.972 112.025C316.469 112.035 316.942 112.241 317.291 112.598C317.641 112.956 317.838 113.437 317.842 113.94Z" fill="white"/>
<path d="M79.8652 138.72C79.5273 138.646 79.2035 138.517 78.9062 138.338L79.4407 137.107C79.688 137.251 79.952 137.363 80.2267 137.441C80.4995 137.524 80.7828 137.567 81.0677 137.568C81.2385 137.578 81.4095 137.554 81.5708 137.496C81.6131 137.483 81.6502 137.457 81.677 137.421C81.7037 137.386 81.7188 137.342 81.7201 137.298C81.718 137.242 81.6976 137.188 81.662 137.145C81.6265 137.102 81.5778 137.072 81.5236 137.059C81.3139 136.983 81.0983 136.925 80.8791 136.885C80.5536 136.821 80.2331 136.733 79.9202 136.622C79.6662 136.529 79.4392 136.374 79.2599 136.169C79.0616 135.927 78.9606 135.618 78.977 135.303C78.9734 134.997 79.064 134.697 79.2364 134.445C79.4319 134.167 79.7057 133.953 80.0224 133.834C80.4245 133.672 80.8554 133.596 81.2878 133.611C81.6235 133.612 81.9582 133.65 82.2861 133.722C82.5914 133.786 82.8856 133.896 83.1585 134.048L82.6555 135.272C82.2289 135.041 81.7555 134.914 81.2721 134.898C80.8398 134.898 80.6276 135.009 80.6276 135.216C80.6276 135.423 80.6905 135.391 80.8162 135.439C81.0198 135.515 81.2304 135.571 81.445 135.605C81.7706 135.662 82.0912 135.744 82.4039 135.852C82.6622 135.945 82.8941 136.101 83.0799 136.305C83.2799 136.544 83.3837 136.85 83.3707 137.163C83.3753 137.47 83.2816 137.771 83.1035 138.021C82.9049 138.297 82.6321 138.509 82.3175 138.632C81.9147 138.791 81.4843 138.867 81.052 138.855C80.6527 138.854 80.2548 138.808 79.8652 138.72Z" fill="#4A154B"/>
<path d="M84.8877 135.065H83.4336V133.747H88.0317V135.065H86.5855V138.768H84.8877V135.065Z" fill="#4A154B"/>
<path d="M89.525 138.522C89.1153 138.305 88.7706 137.981 88.5268 137.584C88.2899 137.174 88.165 136.708 88.165 136.233C88.165 135.759 88.2899 135.293 88.5268 134.883C88.7706 134.486 89.1153 134.162 89.525 133.945C89.9734 133.726 90.4652 133.612 90.9634 133.612C91.4616 133.612 91.9533 133.726 92.4017 133.945C92.8198 134.16 93.1708 134.487 93.4161 134.891C93.6613 135.295 93.7911 135.76 93.7911 136.233C93.7911 136.707 93.6613 137.172 93.4161 137.576C93.1708 137.98 92.8198 138.307 92.4017 138.522C91.9533 138.741 91.4616 138.855 90.9634 138.855C90.4652 138.855 89.9734 138.741 89.525 138.522ZM91.5293 137.33C91.6987 137.226 91.8372 137.078 91.9301 136.901C92.0345 136.694 92.0858 136.465 92.0795 136.233C92.0869 136.004 92.0355 135.777 91.9301 135.574C91.8374 135.395 91.699 135.244 91.5293 135.137C91.3598 135.033 91.1654 134.978 90.9673 134.978C90.7691 134.978 90.5748 135.033 90.4053 135.137C90.2318 135.239 90.0923 135.391 90.0044 135.574C89.8991 135.777 89.8477 136.004 89.8551 136.233C89.8488 136.465 89.9001 136.694 90.0044 136.901C90.0928 137.081 90.2324 137.23 90.4053 137.33C90.5748 137.434 90.7691 137.488 90.9673 137.488C91.1654 137.488 91.3598 137.434 91.5293 137.33Z" fill="#4A154B"/>
<path d="M96.5051 137.448H96.0492V138.712H94.375V133.69H96.733C97.1428 133.683 97.5497 133.761 97.9277 133.921C98.2518 134.057 98.5274 134.29 98.7183 134.588C98.9091 134.885 99.0062 135.235 98.9967 135.589C99.0111 135.918 98.9302 136.243 98.764 136.525C98.5978 136.808 98.3536 137.035 98.0613 137.178L99.0989 138.728H97.3146L96.5051 137.448ZM97.1653 135.152C97.0176 135.067 96.8455 135.037 96.678 135.065H96.0728V136.241H96.678C96.8619 136.254 97.0442 136.198 97.1889 136.082C97.2478 136.028 97.294 135.962 97.3239 135.887C97.3539 135.813 97.3668 135.733 97.3618 135.653C97.3697 135.564 97.3559 135.475 97.3216 135.394C97.2873 135.312 97.2336 135.24 97.1653 135.184V135.152Z" fill="#4A154B"/>
<path d="M103.751 137.449V138.728H99.625V133.707H103.657V134.986H101.299V135.574H103.398V136.789H101.299V137.449H103.751Z" fill="#4A154B"/>
<path d="M297.894 139.205C297.894 139.374 297.844 139.54 297.751 139.681C297.658 139.823 297.525 139.933 297.37 139.997C297.215 140.062 297.044 140.079 296.88 140.046C296.715 140.013 296.564 139.931 296.445 139.811C296.326 139.691 296.245 139.539 296.213 139.372C296.18 139.206 296.197 139.033 296.261 138.876C296.325 138.72 296.434 138.586 296.574 138.491C296.713 138.397 296.877 138.347 297.045 138.347C297.27 138.347 297.486 138.437 297.645 138.598C297.805 138.759 297.894 138.977 297.894 139.205Z" fill="#4A154B"/>
<path d="M303.168 139.205C303.169 139.377 303.12 139.545 303.026 139.689C302.933 139.832 302.799 139.945 302.642 140.011C302.485 140.078 302.313 140.096 302.146 140.062C301.979 140.029 301.825 139.947 301.705 139.825C301.585 139.703 301.503 139.548 301.47 139.38C301.437 139.211 301.455 139.036 301.521 138.878C301.587 138.719 301.698 138.584 301.84 138.489C301.982 138.395 302.149 138.345 302.319 138.347C302.543 138.349 302.758 138.44 302.917 138.6C303.075 138.761 303.165 138.978 303.168 139.205Z" fill="#4A154B"/>
<path d="M296.322 133.119L295.748 131.26H293.595V131.887H295.316L296.935 137.195H302.587L303.09 133.683L296.322 133.119ZM302.146 136.734L297.328 136.678L296.416 133.588L302.539 134.041L302.146 136.734Z" fill="#4A154B"/>
<path d="M320.892 117.308H74.3477V130.116H320.892V117.308Z" fill="#E6CAF7"/>
<g opacity="0.7">
<path d="M320.892 117.308H74.3477V130.116H320.892V117.308Z" fill="white"/>
</g>
<path d="M236.24 120.2H93.0463C91.5791 120.2 90.3896 121.403 90.3896 122.886V124.53C90.3896 126.013 91.5791 127.216 93.0463 127.216H236.24C237.707 127.216 238.896 126.013 238.896 124.53V122.886C238.896 121.403 237.707 120.2 236.24 120.2Z" fill="#4A154B"/>
<path opacity="0.7" d="M236.24 120.2H93.0463C91.5791 120.2 90.3896 121.403 90.3896 122.886V124.53C90.3896 126.013 91.5791 127.216 93.0463 127.216H236.24C237.707 127.216 238.896 126.013 238.896 124.53V122.886C238.896 121.403 237.707 120.2 236.24 120.2Z" fill="white"/>
<path d="M234.323 121.019L235.187 122.79L237.121 123.076L235.722 124.451L236.052 126.397L234.323 125.484L232.593 126.397L232.923 124.451L231.524 123.076L233.458 122.79L234.323 121.019Z" fill="#E6CAF7"/>
<path d="M83.3864 120.033L79.5664 123.894H80.6825V127.382H86.0902V123.894H87.2063L83.3864 120.033Z" fill="#E6CAF7"/>
<path d="M223.122 166.845H225.236C225.675 166.837 226.11 166.926 226.51 167.107C226.865 167.28 227.161 167.557 227.359 167.902C227.569 168.248 227.675 168.648 227.665 169.054C227.674 169.462 227.568 169.865 227.359 170.214C227.154 170.542 226.859 170.802 226.51 170.961C226.111 171.149 225.676 171.241 225.236 171.231H223.122V166.845ZM225.181 170.023C225.385 170.018 225.582 169.953 225.75 169.837C225.918 169.721 226.049 169.558 226.127 169.368C226.205 169.178 226.227 168.969 226.191 168.767C226.154 168.564 226.06 168.377 225.92 168.228C225.718 168.045 225.452 167.951 225.181 167.966H224.568V170.023H225.181Z" fill="#E6CAF7"/>
<path d="M231.705 169.777H229.347C229.392 169.901 229.478 170.005 229.591 170.071C229.722 170.147 229.872 170.183 230.023 170.174C230.149 170.18 230.274 170.161 230.392 170.119C230.51 170.07 230.621 170.006 230.723 169.928L231.446 170.667C231.255 170.858 231.026 171.006 230.773 171.099C230.521 171.192 230.252 171.229 229.984 171.207C229.615 171.217 229.25 171.141 228.915 170.985C228.623 170.847 228.376 170.63 228.2 170.357C228.035 170.083 227.948 169.768 227.948 169.447C227.948 169.127 228.035 168.812 228.2 168.538C228.365 168.273 228.598 168.058 228.876 167.918C229.177 167.763 229.512 167.684 229.85 167.688C230.173 167.685 230.493 167.756 230.785 167.894C231.059 168.029 231.291 168.238 231.454 168.498C231.624 168.785 231.709 169.117 231.697 169.451C231.697 169.451 231.721 169.579 231.705 169.777ZM229.512 168.768C229.419 168.857 229.356 168.974 229.331 169.102H230.416C230.393 168.972 230.326 168.854 230.227 168.768C230.128 168.687 230.002 168.644 229.874 168.649C229.743 168.645 229.615 168.687 229.512 168.768Z" fill="#E6CAF7"/>
<path d="M232.161 166.543H233.545V171.152H232.161V166.543Z" fill="#E6CAF7"/>
<path d="M234.228 167.283C234.154 167.22 234.095 167.141 234.055 167.051C234.016 166.962 233.997 166.864 234 166.766C233.997 166.669 234.016 166.573 234.055 166.485C234.095 166.397 234.154 166.319 234.228 166.258C234.397 166.115 234.613 166.041 234.834 166.051C235.051 166.039 235.266 166.107 235.439 166.242C235.512 166.303 235.57 166.379 235.609 166.466C235.649 166.552 235.668 166.647 235.667 166.742C235.669 166.842 235.649 166.942 235.61 167.033C235.571 167.125 235.512 167.208 235.439 167.275C235.27 167.418 235.054 167.491 234.834 167.481C234.615 167.49 234.4 167.419 234.228 167.283ZM234.142 167.751H235.525V171.152H234.142V167.751Z" fill="#E6CAF7"/>
<path d="M239.903 167.751L238.551 171.151H237.112L235.8 167.751H237.222L237.898 169.57L238.622 167.751H239.903Z" fill="#E6CAF7"/>
<path d="M243.581 169.777H241.223C241.268 169.901 241.354 170.005 241.467 170.071C241.598 170.147 241.748 170.183 241.899 170.174C242.025 170.18 242.15 170.161 242.268 170.119C242.386 170.07 242.497 170.006 242.599 169.928L243.322 170.667C243.131 170.859 242.902 171.006 242.65 171.1C242.397 171.193 242.128 171.23 241.86 171.207C241.491 171.217 241.126 171.141 240.791 170.985C240.499 170.847 240.252 170.63 240.076 170.357C239.911 170.083 239.824 169.768 239.824 169.447C239.824 169.127 239.911 168.812 240.076 168.538C240.241 168.273 240.474 168.058 240.751 167.918C241.053 167.763 241.388 167.684 241.726 167.688C242.049 167.684 242.369 167.755 242.661 167.894C242.935 168.029 243.167 168.238 243.33 168.498C243.5 168.785 243.585 169.117 243.573 169.451C243.573 169.451 243.597 169.579 243.581 169.777ZM241.412 168.768C241.313 168.854 241.247 168.972 241.223 169.102H242.308C242.284 168.972 242.218 168.854 242.119 168.768C242.017 168.691 241.893 168.649 241.765 168.649C241.638 168.649 241.514 168.691 241.412 168.768Z" fill="#E6CAF7"/>
<path d="M246.442 167.687V168.935H246.136C246.038 168.921 245.939 168.931 245.845 168.963C245.752 168.995 245.667 169.049 245.598 169.12C245.528 169.191 245.476 169.277 245.446 169.372C245.415 169.466 245.406 169.567 245.42 169.666V171.175H244.037V167.775H245.358V168.14C245.493 167.987 245.661 167.867 245.849 167.789C246.037 167.71 246.239 167.676 246.442 167.687Z" fill="#E6CAF7"/>
<path d="M250.672 167.751L249.288 171.215C249.169 171.587 248.938 171.911 248.628 172.145C248.344 172.333 248.009 172.427 247.669 172.415C247.474 172.416 247.281 172.387 247.095 172.327C246.934 172.285 246.782 172.212 246.647 172.113L247.111 171.151C247.182 171.206 247.262 171.249 247.347 171.279C247.427 171.308 247.512 171.324 247.598 171.326C247.662 171.332 247.727 171.322 247.787 171.299C247.846 171.275 247.9 171.239 247.944 171.191L246.529 167.751H247.952L248.652 169.57L249.351 167.751H250.672Z" fill="#E6CAF7"/>
<path d="M255.701 170.389H254.066L253.775 171.183H252.306L254.184 166.837H255.607L257.485 171.183H255.984L255.701 170.389ZM255.3 169.34L254.884 168.244L254.467 169.34H255.3Z" fill="#E6CAF7"/>
<path d="M261.36 166.543V171.152H260.04V170.866C259.92 170.986 259.776 171.079 259.617 171.138C259.458 171.197 259.289 171.221 259.12 171.207C258.846 171.203 258.576 171.132 258.334 171.001C258.085 170.853 257.881 170.638 257.745 170.381C257.597 170.094 257.521 169.775 257.525 169.451C257.519 169.128 257.595 168.808 257.745 168.522C257.881 168.264 258.085 168.05 258.334 167.902C258.574 167.764 258.845 167.691 259.12 167.688C259.431 167.669 259.736 167.774 259.969 167.982V166.543H261.36ZM259.843 169.944C259.953 169.805 260.009 169.629 260.001 169.451C260.012 169.273 259.955 169.097 259.843 168.959C259.793 168.904 259.733 168.86 259.665 168.83C259.597 168.8 259.524 168.785 259.45 168.785C259.377 168.785 259.303 168.8 259.236 168.83C259.168 168.86 259.107 168.904 259.057 168.959C258.945 169.097 258.889 169.273 258.9 169.451C258.891 169.629 258.947 169.805 259.057 169.944C259.107 169.999 259.168 170.043 259.236 170.073C259.303 170.103 259.377 170.118 259.45 170.118C259.524 170.118 259.597 170.103 259.665 170.073C259.733 170.043 259.793 169.999 259.843 169.944Z" fill="#E6CAF7"/>
<path d="M265.668 166.543V171.152H264.348V170.866C264.228 170.986 264.084 171.079 263.925 171.138C263.766 171.197 263.596 171.221 263.428 171.207C263.153 171.203 262.884 171.132 262.642 171.001C262.393 170.853 262.189 170.638 262.052 170.381C261.904 170.094 261.829 169.775 261.832 169.451C261.827 169.128 261.902 168.808 262.052 168.522C262.189 168.264 262.393 168.05 262.642 167.902C262.882 167.764 263.152 167.691 263.428 167.688C263.738 167.669 264.043 167.774 264.277 167.982V166.543H265.668ZM264.151 169.944C264.258 169.803 264.311 169.628 264.3 169.451C264.314 169.274 264.26 169.098 264.151 168.959C264.103 168.902 264.042 168.856 263.974 168.826C263.906 168.796 263.832 168.781 263.758 168.784C263.684 168.781 263.61 168.795 263.541 168.825C263.473 168.856 263.413 168.901 263.365 168.959C263.253 169.097 263.197 169.273 263.208 169.451C263.199 169.629 263.255 169.805 263.365 169.944C263.413 170.001 263.473 170.047 263.541 170.077C263.61 170.108 263.684 170.122 263.758 170.119C263.836 170.125 263.915 170.112 263.987 170.082C264.06 170.052 264.124 170.004 264.175 169.944H264.151Z" fill="#E6CAF7"/>
<path d="M268.71 167.687V168.935H268.403C268.306 168.921 268.206 168.931 268.113 168.963C268.019 168.995 267.935 169.049 267.865 169.12C267.796 169.191 267.744 169.277 267.713 169.372C267.682 169.466 267.674 169.567 267.688 169.666V171.175H266.305V167.775H267.625V168.14C267.761 167.987 267.929 167.867 268.116 167.789C268.304 167.71 268.507 167.676 268.71 167.687Z" fill="#E6CAF7"/>
<path d="M272.632 169.777H270.274C270.316 169.902 270.403 170.007 270.517 170.071C270.649 170.147 270.799 170.183 270.95 170.174C271.075 170.178 271.2 170.16 271.319 170.119C271.437 170.07 271.548 170.006 271.649 169.928L272.372 170.667C272.18 170.858 271.949 171.005 271.696 171.098C271.442 171.192 271.172 171.229 270.903 171.207C270.534 171.216 270.169 171.14 269.834 170.985C269.544 170.847 269.299 170.629 269.126 170.357C268.954 170.088 268.866 169.772 268.875 169.451C268.865 169.132 268.948 168.818 269.113 168.545C269.278 168.273 269.517 168.055 269.802 167.918C270.104 167.763 270.438 167.684 270.777 167.688C271.097 167.685 271.414 167.756 271.704 167.894C271.98 168.026 272.212 168.235 272.372 168.498C272.546 168.785 272.633 169.116 272.624 169.451C272.624 169.451 272.64 169.579 272.632 169.777ZM270.455 168.768C270.356 168.853 270.291 168.972 270.274 169.102H271.351C271.33 168.973 271.266 168.855 271.17 168.768C271.068 168.686 270.939 168.643 270.808 168.649C270.68 168.644 270.555 168.687 270.455 168.768Z" fill="#E6CAF7"/>
<path d="M273.528 171.12C273.291 171.074 273.063 170.991 272.852 170.874L273.229 169.952C273.403 170.054 273.591 170.129 273.787 170.174C273.987 170.227 274.193 170.254 274.4 170.254C274.514 170.259 274.628 170.246 274.738 170.214C274.764 170.207 274.788 170.192 274.805 170.17C274.822 170.149 274.831 170.122 274.832 170.095C274.832 170.039 274.793 170 274.714 169.984C274.585 169.954 274.454 169.933 274.321 169.92C274.086 169.893 273.852 169.85 273.622 169.793C273.43 169.74 273.256 169.636 273.119 169.491C273.042 169.406 272.982 169.305 272.944 169.196C272.907 169.087 272.891 168.971 272.899 168.856C272.895 168.64 272.964 168.43 273.095 168.26C273.251 168.071 273.455 167.928 273.685 167.847C273.984 167.734 274.301 167.681 274.62 167.688C274.871 167.687 275.121 167.711 275.367 167.759C275.583 167.798 275.793 167.87 275.988 167.974L275.61 168.895C275.312 168.73 274.976 168.645 274.636 168.649C274.337 168.649 274.18 168.705 274.18 168.808C274.18 168.911 274.227 168.903 274.306 168.927L274.691 168.991C274.927 169.014 275.161 169.056 275.39 169.118C275.58 169.176 275.752 169.279 275.893 169.42C276.047 169.597 276.126 169.828 276.113 170.063C276.111 170.273 276.042 170.476 275.917 170.643C275.759 170.83 275.556 170.972 275.327 171.056C275.022 171.165 274.7 171.216 274.376 171.207C274.091 171.21 273.806 171.181 273.528 171.12Z" fill="#E6CAF7"/>
<path d="M277.018 171.12C276.781 171.072 276.554 170.989 276.342 170.873L276.727 169.952C276.899 170.052 277.084 170.127 277.277 170.174C277.48 170.228 277.689 170.254 277.898 170.254C278.012 170.258 278.126 170.245 278.236 170.214C278.262 170.207 278.286 170.192 278.303 170.17C278.32 170.149 278.33 170.122 278.33 170.095C278.33 170.039 278.291 170 278.205 169.984C278.078 169.954 277.949 169.933 277.819 169.92C277.584 169.893 277.35 169.851 277.12 169.793C276.926 169.74 276.75 169.636 276.609 169.491C276.459 169.315 276.383 169.087 276.397 168.855C276.393 168.64 276.463 168.43 276.593 168.26C276.744 168.069 276.946 167.926 277.175 167.846C277.474 167.735 277.791 167.681 278.11 167.688C278.361 167.687 278.611 167.711 278.857 167.759C279.076 167.798 279.288 167.87 279.486 167.974L279.101 168.895C278.805 168.729 278.472 168.644 278.134 168.649C277.827 168.649 277.678 168.704 277.678 168.808C277.678 168.911 277.717 168.903 277.796 168.927L278.189 168.991C278.423 169.013 278.654 169.056 278.881 169.118C279.072 169.172 279.245 169.276 279.384 169.42C279.461 169.506 279.521 169.608 279.559 169.719C279.597 169.829 279.612 169.946 279.604 170.063C279.605 170.273 279.536 170.478 279.407 170.643C279.251 170.832 279.047 170.974 278.818 171.056C278.513 171.165 278.19 171.217 277.867 171.207C277.581 171.209 277.297 171.18 277.018 171.12Z" fill="#E6CAF7"/>
<path d="M268.01 182.624H222.823V185.349H268.01V182.624Z" fill="#E6CAF7"/>
<path d="M258.759 187.002H222.823V189.727H258.759V187.002Z" fill="#E6CAF7"/>
<path d="M272.459 191.38H222.823V194.105H272.459V191.38Z" fill="#E6CAF7"/>
<path d="M264.497 195.757H222.823V198.482H264.497V195.757Z" fill="#E6CAF7"/>
<path d="M281.325 210.9H227.594C225.233 210.9 223.318 212.835 223.318 215.222V216.994C223.318 219.381 225.233 221.316 227.594 221.316H281.325C283.687 221.316 285.601 219.381 285.601 216.994V215.222C285.601 212.835 283.687 210.9 281.325 210.9Z" fill="#E6CAF7"/>
<path d="M232.813 214.253C232.977 214.331 233.123 214.443 233.241 214.582C233.359 214.721 233.447 214.883 233.499 215.059C233.551 215.234 233.566 215.419 233.542 215.6C233.519 215.782 233.458 215.956 233.363 216.112C233.226 216.314 233.035 216.474 232.813 216.573C232.549 216.683 232.265 216.737 231.98 216.732H231.477V217.59H230.298V214.094H231.964C232.255 214.087 232.544 214.141 232.813 214.253ZM232.263 215.715C232.303 215.676 232.334 215.629 232.354 215.577C232.375 215.525 232.384 215.469 232.381 215.413C232.384 215.357 232.376 215.301 232.355 215.249C232.335 215.197 232.303 215.15 232.263 215.111C232.16 215.031 232.031 214.991 231.901 215H231.477V215.795H231.87C232.006 215.821 232.147 215.792 232.263 215.715Z" fill="white"/>
<path d="M236.17 215.127C236.307 215.248 236.416 215.399 236.488 215.568C236.56 215.737 236.594 215.92 236.586 216.104V217.574H235.549V217.217C235.473 217.356 235.357 217.469 235.217 217.541C235.077 217.614 234.919 217.642 234.763 217.622C234.574 217.627 234.386 217.589 234.213 217.511C234.074 217.446 233.957 217.341 233.876 217.21C233.795 217.079 233.753 216.926 233.757 216.772C233.751 216.652 233.776 216.532 233.83 216.425C233.883 216.318 233.964 216.226 234.063 216.16C234.346 216 234.668 215.929 234.991 215.954H235.439C235.439 215.739 235.234 215.628 234.936 215.628C234.81 215.63 234.685 215.651 234.566 215.691C234.45 215.721 234.341 215.772 234.244 215.842L233.882 215.103C234.059 214.999 234.25 214.921 234.448 214.873C234.662 214.819 234.881 214.793 235.101 214.794C235.485 214.774 235.863 214.892 236.17 215.127ZM235.289 216.899C235.357 216.854 235.407 216.786 235.431 216.708V216.518H235.156C234.928 216.518 234.818 216.597 234.818 216.748C234.817 216.778 234.823 216.808 234.835 216.836C234.847 216.863 234.866 216.888 234.889 216.907C234.942 216.95 235.009 216.973 235.077 216.97C235.154 216.974 235.23 216.948 235.289 216.899Z" fill="white"/>
<path d="M239.989 214.857L238.881 217.646C238.779 217.943 238.593 218.203 238.346 218.393C238.113 218.546 237.838 218.621 237.56 218.607C237.406 218.606 237.253 218.584 237.104 218.544C236.973 218.508 236.85 218.446 236.743 218.361L237.112 217.567C237.17 217.61 237.233 217.645 237.301 217.67C237.366 217.694 237.435 217.707 237.505 217.71C237.556 217.712 237.607 217.704 237.655 217.684C237.702 217.665 237.745 217.636 237.78 217.598L236.648 214.833H237.788L238.346 216.295L238.92 214.833L239.989 214.857Z" fill="white"/>
<path d="M244.524 215.111C244.738 215.368 244.842 215.699 244.815 216.033V217.622H243.699V216.256C243.699 215.946 243.597 215.787 243.4 215.787C243.351 215.785 243.302 215.795 243.257 215.816C243.212 215.836 243.172 215.867 243.141 215.906C243.069 216.019 243.036 216.153 243.047 216.287V217.622H241.931V216.256C241.931 215.946 241.828 215.787 241.632 215.787C241.583 215.785 241.533 215.795 241.489 215.816C241.444 215.836 241.404 215.867 241.373 215.906C241.3 216.019 241.267 216.153 241.278 216.287V217.622H240.162V214.889H241.223V215.143C241.327 215.041 241.45 214.962 241.585 214.91C241.721 214.858 241.865 214.835 242.009 214.841C242.177 214.838 242.344 214.873 242.497 214.945C242.643 215.009 242.766 215.117 242.85 215.254C242.957 215.123 243.091 215.017 243.243 214.945C243.404 214.874 243.579 214.839 243.754 214.841C243.894 214.833 244.034 214.852 244.166 214.899C244.298 214.945 244.42 215.017 244.524 215.111Z" fill="white"/>
<path d="M248.211 216.486H246.332C246.368 216.586 246.438 216.671 246.529 216.724C246.635 216.781 246.754 216.808 246.875 216.804C246.976 216.808 247.078 216.791 247.173 216.756C247.27 216.721 247.36 216.67 247.441 216.605L248.022 217.201C247.868 217.355 247.683 217.473 247.48 217.549C247.276 217.624 247.059 217.654 246.843 217.638C246.545 217.643 246.25 217.581 245.979 217.455C245.744 217.346 245.548 217.169 245.413 216.947C245.274 216.732 245.202 216.48 245.208 216.224C245.204 215.967 245.272 215.714 245.404 215.495C245.536 215.275 245.727 215.098 245.955 214.984C246.199 214.863 246.469 214.803 246.741 214.81C246.998 214.808 247.253 214.863 247.488 214.968C247.705 215.079 247.89 215.246 248.022 215.453C248.167 215.692 248.238 215.968 248.227 216.248C248.227 216.248 248.219 216.327 248.211 216.486ZM246.458 215.691C246.381 215.762 246.331 215.857 246.317 215.962H247.181C247.164 215.859 247.111 215.766 247.032 215.699C246.952 215.634 246.852 215.6 246.749 215.604C246.648 215.594 246.546 215.616 246.458 215.668V215.691Z" fill="white"/>
<path d="M251.253 215.111C251.362 215.236 251.446 215.382 251.499 215.54C251.552 215.699 251.572 215.866 251.559 216.033V217.622H250.443V216.255C250.443 215.945 250.333 215.787 250.113 215.787C250.055 215.785 249.998 215.797 249.945 215.82C249.892 215.844 249.845 215.878 249.806 215.922C249.717 216.04 249.675 216.187 249.688 216.335V217.622H248.572V214.889H249.633V215.159C249.74 215.056 249.866 214.975 250.003 214.921C250.146 214.866 250.298 214.839 250.451 214.841C250.743 214.821 251.031 214.918 251.253 215.111Z" fill="white"/>
<path d="M254.035 217.495C253.82 217.6 253.582 217.649 253.343 217.638C253.028 217.658 252.718 217.559 252.471 217.36C252.368 217.257 252.287 217.133 252.234 216.996C252.181 216.859 252.158 216.712 252.164 216.565V215.866H251.795V215.072H252.164V214.277H253.28V215.072H253.878V215.866H253.32V216.55C253.316 216.621 253.338 216.692 253.383 216.748C253.405 216.772 253.432 216.79 253.462 216.803C253.491 216.815 253.523 216.821 253.556 216.82C253.645 216.819 253.733 216.791 253.807 216.74L254.035 217.495Z" fill="white"/>
<path d="M258.916 217.59V216.001L258.13 217.281H257.62L256.834 216.057V217.598H255.772V214.103H256.724L257.855 215.962L258.948 214.103H259.907V217.598L258.916 217.59Z" fill="white"/>
<path d="M263.365 216.486H261.494C261.53 216.586 261.599 216.671 261.691 216.724C261.796 216.782 261.916 216.81 262.036 216.804C262.138 216.808 262.239 216.792 262.335 216.756C262.429 216.721 262.517 216.67 262.594 216.605L263.184 217.201C263.028 217.355 262.842 217.474 262.637 217.55C262.433 217.625 262.214 217.655 261.997 217.638C261.701 217.643 261.409 217.581 261.14 217.455C260.904 217.346 260.704 217.169 260.567 216.947C260.467 216.784 260.402 216.601 260.375 216.411C260.349 216.221 260.362 216.028 260.414 215.843C260.466 215.659 260.555 215.487 260.676 215.339C260.797 215.191 260.947 215.071 261.117 214.985C261.361 214.862 261.631 214.802 261.903 214.81C262.16 214.807 262.415 214.861 262.649 214.969C262.871 215.077 263.059 215.244 263.192 215.453C263.334 215.693 263.402 215.969 263.388 216.248C263.388 216.248 263.38 216.327 263.365 216.486ZM261.62 215.692C261.541 215.762 261.488 215.857 261.47 215.962H262.343C262.326 215.859 262.273 215.766 262.194 215.7C262.111 215.634 262.008 215.601 261.903 215.604C261.804 215.595 261.705 215.618 261.62 215.668V215.692Z" fill="white"/>
<path d="M265.722 217.495C265.51 217.601 265.275 217.65 265.039 217.638C264.724 217.658 264.413 217.559 264.166 217.36C264.063 217.257 263.982 217.133 263.929 216.996C263.877 216.859 263.853 216.712 263.86 216.565V215.866H263.49V215.072H263.86V214.277H264.976V215.072H265.526V215.866H264.976V216.55C264.972 216.585 264.976 216.621 264.987 216.656C264.998 216.69 265.015 216.721 265.039 216.748C265.059 216.772 265.084 216.791 265.113 216.803C265.142 216.816 265.173 216.821 265.204 216.82C265.293 216.819 265.381 216.791 265.455 216.74L265.722 217.495Z" fill="white"/>
<path d="M268.686 215.111C268.796 215.236 268.88 215.382 268.933 215.541C268.985 215.699 269.006 215.866 268.993 216.033V217.622H267.877V216.255C267.877 215.946 267.767 215.787 267.546 215.787C267.489 215.786 267.431 215.797 267.379 215.82C267.326 215.844 267.278 215.878 267.24 215.922C267.151 216.04 267.109 216.187 267.122 216.335V217.622H266.006V213.88H267.122V215.08C267.343 214.893 267.621 214.791 267.908 214.791C268.195 214.791 268.473 214.893 268.694 215.08L268.686 215.111Z" fill="white"/>
<path d="M270.14 217.455C269.912 217.344 269.719 217.17 269.582 216.955C269.446 216.736 269.376 216.482 269.378 216.224C269.378 215.963 269.452 215.707 269.592 215.488C269.731 215.268 269.93 215.093 270.164 214.984C270.42 214.869 270.697 214.809 270.978 214.809C271.258 214.809 271.535 214.869 271.791 214.984C272.022 215.096 272.215 215.272 272.349 215.493C272.483 215.712 272.552 215.966 272.546 216.224C272.551 216.481 272.483 216.735 272.349 216.955C272.213 217.17 272.019 217.344 271.791 217.455C271.536 217.576 271.259 217.638 270.978 217.638C270.696 217.638 270.419 217.576 270.164 217.455H270.14ZM271.264 216.621C271.354 216.509 271.399 216.367 271.39 216.224C271.401 216.08 271.356 215.937 271.264 215.826C271.225 215.781 271.177 215.744 271.123 215.719C271.069 215.694 271.01 215.682 270.95 215.682C270.89 215.682 270.831 215.694 270.777 215.719C270.723 215.744 270.675 215.781 270.636 215.826C270.544 215.937 270.499 216.08 270.51 216.224C270.501 216.367 270.546 216.509 270.636 216.621C270.677 216.663 270.725 216.697 270.779 216.72C270.833 216.743 270.891 216.754 270.95 216.754C271.009 216.754 271.067 216.743 271.121 216.72C271.174 216.697 271.223 216.663 271.264 216.621Z" fill="white"/>
<path d="M275.886 213.88V217.59H274.825V217.36C274.729 217.459 274.612 217.536 274.483 217.584C274.354 217.632 274.216 217.65 274.078 217.638C273.849 217.641 273.624 217.581 273.426 217.463C273.226 217.347 273.063 217.176 272.954 216.97C272.832 216.741 272.77 216.484 272.774 216.224C272.769 215.963 272.831 215.706 272.954 215.477C273.065 215.27 273.227 215.097 273.426 214.976C273.626 214.865 273.85 214.807 274.078 214.809C274.33 214.792 274.578 214.875 274.77 215.04V213.88H275.886ZM274.668 216.621C274.752 216.507 274.794 216.366 274.786 216.224C274.795 216.081 274.753 215.94 274.668 215.826C274.628 215.78 274.579 215.743 274.523 215.718C274.467 215.693 274.407 215.681 274.346 215.683C274.286 215.683 274.227 215.695 274.173 215.72C274.119 215.744 274.07 215.781 274.031 215.826C273.943 215.939 273.899 216.08 273.906 216.224C273.9 216.367 273.945 216.507 274.031 216.621C274.072 216.664 274.12 216.699 274.174 216.722C274.229 216.745 274.287 216.757 274.346 216.756C274.459 216.752 274.566 216.704 274.644 216.621H274.668Z" fill="white"/>
<path d="M217.824 150.987H140.427V154.975H217.824V150.987Z" fill="#E6CAF7"/>
<path d="M157.412 156.533H140.427V160.521H157.412V156.533Z" fill="#E6CAF7"/>
<path d="M163.763 162.086H140.427V166.075H163.763V162.086Z" fill="#E6CAF7"/>
<path d="M159.699 167.64H140.67V171.628H159.699V167.64Z" fill="#E6CAF7"/>
<path d="M133.274 150.987H118.961C117.272 150.987 115.903 152.371 115.903 154.077V168.545C115.903 170.252 117.272 171.636 118.961 171.636H133.274C134.963 171.636 136.331 170.252 136.331 168.545V154.077C136.331 152.371 134.963 150.987 133.274 150.987Z" fill="#E6CAF7"/>
<path opacity="0.2" d="M129.737 156.843H122.49C122.052 156.843 121.696 157.202 121.696 157.645V164.971C121.696 165.414 122.052 165.773 122.49 165.773H129.737C130.176 165.773 130.531 165.414 130.531 164.971V157.645C130.531 157.202 130.176 156.843 129.737 156.843Z" fill="white"/>
<path opacity="0.2" d="M128.762 157.693H125.783C125.406 157.693 125.1 158.002 125.1 158.384V161.395C125.1 161.777 125.406 162.086 125.783 162.086H128.762C129.14 162.086 129.446 161.777 129.446 161.395V158.384C129.446 158.002 129.14 157.693 128.762 157.693Z" fill="white"/>
<path d="M105.395 156.533H97.9277V164.08H105.395V156.533Z" fill="#E6CAF7"/>
<path d="M98.7061 160.863L100.813 163.27L105.025 157.335L100.522 161.753L98.7061 160.863Z" fill="white"/>
<path d="M217.824 182.235H140.427V186.223H217.824V182.235Z" fill="#E6CAF7"/>
<path d="M157.412 187.789H140.427V191.777H157.412V187.789Z" fill="#E6CAF7"/>
<path d="M163.763 193.342H140.427V197.331H163.763V193.342Z" fill="#E6CAF7"/>
<path d="M159.699 198.888H140.67V202.876H159.699V198.888Z" fill="#E6CAF7"/>
<path d="M133.274 182.235H118.961C117.272 182.235 115.903 183.619 115.903 185.325V199.793C115.903 201.5 117.272 202.884 118.961 202.884H133.274C134.963 202.884 136.331 201.5 136.331 199.793V185.325C136.331 183.619 134.963 182.235 133.274 182.235Z" fill="#E6CAF7"/>
<path opacity="0.2" d="M129.737 188.09H122.49C122.052 188.09 121.696 188.45 121.696 188.893V196.218C121.696 196.661 122.052 197.021 122.49 197.021H129.737C130.176 197.021 130.531 196.661 130.531 196.218V188.893C130.531 188.45 130.176 188.09 129.737 188.09Z" fill="white"/>
<path opacity="0.2" d="M128.762 188.949H125.783C125.406 188.949 125.1 189.258 125.1 189.64V192.651C125.1 193.033 125.406 193.342 125.783 193.342H128.762C129.14 193.342 129.446 193.033 129.446 192.651V189.64C129.446 189.258 129.14 188.949 128.762 188.949Z" fill="white"/>
<path d="M105.395 187.789H97.9277V195.336H105.395V187.789Z" fill="#E6CAF7"/>
<path d="M98.7061 192.118L100.813 194.526L105.025 188.591L100.522 193L98.7061 192.118Z" fill="white"/>
<path d="M217.824 213.491H140.427V217.479H217.824V213.491Z" fill="#E6CAF7"/>
<path d="M157.412 219.036H140.427V223.025H157.412V219.036Z" fill="#E6CAF7"/>
<path d="M163.763 224.59H140.427V228.578H163.763V224.59Z" fill="#E6CAF7"/>
<path d="M159.699 230.144H140.67V234.132H159.699V230.144Z" fill="#E6CAF7"/>
<path d="M133.274 213.491H118.961C117.272 213.491 115.903 214.874 115.903 216.581V231.049C115.903 232.756 117.272 234.14 118.961 234.14H133.274C134.963 234.14 136.331 232.756 136.331 231.049V216.581C136.331 214.874 134.963 213.491 133.274 213.491Z" fill="#E6CAF7"/>
<path opacity="0.2" d="M129.737 219.346H122.49C122.052 219.346 121.696 219.705 121.696 220.149V227.474C121.696 227.917 122.052 228.276 122.49 228.276H129.737C130.176 228.276 130.531 227.917 130.531 227.474V220.149C130.531 219.705 130.176 219.346 129.737 219.346Z" fill="white"/>
<path opacity="0.2" d="M128.762 220.196H125.783C125.406 220.196 125.1 220.506 125.1 220.888V223.899C125.1 224.28 125.406 224.59 125.783 224.59H128.762C129.14 224.59 129.446 224.28 129.446 223.899V220.888C129.446 220.506 129.14 220.196 128.762 220.196Z" fill="white"/>
<path d="M105.395 219.036H97.9277V226.584H105.395V219.036Z" fill="#E6CAF7"/>
<path d="M98.7061 223.366L100.813 225.774L105.025 219.839L100.522 224.256L98.7061 223.366Z" fill="white"/>
<g opacity="0.2">
<path d="M209.555 26.4565H125.579V152.981H209.555V26.4565Z" fill="#111827"/>
</g>
<path d="M203.669 19.7432H119.692V146.268H203.669V19.7432Z" fill="#E6CAF7"/>
<g opacity="0.5">
<path d="M203.669 19.7432H119.692V146.268H203.669V19.7432Z" fill="white"/>
</g>
<path d="M203.677 19.7432H119.685V28.2126H203.677V19.7432Z" fill="#E6CAF7"/>
<path d="M200.964 23.938C200.971 24.4374 200.83 24.9274 200.56 25.3458C200.29 25.7641 199.903 26.0919 199.448 26.2874C198.994 26.4829 198.492 26.5373 198.006 26.4437C197.521 26.3502 197.074 26.1128 196.722 25.7619C196.371 25.411 196.13 24.9623 196.032 24.4729C195.933 23.9835 195.98 23.4755 196.168 23.0134C196.356 22.5514 196.675 22.1561 197.085 21.8779C197.496 21.5998 197.979 21.4512 198.473 21.4512C199.128 21.4511 199.757 21.7121 200.224 22.1776C200.69 22.643 200.956 23.2755 200.964 23.938Z" fill="white"/>
<path d="M188.845 137.203H135.444C134.258 137.204 133.082 136.968 131.986 136.51C130.889 136.052 129.893 135.379 129.053 134.532C128.214 133.684 127.548 132.677 127.093 131.569C126.639 130.461 126.405 129.273 126.405 128.074C126.405 126.874 126.639 125.686 127.093 124.578C127.548 123.47 128.214 122.464 129.053 121.616C129.893 120.768 130.889 120.096 131.986 119.637C133.082 119.179 134.258 118.944 135.444 118.945H188.845C190.032 118.944 191.207 119.179 192.304 119.637C193.4 120.096 194.397 120.768 195.236 121.616C196.076 122.464 196.742 123.47 197.196 124.578C197.65 125.686 197.884 126.874 197.884 128.074C197.884 129.273 197.65 130.461 197.196 131.569C196.742 132.677 196.076 133.684 195.236 134.532C194.397 135.379 193.4 136.052 192.304 136.51C191.207 136.968 190.032 137.204 188.845 137.203Z" fill="#E6CAF7"/>
<path d="M133.683 131.26C133.091 130.954 132.595 130.486 132.253 129.909C131.912 129.314 131.733 128.638 131.733 127.951C131.733 127.263 131.912 126.587 132.253 125.992C132.593 125.416 133.089 124.95 133.683 124.649C134.314 124.319 135.016 124.152 135.727 124.165C136.367 124.154 137.002 124.281 137.589 124.538C138.124 124.773 138.589 125.142 138.941 125.611L137.417 126.993C137.24 126.735 137.006 126.524 136.732 126.376C136.459 126.228 136.155 126.148 135.845 126.143C135.618 126.132 135.392 126.17 135.182 126.255C134.972 126.34 134.782 126.47 134.626 126.636C134.305 126.996 134.139 127.47 134.163 127.954C134.141 128.438 134.308 128.912 134.626 129.273C134.783 129.438 134.973 129.566 135.183 129.65C135.393 129.734 135.619 129.77 135.845 129.758C136.154 129.753 136.457 129.674 136.731 129.528C137.004 129.382 137.239 129.172 137.417 128.916L138.941 130.29C138.589 130.759 138.124 131.128 137.589 131.363C136.965 131.629 136.291 131.758 135.613 131.74C134.936 131.722 134.27 131.559 133.659 131.26H133.683Z" fill="#4A154B"/>
<path d="M146.699 124.332V131.569H144.286V128.9H142.054V131.569H139.633V124.332H142.054V126.898H144.286V124.332H146.699Z" fill="#4A154B"/>
<path d="M153.82 129.734V131.569H147.862V124.332H153.687V126.175H150.236V127.017H153.27V128.781H150.236V129.734H153.82Z" fill="#4A154B"/>
<path d="M156.414 131.26C155.826 130.951 155.333 130.483 154.992 129.909C154.652 129.313 154.473 128.638 154.473 127.95C154.473 127.263 154.652 126.587 154.992 125.992C155.331 125.418 155.825 124.952 156.414 124.649C157.049 124.32 157.753 124.153 158.466 124.165C159.106 124.155 159.741 124.283 160.329 124.538C160.862 124.775 161.327 125.144 161.681 125.611L160.156 126.993C159.98 126.735 159.745 126.524 159.472 126.376C159.198 126.228 158.894 126.148 158.584 126.143C158.359 126.133 158.134 126.171 157.926 126.256C157.717 126.341 157.528 126.471 157.373 126.636C157.213 126.813 157.089 127.021 157.009 127.247C156.929 127.474 156.896 127.714 156.91 127.954C156.897 128.194 156.932 128.434 157.012 128.66C157.091 128.887 157.214 129.095 157.373 129.273C157.529 129.437 157.718 129.565 157.927 129.648C158.135 129.732 158.36 129.769 158.584 129.758C158.893 129.752 159.196 129.673 159.47 129.527C159.743 129.381 159.978 129.171 160.156 128.916L161.681 130.29C161.327 130.757 160.862 131.126 160.329 131.363C159.704 131.628 159.03 131.756 158.353 131.738C157.675 131.72 157.009 131.557 156.399 131.26H156.414Z" fill="#4A154B"/>
<path d="M165.28 129.17L164.738 129.782V131.569H162.38V124.332H164.738V126.961L167.096 124.332H169.721L166.86 127.51L169.87 131.562H167.072L165.28 129.17Z" fill="#4A154B"/>
<path d="M171.616 131.252C171.171 131.011 170.78 130.682 170.465 130.284C170.151 129.886 169.919 129.428 169.784 128.937C169.65 128.446 169.615 127.933 169.683 127.428C169.75 126.923 169.919 126.437 170.177 126C170.525 125.425 171.022 124.958 171.616 124.649C172.262 124.328 172.974 124.161 173.694 124.161C174.415 124.161 175.126 124.328 175.773 124.649C176.367 124.96 176.867 125.426 177.22 126C177.486 126.436 177.66 126.922 177.732 127.429C177.803 127.936 177.769 128.452 177.634 128.946C177.498 129.439 177.262 129.899 176.942 130.295C176.622 130.692 176.224 131.018 175.773 131.252C175.126 131.573 174.415 131.74 173.694 131.74C172.974 131.74 172.262 131.573 171.616 131.252ZM174.492 129.504C174.74 129.353 174.941 129.135 175.074 128.876C175.221 128.581 175.294 128.253 175.286 127.923C175.294 127.59 175.221 127.259 175.074 126.961C174.941 126.702 174.74 126.485 174.492 126.334C174.309 126.223 174.104 126.15 173.892 126.122C173.68 126.093 173.464 126.109 173.258 126.168C173.052 126.227 172.86 126.327 172.694 126.464C172.527 126.6 172.391 126.77 172.291 126.961C172.138 127.257 172.062 127.588 172.071 127.923C172.062 128.254 172.138 128.583 172.291 128.876C172.391 129.068 172.527 129.237 172.694 129.374C172.86 129.51 173.052 129.611 173.258 129.67C173.464 129.728 173.68 129.744 173.892 129.716C174.104 129.687 174.309 129.615 174.492 129.504Z" fill="#4A154B"/>
<path d="M179.475 130.838C179.158 130.504 178.913 130.107 178.755 129.672C178.597 129.237 178.529 128.774 178.556 128.312V124.339H180.969V128.248C180.935 128.656 181.034 129.063 181.251 129.408C181.347 129.524 181.468 129.616 181.604 129.678C181.74 129.74 181.888 129.77 182.037 129.766C182.187 129.771 182.335 129.742 182.472 129.68C182.608 129.618 182.728 129.525 182.823 129.408C183.041 129.063 183.14 128.656 183.106 128.248V124.339H185.464V128.312C185.491 128.774 185.423 129.237 185.265 129.672C185.107 130.107 184.862 130.504 184.545 130.838C183.811 131.42 182.906 131.735 181.975 131.735C181.043 131.735 180.138 131.42 179.404 130.838H179.475Z" fill="#4A154B"/>
<path d="M188.098 126.222H185.999V124.332H192.609V126.222H190.511V131.569H188.098V126.222Z" fill="#4A154B"/>
<path d="M136.993 53.2313H133.849V50.3711H143.839V53.2313H140.695V61.3193H137.04L136.993 53.2313Z" fill="#4A154B"/>
<path d="M145.748 60.9064C145.026 60.5532 144.416 60.0027 143.988 59.3174C143.571 58.627 143.351 57.834 143.351 57.0253C143.351 56.2166 143.571 55.4235 143.988 54.7331C144.414 54.0459 145.025 53.4949 145.748 53.1441C146.543 52.7725 147.408 52.5801 148.283 52.5801C149.159 52.5801 150.023 52.7725 150.818 53.1441C151.351 53.4135 151.822 53.7916 152.203 54.2546C152.584 54.7177 152.866 55.2555 153.031 55.8342C153.195 56.4129 153.239 57.0198 153.16 57.6166C153.081 58.2134 152.88 58.7871 152.571 59.3015C152.147 59.9882 151.539 60.5393 150.818 60.8905C150.025 61.2674 149.159 61.4628 148.283 61.4628C147.407 61.4628 146.541 61.2674 145.748 60.8905V60.9064ZM149.27 58.2846C149.542 57.9289 149.678 57.4862 149.655 57.0372C149.681 56.5927 149.544 56.1541 149.27 55.8057C149.142 55.6679 148.988 55.5579 148.817 55.4828C148.646 55.4076 148.462 55.3688 148.275 55.3688C148.089 55.3688 147.904 55.4076 147.733 55.4828C147.562 55.5579 147.408 55.6679 147.281 55.8057C147.007 56.1541 146.869 56.5927 146.896 57.0372C146.872 57.4862 147.009 57.9289 147.281 58.2846C147.407 58.4246 147.56 58.5364 147.732 58.6129C147.903 58.6895 148.088 58.729 148.275 58.729C148.462 58.729 148.648 58.6895 148.819 58.6129C148.99 58.5364 149.144 58.4246 149.27 58.2846Z" fill="#4A154B"/>
<path d="M160.533 61.0252C159.865 61.3593 159.123 61.5152 158.379 61.4781C157.392 61.5478 156.415 61.2385 155.644 60.6121C155.305 60.2733 155.044 59.8638 154.878 59.4123C154.713 58.9608 154.647 58.4782 154.685 57.9982V55.8133H153.521V53.2312H154.685V50.8477H158.182V53.2312H159.912V55.8133H158.182V57.9982C158.167 58.2201 158.237 58.4395 158.379 58.61C158.447 58.682 158.528 58.739 158.619 58.7773C158.71 58.8156 158.807 58.8343 158.906 58.8324C159.186 58.8362 159.46 58.753 159.692 58.5941L160.533 61.0252Z" fill="#4A154B"/>
<path d="M168.613 53.6206C169.024 54.0176 169.342 54.5027 169.544 55.0403C169.745 55.5779 169.824 56.1543 169.776 56.7271V61.3273H166.53V60.1991C166.312 60.6287 165.969 60.9811 165.548 61.2095C165.127 61.438 164.647 61.5317 164.172 61.4782C163.582 61.4983 162.995 61.3786 162.459 61.1286C162.02 60.9191 161.65 60.5886 161.39 60.1752C161.146 59.7682 161.021 59.3002 161.028 58.8246C161.009 58.4465 161.088 58.0699 161.256 57.7316C161.424 57.3933 161.676 57.1047 161.987 56.8939C162.874 56.3971 163.884 56.1708 164.895 56.2424H166.302C166.192 55.5751 165.658 55.2414 164.73 55.2414C164.336 55.2416 163.944 55.3005 163.567 55.4162C163.206 55.5202 162.865 55.6868 162.561 55.9087L161.445 53.5809C161.992 53.2532 162.586 53.012 163.205 52.8658C163.877 52.6992 164.565 52.6138 165.257 52.6116C166.458 52.5378 167.647 52.8951 168.613 53.6206ZM165.854 59.1821C166.062 59.0332 166.215 58.8177 166.286 58.5703V57.9745H165.422C164.714 57.9745 164.353 58.2208 164.353 58.6975C164.351 58.7917 164.371 58.885 164.411 58.9704C164.45 59.0557 164.508 59.1309 164.581 59.19C164.755 59.3281 164.973 59.3986 165.194 59.3887C165.43 59.3791 165.658 59.2959 165.846 59.1503L165.854 59.1821Z" fill="#4A154B"/>
<path d="M171.301 49.7197H174.798V61.3274H171.301V49.7197Z" fill="#4A154B"/>
<path d="M154.504 77.5752H129.902V80.3083H154.504V77.5752Z" fill="#4A154B"/>
<path d="M147.768 70.8535H129.902V73.5866H147.768V70.8535Z" fill="#4A154B"/>
<path d="M159.134 84.8687H129.902V87.6017H159.134V84.8687Z" fill="#4A154B"/>
<path d="M192.091 84.8687H178.556V87.6017H192.091V84.8687Z" fill="#4A154B"/>
<path d="M150.653 95.896H129.902V98.6291H150.653V95.896Z" fill="#4A154B"/>
<path d="M76.9578 109.705C74.4426 109.705 72.0296 112.001 70.5519 116.268C69.0743 120.534 70.1354 126.731 70.3397 129.655C70.5441 132.579 69.0664 136.806 69.0664 136.806C72.4855 133.985 74.8121 130.45 75.2051 125.579C75.5612 127.531 75.4425 129.54 74.8592 131.435C76.8868 129.637 78.481 127.395 79.5202 124.88C81.4066 120.51 81.1944 114.305 81.1944 114.305C81.1944 114.305 79.4809 109.705 76.9578 109.705Z" fill="#4A154B"/>
<path d="M75.1422 114.901C75.0401 117.134 75.9282 121.257 81.3516 117.563C86.775 113.868 80.4084 111.644 77.8068 112.168C77.1197 112.245 76.4798 112.559 75.9946 113.056C75.5094 113.554 75.2084 114.206 75.1422 114.901Z" fill="#E6CAF7"/>
<path d="M77.7514 115.131C77.0598 119.7 79.2213 123.871 80.5339 129.337C81.8465 134.803 80.7382 136.011 80.7382 136.011C80.7382 136.011 92.2453 134.183 98.2346 123.442C104.224 112.7 93.4164 105.629 86.759 107.726C83.4814 106.066 78.4353 110.682 77.7514 115.131Z" fill="#4A154B"/>
<path d="M105.709 141.342C105.772 141.954 105.867 142.7 105.953 143.392C106.04 144.083 106.157 144.806 106.267 145.505C106.503 146.919 106.763 148.325 107.053 149.724C107.344 151.122 107.698 152.497 108.067 153.863C108.437 155.23 108.853 156.572 109.372 157.875L109.553 158.36L109.647 158.606L109.718 158.781C109.762 158.899 109.815 159.013 109.875 159.123C109.929 159.249 109.992 159.371 110.064 159.488C110.373 160.04 110.717 160.57 111.094 161.077C111.943 162.172 112.854 163.217 113.821 164.208C115.794 166.257 117.963 168.268 120.109 170.198L118.403 172.78C115.678 171.349 113.084 169.673 110.653 167.775C109.39 166.789 108.2 165.711 107.093 164.549C106.49 163.917 105.936 163.24 105.434 162.523C105.296 162.331 105.168 162.132 105.049 161.927C104.916 161.72 104.795 161.505 104.688 161.284L104.515 160.95L104.389 160.68L104.137 160.132C102.83 157.252 101.793 154.254 101.041 151.178C100.663 149.652 100.333 148.119 100.082 146.578C99.9559 145.783 99.838 145.028 99.7358 144.242C99.6336 143.455 99.5629 142.708 99.5 141.858L105.709 141.342Z" fill="#FFB573"/>
<path d="M103.564 135.486C105.654 136.019 107.116 144.719 107.116 144.719L101.355 148.691C101.355 148.691 95.853 139.952 97.425 137.568C98.997 135.185 100.514 134.7 103.564 135.486Z" fill="#E6CAF7"/>
<g opacity="0.5">
<path d="M103.564 135.486C105.654 136.019 107.116 144.719 107.116 144.719L101.355 148.691C101.355 148.691 95.853 139.952 97.425 137.568C98.997 135.185 100.514 134.7 103.564 135.486Z" fill="white"/>
</g>
<path opacity="0.2" d="M103.375 137.449L104.947 146.188L104.161 146.752V147.301C104.049 150.606 103.649 153.894 102.966 157.129L101.654 153.593L100.49 148.993L101.779 148.405L103.375 137.449Z" fill="#111827"/>
<path d="M121.099 170.293L125.029 171.835L120.612 174.528C120.612 174.528 117.79 172.876 117.861 170.746L118.293 170.5C118.717 170.258 119.188 170.114 119.673 170.079C120.158 170.043 120.645 170.116 121.099 170.293Z" fill="#FFB573"/>
<path d="M127.442 174.751L124.117 177.547L120.596 174.528L125.013 171.835L127.442 174.751Z" fill="#FFB573"/>
<path d="M103.563 135.486C103.563 135.486 105.976 136.344 101.134 166.424H80.5412C80.887 157.947 80.9578 152.719 76.957 135.328C79.8077 134.731 82.6972 134.343 85.603 134.168C88.7169 133.945 91.8425 133.945 94.9564 134.168C99.0358 134.541 103.563 135.486 103.563 135.486Z" fill="#E6CAF7"/>
<g opacity="0.4">
<path d="M103.563 135.486C103.563 135.486 105.976 136.344 101.134 166.424H80.5412C80.887 157.947 80.9578 152.719 76.957 135.328C79.8077 134.731 82.6972 134.343 85.603 134.168C88.7169 133.945 91.8425 133.945 94.9564 134.168C99.0358 134.541 103.563 135.486 103.563 135.486Z" fill="white"/>
</g>
<path opacity="0.2" d="M79.2291 146.014L81.147 146.578L81.8072 145.164C81.8072 145.164 92.4968 148.898 97.1499 147.102C100.152 145.942 101.214 144.775 101.214 144.775L78.6396 143.098L79.2291 146.014Z" fill="#111827"/>
<path d="M87.2695 281.818H92.3471L94.4221 269.948H89.3524L87.2695 281.818Z" fill="#FFB573"/>
<path d="M92.7479 281.254H87.0494C86.9507 281.251 86.8543 281.285 86.7789 281.35C86.7034 281.414 86.6542 281.505 86.6407 281.604L85.9962 286.156C85.9791 286.27 85.9867 286.386 86.0185 286.497C86.0502 286.608 86.1054 286.71 86.1802 286.797C86.255 286.884 86.3475 286.953 86.4515 287C86.5554 287.047 86.6683 287.071 86.7822 287.07C88.7708 287.07 89.7297 286.919 92.2292 286.919C93.8012 286.919 98.2028 287.078 100.333 287.078C102.463 287.078 102.573 284.956 101.685 284.758C97.7076 283.9 94.9094 282.708 93.5654 281.58C93.337 281.381 93.049 281.266 92.7479 281.254Z" fill="#4A154B"/>
<g opacity="0.2">
<path d="M94.4219 269.956L93.353 276.074H88.2754L89.3444 269.956H94.4219Z" fill="#111827"/>
</g>
<path d="M85.6744 134.175C88.7854 133.945 91.909 133.945 95.02 134.175L95.6331 134.231C96.4191 135.661 96.5684 137.862 94.7763 141.088C94.7763 141.088 86.5783 137.751 84.4404 134.255C84.8177 134.223 85.2264 134.191 85.6744 134.175Z" fill="#FFB573"/>
<path d="M101.135 166.424C101.135 166.424 105.136 205.911 104.806 221.547C104.46 237.802 94.4541 274.898 94.4541 274.898H87.6001C87.6001 274.898 92.7956 238.764 92.1904 222.794C91.5301 205.387 86.0596 166.432 86.0596 166.432L101.135 166.424Z" fill="#4A154B"/>
<path opacity="0.3" d="M101.135 166.424C101.135 166.424 105.136 205.911 104.806 221.547C104.46 237.802 94.4541 274.898 94.4541 274.898H87.6001C87.6001 274.898 92.7956 238.764 92.1904 222.794C91.5301 205.387 86.0596 166.432 86.0596 166.432L101.135 166.424Z" fill="#4A154B"/>
<path d="M87.0022 275.136H95.0509L95.6404 272.546L86.6328 272.229L87.0022 275.136Z" fill="#4A154B"/>
<path opacity="0.2" d="M92.2525 176.245C97.3144 186.533 93.2665 205.3 91.4665 212.283C90.5469 201.796 88.9985 188.981 87.7959 179.566C88.574 174.242 89.9181 171.509 92.2525 176.245Z" fill="#111827"/>
<path d="M43.0811 235.975L44.7945 240.798L56.4745 238.573L54.7689 233.743L43.0811 235.975Z" fill="#FFB573"/>
<path d="M46.1698 240.957L45.7689 235.213C45.7648 235.108 45.7249 235.008 45.6561 234.93C45.5874 234.852 45.4939 234.8 45.3917 234.784L40.8093 233.854C40.6984 233.83 40.5834 233.834 40.474 233.864C40.3646 233.894 40.2641 233.951 40.1809 234.029C40.0977 234.107 40.0342 234.204 39.9958 234.312C39.9574 234.419 39.9453 234.535 39.9604 234.649C40.1333 236.659 40.322 237.628 40.4949 240.155C40.6049 241.744 40.7464 246.161 40.8957 248.314C41.0451 250.467 43.1751 250.698 43.3009 249.816C43.8904 245.843 44.8729 243.102 45.9183 241.823C46.1104 241.578 46.2007 241.268 46.1698 240.957Z" fill="#4A154B"/>
<g opacity="0.2">
<path d="M56.4745 238.565L50.4537 239.717L48.7402 234.895L54.761 233.743L56.4745 238.565Z" fill="#111827"/>
</g>
<path d="M95.444 166.424C95.444 166.424 89.8162 207.174 86.012 222.508C82.082 238.454 52.4655 239.813 52.4655 239.813L49.4473 233.584C49.4473 233.584 66.7393 228.944 74.167 218.448C77.3974 201.271 80.3606 166.424 80.3606 166.424H95.444Z" fill="#4A154B"/>
<path opacity="0.3" d="M95.444 166.424C95.444 166.424 89.8162 207.174 86.012 222.508C82.082 238.454 52.4655 239.813 52.4655 239.813L49.4473 233.584C49.4473 233.584 66.7393 228.944 74.167 218.448C77.3974 201.271 80.3606 166.424 80.3606 166.424H95.444Z" fill="#4A154B"/>
<path d="M49.1016 233.004L51.7425 240.687L54.4699 240.718L51.8211 232.05L49.1016 233.004Z" fill="#4A154B"/>
<path d="M45.4078 242.824C45.4077 243.274 45.5479 243.713 45.8086 244.079C45.8855 244.163 45.9793 244.229 46.0838 244.273C46.1882 244.317 46.3008 244.337 46.4139 244.333C46.4765 244.334 46.5382 244.317 46.5922 244.285C46.6462 244.253 46.6905 244.206 46.7204 244.15C47.0191 243.539 45.8401 241.441 45.7065 241.203C45.6938 241.181 45.6754 241.162 45.6533 241.15C45.6312 241.137 45.6061 241.131 45.5807 241.131C45.5565 241.133 45.5334 241.142 45.515 241.158C45.4965 241.173 45.4837 241.195 45.4785 241.219C45.4087 241.751 45.385 242.288 45.4078 242.824ZM46.5318 243.793C46.5546 243.865 46.5546 243.943 46.5318 244.015C46.5206 244.039 46.5025 244.058 46.48 244.071C46.4575 244.084 46.4317 244.09 46.406 244.087C46.3329 244.092 46.2596 244.08 46.1915 244.053C46.1235 244.025 46.0625 243.983 46.013 243.928C45.6494 243.222 45.5437 242.409 45.7143 241.632C46.0983 242.304 46.3743 243.033 46.5318 243.793Z" fill="#E6CAF7"/>
<path d="M45.4786 241.243C45.4776 241.261 45.4776 241.28 45.4786 241.298C45.8009 241.918 46.9799 243.197 47.5537 243.134C47.6873 243.134 47.8523 243.03 47.8602 242.697C47.8692 242.444 47.7787 242.199 47.6087 242.014C47.0335 241.529 46.332 241.223 45.5887 241.132C45.5732 241.131 45.5576 241.133 45.5429 241.138C45.5282 241.143 45.5146 241.151 45.5029 241.161C45.4912 241.171 45.4817 241.184 45.4748 241.198C45.4679 241.212 45.4639 241.227 45.4629 241.243H45.4786ZM47.6322 242.586C47.6361 242.609 47.6361 242.633 47.6322 242.657C47.6322 242.88 47.5379 242.887 47.5065 242.895C47.1606 242.895 46.241 242.061 45.8244 241.418C46.4215 241.507 46.9821 241.763 47.4436 242.157C47.5515 242.275 47.6178 242.425 47.6322 242.586Z" fill="#E6CAF7"/>
<path d="M94.6429 282.128C95.0756 282.168 95.5087 282.055 95.869 281.81C95.9513 281.737 96.0144 281.644 96.0528 281.54C96.0912 281.436 96.1037 281.324 96.0891 281.214C96.0847 281.148 96.0635 281.084 96.0278 281.028C95.992 280.973 95.9428 280.927 95.8848 280.896C95.2638 280.547 93.2438 281.595 93.0159 281.691C92.9933 281.702 92.9749 281.721 92.9636 281.744C92.9523 281.767 92.9486 281.793 92.953 281.818C92.9562 281.842 92.9672 281.864 92.9842 281.882C93.0013 281.899 93.0234 281.91 93.0473 281.913C93.5713 282.035 94.1055 282.107 94.6429 282.128ZM95.5468 281.063C95.623 281.059 95.6989 281.076 95.7669 281.111C95.7924 281.12 95.8141 281.137 95.8284 281.16C95.8427 281.183 95.8487 281.211 95.8455 281.238C95.8581 281.309 95.8524 281.382 95.829 281.45C95.8056 281.518 95.7652 281.579 95.7118 281.627C95.4053 281.905 94.5721 281.953 93.4482 281.77C94.1019 281.413 94.812 281.174 95.5468 281.063Z" fill="#E6CAF7"/>
<path d="M93.0708 281.945H93.1179C93.7232 281.675 94.9179 280.571 94.8235 279.983C94.8235 279.848 94.7056 279.681 94.3755 279.641C94.2555 279.628 94.1342 279.641 94.0192 279.678C93.9042 279.715 93.7981 279.775 93.7074 279.856C93.242 280.41 92.9663 281.101 92.9214 281.826C92.9167 281.847 92.9187 281.869 92.9272 281.889C92.9357 281.909 92.9502 281.926 92.9686 281.937C92.9841 281.946 93.0012 281.951 93.0188 281.952C93.0364 281.954 93.0541 281.951 93.0708 281.945ZM94.2734 279.864H94.352C94.572 279.864 94.5799 279.975 94.5877 279.999C94.6428 280.348 93.8017 281.222 93.2122 281.588C93.2602 281.002 93.4883 280.446 93.8646 279.999C93.9812 279.907 94.1257 279.859 94.2734 279.864Z" fill="#E6CAF7"/>
<path d="M86.5622 123.529C87.1517 126.564 87.7412 132.142 85.6348 134.168C85.6348 134.168 86.4208 137.258 92.0485 137.258C98.2029 137.258 94.9882 134.168 94.9882 134.168C91.6319 133.373 91.7184 130.847 92.3079 128.479L86.5622 123.529Z" fill="#FFB573"/>
<path opacity="0.2" d="M88.9043 125.531L92.2998 128.463C92.1567 129.012 92.062 129.573 92.0169 130.139C90.7357 129.957 88.9672 128.55 88.8729 127.176C88.7869 126.63 88.7975 126.073 88.9043 125.531Z" fill="#111827"/>
<path d="M83.3163 118.254C84.4639 123.212 84.8883 125.333 87.7808 127.47C92.1902 130.688 97.9595 128.177 98.3053 122.981C98.6119 118.302 96.6783 110.984 91.4986 109.824C90.3569 109.564 89.1684 109.603 88.0459 109.938C86.9233 110.272 85.9039 110.891 85.0842 111.735C84.2646 112.579 83.672 113.622 83.3626 114.762C83.0532 115.903 83.0373 117.105 83.3163 118.254Z" fill="#FFB573"/>
<path d="M85.3441 113.789C87.1204 115.163 86.3423 120.145 84.1415 121.678C80.6988 120.844 80.0464 109.681 85.3441 113.789Z" fill="#4A154B"/>
<path d="M91.5456 108.847C93.5342 109.196 96.0573 112.184 96.5917 113.399C93.6049 112.843 85.3755 115.417 85.3755 115.417C85.3755 115.417 81.697 115.004 83.7642 112.136C85.8314 109.268 91.5456 108.847 91.5456 108.847Z" fill="#4A154B"/>
<path d="M91.9618 118.222C92.0326 118.635 92.2998 118.929 92.567 118.881C92.8343 118.834 92.9915 118.468 92.9207 118.087C92.85 117.706 92.5828 117.38 92.3155 117.428C92.0483 117.475 91.8675 117.817 91.9618 118.222Z" fill="#4A154B"/>
<path d="M96.4896 117.444C96.5603 117.849 96.8276 118.143 97.0948 118.095C97.362 118.047 97.5114 117.682 97.4485 117.3C97.3856 116.919 97.1105 116.601 96.8433 116.641C96.576 116.681 96.4189 117.03 96.4896 117.444Z" fill="#4A154B"/>
<path d="M96.7334 116.665L97.653 116.212C97.653 116.212 97.2836 117.062 96.7334 116.665Z" fill="#4A154B"/>
<path d="M94.7129 118.42C95.2271 119.299 95.8593 120.101 96.5914 120.804C96.4112 120.988 96.1932 121.13 95.9528 121.219C95.7123 121.308 95.4554 121.343 95.2002 121.32L94.7129 118.42Z" fill="#ED893E"/>
<path d="M93.2668 123.267C93.4694 123.26 93.6715 123.241 93.8721 123.212C93.9026 123.204 93.9293 123.185 93.9468 123.159C93.9642 123.132 93.9712 123.1 93.9664 123.069C93.9607 123.038 93.9438 123.01 93.9192 122.991C93.8945 122.972 93.8637 122.963 93.8328 122.965C93.3337 123.066 92.8183 123.046 92.3282 122.908C91.838 122.77 91.3869 122.518 91.011 122.171C91.0007 122.159 90.988 122.15 90.9738 122.143C90.9595 122.137 90.9441 122.133 90.9285 122.133C90.9129 122.133 90.8974 122.137 90.8832 122.143C90.869 122.15 90.8563 122.159 90.846 122.171C90.8239 122.195 90.8115 122.226 90.8115 122.258C90.8115 122.291 90.8239 122.322 90.846 122.346C91.1696 122.653 91.5501 122.892 91.9655 123.051C92.3809 123.209 92.8232 123.282 93.2668 123.267Z" fill="#4A154B"/>
<path d="M82.7505 123.077C83.2403 123.927 84.0427 124.546 84.9827 124.801C86.2325 125.118 86.8298 124.006 86.4604 122.806C86.1303 121.75 85.077 120.304 83.8352 120.502C83.5643 120.55 83.3096 120.666 83.0942 120.839C82.8788 121.012 82.7095 121.236 82.6017 121.492C82.494 121.748 82.4511 122.027 82.4771 122.303C82.5031 122.58 82.597 122.846 82.7505 123.077Z" fill="#FFB573"/>
<path d="M89.4545 117.586C89.5049 117.585 89.5534 117.567 89.593 117.535C89.6326 117.504 89.6612 117.46 89.6746 117.411C89.8392 117.051 90.0756 116.729 90.3691 116.465C90.6626 116.201 91.0068 116.001 91.3802 115.878C91.4403 115.856 91.4895 115.812 91.5175 115.754C91.5454 115.696 91.5497 115.629 91.5296 115.568C91.5198 115.538 91.5043 115.511 91.484 115.487C91.4637 115.463 91.439 115.444 91.4112 115.43C91.3835 115.416 91.3533 115.408 91.3223 115.405C91.2914 115.403 91.2603 115.407 91.2309 115.417C90.7839 115.562 90.373 115.802 90.0258 116.122C89.6787 116.441 89.4034 116.832 89.2187 117.268C89.199 117.33 89.2044 117.398 89.2339 117.456C89.2634 117.514 89.3145 117.558 89.3759 117.578L89.4545 117.586Z" fill="#4A154B"/>
<path d="M97.0087 115.076C97.06 115.073 97.1091 115.054 97.1489 115.021C97.1887 114.988 97.2171 114.943 97.2302 114.893C97.2433 114.842 97.2403 114.789 97.2217 114.741C97.2031 114.692 97.1698 114.651 97.1266 114.623C96.8002 114.425 96.4319 114.308 96.0521 114.282C95.6722 114.255 95.2916 114.321 94.9415 114.472C94.9124 114.486 94.8864 114.506 94.8651 114.531C94.8437 114.556 94.8274 114.584 94.8172 114.616C94.8069 114.647 94.8029 114.679 94.8054 114.712C94.8078 114.745 94.8167 114.777 94.8315 114.806C94.8629 114.86 94.9133 114.901 94.9729 114.92C95.0325 114.939 95.0969 114.935 95.1538 114.909C95.4319 114.791 95.7338 114.742 96.0345 114.766C96.3351 114.789 96.626 114.885 96.883 115.044C96.9214 115.066 96.9648 115.077 97.0087 115.076Z" fill="#4A154B"/>
<path d="M92.1748 117.451L93.0944 116.999C93.0944 116.999 92.7486 117.849 92.1748 117.451Z" fill="#4A154B"/>
<path d="M80.2355 165.201L79.7089 167.068C79.6382 167.211 79.8032 167.354 80.039 167.354H101.261C101.45 167.354 101.607 167.267 101.615 167.147L101.803 165.28C101.803 165.153 101.654 165.042 101.45 165.042H80.5656C80.5017 165.037 80.4376 165.049 80.3798 165.077C80.3219 165.105 80.2722 165.148 80.2355 165.201Z" fill="#FAFAFA"/>
<path d="M83.0333 167.561H82.4753C82.3652 167.561 82.2788 167.497 82.2866 167.434L82.546 165.01C82.546 164.939 82.656 164.883 82.7661 164.883H83.3163C83.4263 164.883 83.5128 164.939 83.5049 165.01L83.2456 167.434C83.2456 167.497 83.1434 167.561 83.0333 167.561Z" fill="#E6CAF7"/>
<g opacity="0.3">
<path d="M83.0333 167.561H82.4753C82.3652 167.561 82.2788 167.497 82.2866 167.434L82.546 165.01C82.546 164.939 82.656 164.883 82.7661 164.883H83.3163C83.4263 164.883 83.5128 164.939 83.5049 165.01L83.2456 167.434C83.2456 167.497 83.1434 167.561 83.0333 167.561Z" fill="#111827"/>
</g>
<path d="M99.673 167.561H99.115C98.9971 167.561 98.9185 167.497 98.9263 167.434L99.1857 165.01C99.1857 164.939 99.2879 164.883 99.4058 164.883H99.9638C100.074 164.883 100.152 164.939 100.152 165.01L99.8852 167.434C99.8774 167.497 99.8224 167.561 99.673 167.561Z" fill="#E6CAF7"/>
<path opacity="0.3" d="M99.673 167.561H99.115C98.9971 167.561 98.9185 167.497 98.9263 167.434L99.1857 165.01C99.1857 164.939 99.2879 164.883 99.4058 164.883H99.9638C100.074 164.883 100.152 164.939 100.152 165.01L99.8852 167.434C99.8774 167.497 99.8224 167.561 99.673 167.561Z" fill="#111827"/>
<path d="M91.3488 167.561H90.7907C90.6807 167.561 90.5942 167.497 90.6021 167.434L90.8693 165.01C90.8693 164.939 90.9715 164.883 91.0815 164.883H91.6396C91.7496 164.883 91.8361 164.939 91.8282 165.01L91.5688 167.434C91.561 167.497 91.4667 167.561 91.3488 167.561Z" fill="#E6CAF7"/>
<path opacity="0.3" d="M91.3488 167.561H90.7907C90.6807 167.561 90.5942 167.497 90.6021 167.434L90.8693 165.01C90.8693 164.939 90.9715 164.883 91.0815 164.883H91.6396C91.7496 164.883 91.8361 164.939 91.8282 165.01L91.5688 167.434C91.561 167.497 91.4667 167.561 91.3488 167.561Z" fill="#111827"/>
<path d="M117.688 123.705L113.771 127.61C113.209 128.171 113.203 129.087 113.758 129.655L115.347 131.284C115.902 131.853 116.808 131.859 117.37 131.298L121.287 127.393C121.85 126.832 121.856 125.916 121.301 125.348L119.711 123.719C119.156 123.15 118.251 123.144 117.688 123.705Z" fill="#E6CAF7"/>
<path opacity="0.4" d="M116.022 128.257L114.709 129.568C114.699 129.58 114.686 129.589 114.672 129.595C114.658 129.602 114.642 129.605 114.627 129.605C114.611 129.605 114.596 129.602 114.581 129.595C114.567 129.589 114.555 129.58 114.544 129.568C114.522 129.544 114.51 129.513 114.51 129.48C114.51 129.448 114.522 129.416 114.544 129.393L115.857 128.09C115.867 128.078 115.88 128.069 115.894 128.062C115.908 128.056 115.924 128.052 115.939 128.052C115.955 128.052 115.97 128.056 115.985 128.062C115.999 128.069 116.012 128.078 116.022 128.09C116.034 128.1 116.043 128.113 116.049 128.128C116.056 128.142 116.059 128.158 116.059 128.173C116.059 128.189 116.056 128.205 116.049 128.219C116.043 128.233 116.034 128.246 116.022 128.257Z" fill="white"/>
<path opacity="0.4" d="M118.851 123.656L117.538 124.959C117.516 124.981 117.487 124.993 117.456 124.993C117.425 124.993 117.395 124.981 117.373 124.959C117.361 124.949 117.352 124.936 117.346 124.922C117.339 124.907 117.336 124.892 117.336 124.876C117.336 124.86 117.339 124.844 117.346 124.83C117.352 124.816 117.361 124.803 117.373 124.792L118.686 123.482C118.696 123.47 118.709 123.46 118.723 123.454C118.737 123.447 118.753 123.444 118.768 123.444C118.784 123.444 118.799 123.447 118.814 123.454C118.828 123.46 118.841 123.47 118.851 123.482C118.873 123.505 118.885 123.536 118.885 123.569C118.885 123.601 118.873 123.633 118.851 123.656Z" fill="white"/>
<path opacity="0.4" d="M117.783 130.068L116.47 131.371C116.448 131.393 116.418 131.405 116.387 131.405C116.357 131.405 116.327 131.393 116.305 131.371C116.283 131.348 116.271 131.316 116.271 131.284C116.271 131.251 116.283 131.22 116.305 131.196L117.618 129.893C117.64 129.872 117.669 129.859 117.7 129.859C117.731 129.859 117.761 129.872 117.783 129.893C117.805 129.917 117.817 129.948 117.817 129.981C117.817 130.013 117.805 130.045 117.783 130.068Z" fill="white"/>
<path opacity="0.4" d="M115.471 129.647L115.126 129.988C115.102 130.011 115.071 130.023 115.039 130.023C115.007 130.023 114.976 130.011 114.953 129.988C114.931 129.966 114.919 129.936 114.919 129.905C114.919 129.874 114.931 129.844 114.953 129.822L115.291 129.472C115.315 129.451 115.345 129.44 115.377 129.44C115.409 129.44 115.439 129.451 115.464 129.472C115.487 129.495 115.5 129.525 115.502 129.558C115.503 129.59 115.492 129.622 115.471 129.647Z" fill="white"/>
<path opacity="0.2" d="M121.201 126.969L120.793 127.383C120.656 127.517 120.473 127.593 120.282 127.593C120.091 127.593 119.908 127.517 119.771 127.383C119.636 127.245 119.56 127.06 119.56 126.866C119.56 126.672 119.636 126.487 119.771 126.35L120.18 125.937C120.316 125.802 120.5 125.726 120.691 125.726C120.882 125.726 121.065 125.802 121.201 125.937C121.337 126.074 121.413 126.259 121.413 126.453C121.413 126.647 121.337 126.832 121.201 126.969Z" fill="#111827"/>
<path d="M79.1898 136.655C80.4081 137.139 81.7522 137.664 83.0569 138.116C84.3617 138.569 85.69 139.046 86.9869 139.459C89.5542 140.307 92.1819 140.955 94.8469 141.398L95.3343 141.469H95.46C95.6111 141.47 95.7616 141.451 95.908 141.414C96.4486 141.277 96.975 141.088 97.48 140.85C98.6919 140.284 99.8703 139.647 101.009 138.943C103.367 137.505 105.788 135.892 108.13 134.295L110.174 136.599C108.202 138.853 106.054 140.944 103.752 142.852C102.545 143.85 101.266 144.756 99.9245 145.561C99.1625 146.024 98.3568 146.41 97.5193 146.713C96.9776 146.903 96.4157 147.028 95.8452 147.086C95.6644 147.086 95.4993 147.086 95.3028 147.086H94.8941H94.3046C93.5186 147.047 92.7326 146.943 91.9466 146.856C91.1606 146.769 90.3746 146.634 89.6672 146.475C88.1581 146.205 86.6883 145.831 85.2342 145.434C83.7801 145.037 82.3495 144.576 80.9347 144.083C79.5199 143.591 78.1523 143.066 76.7061 142.423L79.1898 136.655Z" fill="#FFB573"/>
<path d="M108.013 134.557L111.11 129.98L112.485 135.002C112.485 135.002 110.127 137.306 108.146 136.662L108.013 134.557Z" fill="#FFB573"/>
<path d="M115.173 128.678L116.1 132.944L112.485 135.002L111.109 129.981L115.173 128.678Z" fill="#FFB573"/>
<path d="M72.6186 143.281C74.1199 144.87 80.6358 145.823 80.6358 145.823L84.7545 136.79C84.7545 136.79 78.7573 134.215 76.2971 135.582C73.8369 136.949 70.913 141.493 72.6186 143.281Z" fill="#E6CAF7"/>
<g opacity="0.5">
<path d="M72.6186 143.281C74.1199 144.87 80.6358 145.823 80.6358 145.823L84.7545 136.79C84.7545 136.79 78.7573 134.215 76.2971 135.582C73.8369 136.949 70.913 141.493 72.6186 143.281Z" fill="white"/>
</g>
<path d="M156.524 188.853L154.221 189.068C151.077 199.317 146.785 199.396 145.504 199.174C143.146 198.753 141.779 196.155 142.462 193.39C143.406 189.576 147.681 188.019 150.362 187.352C148.703 184.817 148.082 180.598 149.08 177.818C149.361 176.823 149.967 175.953 150.799 175.35C151.631 174.747 152.64 174.446 153.663 174.497C154.269 174.456 154.875 174.583 155.416 174.862C155.958 175.142 156.414 175.565 156.736 176.086C158.599 179.168 155.651 185.81 154.7 187.797L156.524 188.853ZM152.838 186.557C154.213 183.554 155.604 179.033 154.606 177.389C154.449 177.126 154.284 176.856 153.474 176.832C152.993 176.792 152.513 176.931 152.126 177.224C151.739 177.516 151.472 177.943 151.376 178.421C150.495 180.892 151.399 184.936 152.838 186.557ZM144.978 193.422C144.938 193.541 144.907 193.66 144.875 193.779C144.482 195.368 145.229 196.711 146.157 196.878C147.084 197.045 149.591 195.662 151.659 189.362C149.764 189.711 145.905 190.736 144.938 193.422H144.978Z" fill="#4A154B"/>
<path d="M238.842 194.494L223.138 238.414L145.41 210.027L161.059 166.25L238.842 194.494Z" fill="#E6CAF7"/>
<path opacity="0.6" d="M238.842 194.494L223.138 238.414L145.41 210.027L161.059 166.25L238.842 194.494Z" fill="white"/>
<path d="M157.098 177.325L155.816 180.9L233.599 209.145L234.872 205.578L157.098 177.325Z" fill="#4A154B"/>
<path d="M226.281 229.627L225.338 232.249L147.563 203.997L148.499 201.383L226.281 229.627Z" fill="#4A154B"/>
<path opacity="0.2" d="M229.379 220.967L223.138 238.414L145.41 210.027L151.596 192.714L229.379 220.967Z" fill="#111827"/>
<path d="M176.615 200.215L175.829 198.427C166.892 198.848 165.611 195.432 165.406 194.343C165.06 192.325 166.703 190.49 169.077 190.244C172.331 189.91 174.783 192.889 176.072 194.852C176.93 193.764 178.002 192.868 179.219 192.22C180.437 191.572 181.774 191.186 183.146 191.086C184.009 191.022 184.867 191.256 185.581 191.75C186.295 192.243 186.822 192.967 187.076 193.803C187.281 194.282 187.352 194.807 187.283 195.324C187.213 195.841 187.006 196.328 186.683 196.735C184.805 199.118 178.745 198.649 176.921 198.459L176.615 200.215ZM177.401 196.6C180.144 196.846 184.097 196.663 185.096 195.392C185.261 195.185 185.426 194.979 185.206 194.327C185.102 193.929 184.855 193.583 184.514 193.357C184.173 193.131 183.762 193.041 183.359 193.104C182.164 193.206 181.007 193.576 179.971 194.186C178.935 194.796 178.047 195.631 177.369 196.631L177.401 196.6ZM169.714 192.27H169.407C168.063 192.413 167.206 193.398 167.348 194.184C167.489 194.971 169.281 196.568 174.815 196.457C174.013 195.074 172.134 192.27 169.714 192.27Z" fill="#4A154B"/>
<path d="M195.777 224.447H156.823V197.402H195.652L195.777 224.447Z" fill="#E6CAF7"/>
<path opacity="0.4" d="M195.777 224.447H156.823V197.402H195.652L195.777 224.447Z" fill="white"/>
<path d="M185.826 197.402H182.658L182.784 224.447H185.952L185.826 197.402Z" fill="#4A154B"/>
<path d="M164.62 224.447H162.294L162.168 197.402H164.495L164.62 224.447Z" fill="#4A154B"/>
<path opacity="0.2" d="M172.307 224.447H156.823V197.402H172.182L172.307 224.447Z" fill="#111827"/>
<path d="M186.133 228.992C183.681 229.596 175.475 231.375 171.851 228.499C171.258 228.051 170.784 227.46 170.472 226.781C170.161 226.101 170.021 225.354 170.067 224.606C170.138 222.024 171.726 220.53 174.343 220.173C177.762 219.704 182.832 221.428 185.811 223.931C186.762 221.031 188.892 216.542 193.553 216.383C196.94 216.264 199.998 218.441 200.383 221.237C200.587 222.747 200.234 227.594 187.658 228.738L187.273 231.312L186.133 228.992ZM174.956 222.906C173.596 223.089 172.944 223.629 172.912 224.94C172.868 225.212 172.901 225.491 173.009 225.744C173.116 225.998 173.292 226.215 173.518 226.37C175.451 227.895 180.992 227.379 184.702 226.529C182.824 224.503 177.982 222.461 174.956 222.906ZM188.176 225.861C195.911 225.003 197.742 222.612 197.608 221.381C197.459 220.284 195.856 219.108 193.93 219.18C193.786 219.172 193.642 219.172 193.498 219.18C190.157 219.664 188.695 223.82 188.176 225.861Z" fill="#4A154B"/>
<path d="M210.557 222.558L161.483 229.248L163.902 247.381L212.976 240.692L210.557 222.558Z" fill="#E6CAF7"/>
<path opacity="0.4" d="M210.557 222.558L161.483 229.248L163.902 247.381L212.976 240.692L210.557 222.558Z" fill="white"/>
<path opacity="0.2" d="M210.56 222.563L191.062 225.221L193.482 243.354L212.979 240.696L210.56 222.563Z" fill="white"/>
<path d="M177.851 227.015L173.863 227.559L176.282 245.692L180.271 245.149L177.851 227.015Z" fill="#4A154B"/>
<path d="M203.664 223.497L200.735 223.896L203.154 242.03L206.083 241.631L203.664 223.497Z" fill="#4A154B"/>
<path d="M144.569 194.844L143.445 195.829C140.026 187.368 135.695 180.734 128.998 178.835L130.122 177.857C136.504 179.558 140.961 186.128 144.569 194.844Z" fill="#4A154B"/>
<path opacity="0.5" d="M144.569 194.844L143.445 195.829C140.026 187.368 135.695 180.734 128.998 178.835L130.122 177.857C136.504 179.558 140.961 186.128 144.569 194.844Z" fill="white"/>
<path d="M140.191 194.923L138.619 196.051C135.38 189.441 135.773 186.049 127.709 180.956L129.242 179.828C137.306 185.302 137.306 188.686 140.191 194.923Z" fill="#4A154B"/>
<path opacity="0.5" d="M140.191 194.923L138.619 196.051C135.38 189.441 135.773 186.049 127.709 180.956L129.242 179.828C137.306 185.302 137.306 188.686 140.191 194.923Z" fill="white"/>
<path d="M238.418 194.892H138.714C138.391 194.891 138.073 194.973 137.79 195.129C137.506 195.286 137.266 195.511 137.092 195.786C136.917 196.06 136.814 196.375 136.791 196.7C136.768 197.026 136.827 197.352 136.961 197.649L160.093 248.989C160.269 249.373 160.563 249.689 160.931 249.891C161.299 250.093 161.722 250.169 162.137 250.11L235.014 239.145C235.441 239.08 235.833 238.873 236.129 238.556C236.426 238.239 236.609 237.831 236.649 237.398L240.336 197.037C240.363 196.766 240.334 196.492 240.25 196.233C240.166 195.974 240.03 195.735 239.849 195.533C239.668 195.331 239.447 195.169 239.201 195.059C238.954 194.948 238.687 194.891 238.418 194.892ZM238.151 198.07L234.645 236.762C234.607 237.179 234.431 237.571 234.146 237.875C233.861 238.179 233.483 238.378 233.073 238.438L163.253 248.942C162.856 249.001 162.45 248.929 162.097 248.735C161.744 248.542 161.463 248.238 161.296 247.869L139.122 198.697C138.994 198.413 138.937 198.101 138.959 197.789C138.98 197.477 139.079 197.176 139.245 196.913C139.412 196.649 139.641 196.432 139.912 196.282C140.183 196.132 140.487 196.052 140.797 196.052H236.296C236.555 196.048 236.812 196.1 237.05 196.204C237.288 196.307 237.502 196.46 237.677 196.653C237.853 196.845 237.987 197.073 238.07 197.321C238.152 197.57 238.183 197.833 238.158 198.093L238.151 198.07Z" fill="#4A154B"/>
<path d="M167.874 248.965H166.42L142.729 194.892H144.176L167.874 248.965Z" fill="#4A154B"/>
<path d="M174.398 247.925H172.951L150.291 194.892H151.745L174.398 247.925Z" fill="#4A154B"/>
<path d="M180.442 246.884H178.996L159.425 194.892H160.879L180.442 246.884Z" fill="#4A154B"/>
<path d="M186.911 245.787H185.465L167.874 194.892H169.32L186.911 245.787Z" fill="#4A154B"/>
<path d="M192.775 244.993H191.329L176.701 194.892H178.147L192.775 244.993Z" fill="#4A154B"/>
<path d="M199.393 244.016H197.947L184.978 194.892H186.432L199.393 244.016Z" fill="#4A154B"/>
<path d="M205.634 242.856H204.188L193.506 194.892H194.952L205.634 242.856Z" fill="#4A154B"/>
<path d="M212.181 242.117H210.727L202.144 194.892H203.598L212.181 242.117Z" fill="#4A154B"/>
<path d="M218.406 241.322H216.952L211.033 194.892H212.479L218.406 241.322Z" fill="#4A154B"/>
<path d="M224.631 240.162H223.177L219.703 194.892H221.157L224.631 240.162Z" fill="#4A154B"/>
<path d="M231.037 239.551H229.59L228.679 194.892H230.133L231.037 239.551Z" fill="#4A154B"/>
<path d="M238.158 210.289V211.751L145.567 215.97V214.5L238.158 210.289Z" fill="#4A154B"/>
<path d="M236.995 225.639V227.109L154.457 236.221V234.76L236.995 225.639Z" fill="#4A154B"/>
<path d="M167.874 281.731C167.877 282.773 167.574 283.793 167.003 284.66C166.432 285.528 165.618 286.205 164.666 286.604C163.714 287.004 162.665 287.108 161.654 286.905C160.643 286.701 159.714 286.198 158.986 285.46C158.258 284.722 157.764 283.782 157.565 282.759C157.367 281.736 157.473 280.677 157.871 279.715C158.27 278.754 158.941 277.934 159.802 277.359C160.662 276.784 161.671 276.481 162.703 276.487C164.075 276.493 165.389 277.048 166.358 278.031C167.327 279.013 167.872 280.343 167.874 281.731Z" fill="#E6CAF7"/>
<path d="M166.632 281.699C166.403 282.441 165.946 283.09 165.327 283.552C164.707 284.013 163.959 284.263 163.19 284.265C162.455 284.288 161.738 284.04 161.171 283.568C160.604 283.096 160.226 282.432 160.108 281.699L158.489 271.72H171.71L170.138 277.281C170.027 277.668 169.834 278.026 169.572 278.33L166.632 281.699Z" fill="#4A154B"/>
<path opacity="0.3" d="M166.632 281.699C166.403 282.441 165.946 283.09 165.327 283.552C164.707 284.013 163.959 284.263 163.19 284.265C162.455 284.288 161.738 284.04 161.171 283.568C160.604 283.096 160.226 282.432 160.108 281.699L158.489 271.72H171.71L170.138 277.281C170.027 277.668 169.834 278.026 169.572 278.33L166.632 281.699Z" fill="white"/>
<path d="M217.636 281.731C217.633 282.772 217.935 283.791 218.506 284.658C219.076 285.525 219.888 286.202 220.839 286.602C221.79 287.002 222.837 287.108 223.847 286.906C224.858 286.705 225.787 286.204 226.516 285.468C227.245 284.733 227.741 283.795 227.942 282.774C228.143 281.752 228.04 280.694 227.646 279.732C227.251 278.77 226.583 277.948 225.726 277.37C224.869 276.793 223.861 276.485 222.831 276.487C221.455 276.487 220.134 277.039 219.16 278.022C218.186 279.005 217.638 280.339 217.636 281.731Z" fill="#E6CAF7"/>
<path d="M218.87 281.699C219.101 282.441 219.56 283.09 220.181 283.551C220.801 284.012 221.55 284.262 222.32 284.265C223.054 284.288 223.772 284.04 224.339 283.568C224.906 283.096 225.283 282.432 225.401 281.699L227.02 271.72H213.792L215.403 277.281C215.511 277.67 215.704 278.028 215.969 278.33L218.87 281.699Z" fill="#4A154B"/>
<path opacity="0.3" d="M218.87 281.699C219.101 282.441 219.56 283.09 220.181 283.551C220.801 284.012 221.55 284.262 222.32 284.265C223.054 284.288 223.772 284.04 224.339 283.568C224.906 283.096 225.283 282.432 225.401 281.699L227.02 271.72H213.792L215.403 277.281C215.511 277.67 215.704 278.028 215.969 278.33L218.87 281.699Z" fill="white"/>
<path opacity="0.6" d="M238.418 194.892H138.714C138.391 194.891 138.073 194.973 137.79 195.129C137.506 195.286 137.266 195.511 137.092 195.786C136.917 196.06 136.814 196.375 136.791 196.7C136.768 197.026 136.827 197.352 136.961 197.649L160.093 248.989C160.269 249.373 160.563 249.689 160.931 249.891C161.299 250.093 161.722 250.169 162.137 250.11L235.014 239.145C235.441 239.08 235.833 238.873 236.129 238.556C236.426 238.239 236.609 237.831 236.649 237.398L240.336 197.037C240.363 196.766 240.334 196.492 240.25 196.233C240.166 195.974 240.03 195.735 239.849 195.533C239.668 195.331 239.447 195.169 239.201 195.059C238.954 194.948 238.687 194.891 238.418 194.892ZM236.311 196.052C236.569 196.052 236.823 196.106 237.058 196.211C237.293 196.316 237.504 196.469 237.677 196.662C237.851 196.854 237.982 197.081 238.064 197.327C238.145 197.574 238.175 197.835 238.151 198.093L237.042 210.337L230.448 210.639L230.157 196.052H236.311ZM146.896 215.914L151.84 215.692L159.936 234.164L155.345 234.664L146.896 215.914ZM153.263 215.628L159.04 215.366L166.742 233.409L161.319 234.005L153.263 215.628ZM215.262 228.022L209.76 228.626L206.954 213.149L213.36 212.863L215.262 228.022ZM214.767 212.792L221.055 212.506L222.187 227.252L216.685 227.863L214.767 212.792ZM208.29 228.817L202.623 229.445L199.079 213.554L205.461 213.268L208.29 228.817ZM201.216 229.611L195.714 230.215L191.407 213.896L197.64 213.61L201.216 229.611ZM194.323 230.366L188.672 230.994L183.783 214.246L189.992 213.96L194.323 230.366ZM187.249 231.161L182.014 231.741L176.096 214.611L182.329 214.325L187.249 231.161ZM180.623 231.9L174.995 232.519L168.385 214.961L174.673 214.675L180.623 231.9ZM173.604 232.694L168.102 233.306L160.462 215.31L166.994 215.008L173.604 232.694ZM167.316 234.855L172.74 247.567L167.544 248.362L161.916 235.395L167.316 234.855ZM168.7 234.704L174.131 234.1L178.847 246.638L174.131 247.353L168.7 234.704ZM175.522 233.949L181.111 233.33L185.371 245.652L180.222 246.447L175.522 233.949ZM182.51 233.155L187.666 232.583L191.25 244.707L186.778 245.382L182.51 233.155ZM189.065 232.432L194.685 231.812L197.829 243.73L192.594 244.524L189.065 232.432ZM196.092 231.637L201.523 231.041L204.133 242.784L199.228 243.523L196.092 231.637ZM202.938 230.883L208.542 230.263L210.648 241.791L205.547 242.586L202.938 230.883ZM209.965 230.088L215.412 229.492L216.936 240.846L212.118 241.577L209.965 230.088ZM216.842 229.294L222.273 228.69L223.162 239.94L218.32 240.671L216.842 229.294ZM223.712 228.499L229.324 227.879L229.544 238.867L224.561 239.614L223.712 228.499ZM223.602 227.045L222.47 212.395L229.002 212.101L229.292 226.402L223.602 227.045ZM230.448 212.029L236.877 211.735L235.612 225.718L230.739 226.259L230.448 212.029ZM228.726 196.052L229.025 210.702L222.415 211.004L221.267 196.052H228.726ZM219.821 196.052L220.969 211.068L214.578 211.338L212.621 196.028L219.821 196.052ZM211.175 196.052L213.132 211.425L206.648 211.719L203.802 196.052H211.175ZM202.348 196.052L205.209 211.791L198.772 212.077L195.204 196.052H202.348ZM193.757 196.052L197.349 212.132L191.061 212.418L186.738 196.036L193.757 196.052ZM185.276 196.052L189.615 212.498L183.366 212.784L178.485 196.052H185.276ZM177.031 196.052L181.936 212.847L175.648 213.133L169.745 196.052H177.031ZM168.267 196.052L174.194 213.197L167.906 213.483L161.351 196.052H168.267ZM159.857 196.052L166.444 213.531L159.841 213.833L152.233 196.028L159.857 196.052ZM150.787 196.052L158.411 213.92L152.626 214.182L144.679 196.052H150.787ZM140.804 196.052H143.233L151.203 214.246L146.236 214.468L139.162 198.697C139.034 198.415 138.977 198.105 138.997 197.795C139.018 197.485 139.114 197.185 139.278 196.923C139.442 196.66 139.668 196.443 139.936 196.291C140.204 196.138 140.505 196.056 140.812 196.052H140.804ZM161.296 247.885L155.974 236.071L160.549 235.57L166.216 248.513L163.253 248.958C162.856 249.017 162.45 248.944 162.097 248.751C161.744 248.558 161.463 248.254 161.296 247.885ZM234.645 236.762C234.607 237.179 234.431 237.571 234.146 237.875C233.861 238.179 233.483 238.378 233.073 238.438L231.014 238.748L230.794 227.824L235.51 227.307L234.645 236.762Z" fill="white"/>
<path d="M123.135 178.66L129.077 182.132L131.695 177.556L125.761 174.084C125.463 173.91 125.135 173.797 124.795 173.752C124.455 173.707 124.109 173.73 123.777 173.82C123.446 173.91 123.135 174.065 122.863 174.277C122.591 174.488 122.363 174.752 122.192 175.053C122.02 175.352 121.907 175.683 121.861 176.026C121.815 176.37 121.837 176.719 121.925 177.054C122.012 177.389 122.164 177.703 122.372 177.979C122.58 178.254 122.839 178.486 123.135 178.66Z" fill="#E6CAF7"/>
<path d="M154.449 269.575V272.419H231.823V269.575H154.449Z" fill="#4A154B"/>
<path d="M167.639 249.344L168.07 252.155L181.888 249.99L181.457 247.179L167.639 249.344Z" fill="#4A154B"/>
<path d="M152.587 268.05C152.036 268.757 152.885 269.829 154.457 269.583V272.427C149.183 272.61 148.169 268.852 150.527 266.159L152.587 268.05Z" fill="#4A154B"/>
<path d="M165.461 253.447C166.144 252.704 167.066 252.231 168.063 252.112L167.638 249.299C166.012 249.567 164.515 250.358 163.37 251.556L165.461 253.447Z" fill="#4A154B"/>
<path d="M154.449 269.575V272.419H231.823V269.575H154.449Z" fill="#4A154B"/>
<path d="M167.639 249.344L168.07 252.155L181.888 249.99L181.457 247.179L167.639 249.344Z" fill="#4A154B"/>
<path d="M152.587 268.05C152.036 268.757 152.885 269.829 154.457 269.583V272.427C149.183 272.61 148.169 268.852 150.527 266.159L152.587 268.05Z" fill="#4A154B"/>
<path d="M165.461 253.447C166.144 252.704 167.066 252.231 168.063 252.112L167.638 249.299C166.012 249.567 164.515 250.358 163.37 251.556L165.461 253.447Z" fill="#4A154B"/>
<path d="M150.471 266.153L152.569 268.048L165.444 253.477L163.346 251.582L150.471 266.153Z" fill="#4A154B"/>
<path d="M150.471 266.153L152.569 268.048L165.444 253.477L163.346 251.582L150.471 266.153Z" fill="#4A154B"/>
<path opacity="0.4" d="M154.457 269.583C152.885 269.829 152.036 268.788 152.587 268.05L165.461 253.447C166.144 252.704 167.067 252.231 168.063 252.112L181.889 249.943L181.456 247.138L167.639 249.299C166.012 249.567 164.515 250.358 163.371 251.556L150.496 266.159C148.138 268.852 149.183 272.61 154.426 272.427H231.792V269.583H154.457Z" fill="white"/>
</svg>
